%FSLAX45Y45*%
G04 Gerber Fmt 4.5, Leading zero omitted, Abs format (unit mm)*
G04 Created by KiCad (PCBNEW 5.1.10) date 2021-12-26 14:38:26*
%MOMM*%
%LPD*%
G01*
G04 APERTURE LIST*
%TA.AperFunction,Profile*%
%ADD10C,0.050000*%
%TD*%
%ADD11C,0.200000*%
%ADD12C,0.300000*%
G04 APERTURE END LIST*
D10*
X11800000Y-9300000D02*
X11800000Y-12500000D01*
X15900000Y-9300000D02*
X11800000Y-9300000D01*
X15900000Y-12500000D02*
X15900000Y-9300000D01*
X11800000Y-12500000D02*
X15900000Y-12500000D01*
D11*
X12530000Y-9830000D02*
X12570000Y-9870000D01*
X12570000Y-9830000D02*
X12530000Y-9870000D01*
X13280000Y-9980000D02*
X13320000Y-10020000D01*
X13320000Y-9980000D02*
X13280000Y-10020000D01*
X13480000Y-9980000D02*
X13520000Y-10020000D01*
X13520000Y-9980000D02*
X13480000Y-10020000D01*
X13480000Y-10080000D02*
X13520000Y-10120000D01*
X13520000Y-10080000D02*
X13480000Y-10120000D01*
X13530000Y-10480000D02*
X13570000Y-10520000D01*
X13570000Y-10480000D02*
X13530000Y-10520000D01*
X13580000Y-11580000D02*
X13620000Y-11620000D01*
X13620000Y-11580000D02*
X13580000Y-11620000D01*
X13580000Y-11730000D02*
X13620000Y-11770000D01*
X13620000Y-11730000D02*
X13580000Y-11770000D01*
X13580000Y-11880000D02*
X13620000Y-11920000D01*
X13620000Y-11880000D02*
X13580000Y-11920000D01*
X13580000Y-12030000D02*
X13620000Y-12070000D01*
X13620000Y-12030000D02*
X13580000Y-12070000D01*
X13630000Y-10480000D02*
X13670000Y-10520000D01*
X13670000Y-10480000D02*
X13630000Y-10520000D01*
X13730000Y-10480000D02*
X13770000Y-10520000D01*
X13770000Y-10480000D02*
X13730000Y-10520000D01*
X13780000Y-9980000D02*
X13820000Y-10020000D01*
X13820000Y-9980000D02*
X13780000Y-10020000D01*
X14030000Y-11180000D02*
X14070000Y-11220000D01*
X14070000Y-11180000D02*
X14030000Y-11220000D01*
X14080000Y-9730000D02*
X14120000Y-9770000D01*
X14120000Y-9730000D02*
X14080000Y-9770000D01*
X14130000Y-11080000D02*
X14170000Y-11120000D01*
X14170000Y-11080000D02*
X14130000Y-11120000D01*
X14330000Y-9980000D02*
X14370000Y-10020000D01*
X14370000Y-9980000D02*
X14330000Y-10020000D01*
X14330000Y-10230000D02*
X14370000Y-10270000D01*
X14370000Y-10230000D02*
X14330000Y-10270000D01*
X14975000Y-10110000D02*
G75*
G03*
X14975000Y-10110000I-25000J0D01*
G01*
X14975000Y-10300000D02*
G75*
G03*
X14975000Y-10300000I-25000J0D01*
G01*
X13100000Y-10486900D02*
X13100000Y-10563100D01*
X13061900Y-10525000D02*
X13138100Y-10525000D01*
X13100000Y-10736900D02*
X13100000Y-10813100D01*
X13061900Y-10775000D02*
X13138100Y-10775000D01*
X13100000Y-10986900D02*
X13100000Y-11063100D01*
X13061900Y-11025000D02*
X13138100Y-11025000D01*
X13100000Y-11236900D02*
X13100000Y-11313100D01*
X13061900Y-11275000D02*
X13138100Y-11275000D01*
X13100000Y-11486900D02*
X13100000Y-11563100D01*
X13061900Y-11525000D02*
X13138100Y-11525000D01*
X13100000Y-11736900D02*
X13100000Y-11813100D01*
X13061900Y-11775000D02*
X13138100Y-11775000D01*
X13100000Y-11986900D02*
X13100000Y-12063100D01*
X13061900Y-12025000D02*
X13138100Y-12025000D01*
X13100000Y-12236900D02*
X13100000Y-12313100D01*
X13061900Y-12275000D02*
X13138100Y-12275000D01*
X14600000Y-10486900D02*
X14600000Y-10563100D01*
X14561900Y-10525000D02*
X14638100Y-10525000D01*
X14600000Y-10736900D02*
X14600000Y-10813100D01*
X14561900Y-10775000D02*
X14638100Y-10775000D01*
X14600000Y-10986900D02*
X14600000Y-11063100D01*
X14561900Y-11025000D02*
X14638100Y-11025000D01*
X14600000Y-11236900D02*
X14600000Y-11313100D01*
X14561900Y-11275000D02*
X14638100Y-11275000D01*
X14600000Y-11486900D02*
X14600000Y-11563100D01*
X14561900Y-11525000D02*
X14638100Y-11525000D01*
X14600000Y-11736900D02*
X14600000Y-11813100D01*
X14561900Y-11775000D02*
X14638100Y-11775000D01*
X14600000Y-11986900D02*
X14600000Y-12063100D01*
X14561900Y-12025000D02*
X14638100Y-12025000D01*
X14600000Y-12236900D02*
X14600000Y-12313100D01*
X14561900Y-12275000D02*
X14638100Y-12275000D01*
X13231356Y-9535356D02*
X13231356Y-9464644D01*
X13160644Y-9464644D01*
X13160644Y-9535356D01*
X13231356Y-9535356D01*
X13485356Y-9535356D02*
X13485356Y-9464644D01*
X13414644Y-9464644D01*
X13414644Y-9535356D01*
X13485356Y-9535356D01*
X13739356Y-9535356D02*
X13739356Y-9464644D01*
X13668644Y-9464644D01*
X13668644Y-9535356D01*
X13739356Y-9535356D01*
X13993356Y-9535356D02*
X13993356Y-9464644D01*
X13922644Y-9464644D01*
X13922644Y-9535356D01*
X13993356Y-9535356D01*
X14385356Y-9635356D02*
X14385356Y-9564644D01*
X14314644Y-9564644D01*
X14314644Y-9635356D01*
X14385356Y-9635356D01*
X14639356Y-9635356D02*
X14639356Y-9564644D01*
X14568644Y-9564644D01*
X14568644Y-9635356D01*
X14639356Y-9635356D01*
X14893356Y-9635356D02*
X14893356Y-9564644D01*
X14822644Y-9564644D01*
X14822644Y-9635356D01*
X14893356Y-9635356D01*
X12000000Y-10705000D02*
X12055000Y-10650000D01*
X12000000Y-10595000D01*
X11945000Y-10650000D01*
X12000000Y-10705000D01*
X12000000Y-11155000D02*
X12055000Y-11100000D01*
X12000000Y-11045000D01*
X11945000Y-11100000D01*
X12000000Y-11155000D01*
X12000000Y-11755000D02*
X12055000Y-11700000D01*
X12000000Y-11645000D01*
X11945000Y-11700000D01*
X12000000Y-11755000D01*
X12000000Y-12205000D02*
X12055000Y-12150000D01*
X12000000Y-12095000D01*
X11945000Y-12150000D01*
X12000000Y-12205000D01*
X12650000Y-10705000D02*
X12705000Y-10650000D01*
X12650000Y-10595000D01*
X12595000Y-10650000D01*
X12650000Y-10705000D01*
X12650000Y-11155000D02*
X12705000Y-11100000D01*
X12650000Y-11045000D01*
X12595000Y-11100000D01*
X12650000Y-11155000D01*
X12650000Y-11755000D02*
X12705000Y-11700000D01*
X12650000Y-11645000D01*
X12595000Y-11700000D01*
X12650000Y-11755000D01*
X12650000Y-12205000D02*
X12705000Y-12150000D01*
X12650000Y-12095000D01*
X12595000Y-12150000D01*
X12650000Y-12205000D01*
X15050000Y-10705000D02*
X15105000Y-10650000D01*
X15050000Y-10595000D01*
X14995000Y-10650000D01*
X15050000Y-10705000D01*
X15050000Y-11155000D02*
X15105000Y-11100000D01*
X15050000Y-11045000D01*
X14995000Y-11100000D01*
X15050000Y-11155000D01*
X15050000Y-11755000D02*
X15105000Y-11700000D01*
X15050000Y-11645000D01*
X14995000Y-11700000D01*
X15050000Y-11755000D01*
X15050000Y-12205000D02*
X15105000Y-12150000D01*
X15050000Y-12095000D01*
X14995000Y-12150000D01*
X15050000Y-12205000D01*
X15700000Y-10705000D02*
X15755000Y-10650000D01*
X15700000Y-10595000D01*
X15645000Y-10650000D01*
X15700000Y-10705000D01*
X15700000Y-11155000D02*
X15755000Y-11100000D01*
X15700000Y-11045000D01*
X15645000Y-11100000D01*
X15700000Y-11155000D01*
X15700000Y-11755000D02*
X15755000Y-11700000D01*
X15700000Y-11645000D01*
X15645000Y-11700000D01*
X15700000Y-11755000D01*
X15700000Y-12205000D02*
X15755000Y-12150000D01*
X15700000Y-12095000D01*
X15645000Y-12150000D01*
X15700000Y-12205000D01*
D12*
X12083928Y-12968214D02*
X12083928Y-12668214D01*
X12155357Y-12668214D01*
X12198214Y-12682500D01*
X12226786Y-12711071D01*
X12241071Y-12739643D01*
X12255357Y-12796786D01*
X12255357Y-12839643D01*
X12241071Y-12896786D01*
X12226786Y-12925357D01*
X12198214Y-12953929D01*
X12155357Y-12968214D01*
X12083928Y-12968214D01*
X12383928Y-12968214D02*
X12383928Y-12768214D01*
X12383928Y-12825357D02*
X12398214Y-12796786D01*
X12412500Y-12782500D01*
X12441071Y-12768214D01*
X12469643Y-12768214D01*
X12569643Y-12968214D02*
X12569643Y-12768214D01*
X12569643Y-12668214D02*
X12555357Y-12682500D01*
X12569643Y-12696786D01*
X12583928Y-12682500D01*
X12569643Y-12668214D01*
X12569643Y-12696786D01*
X12755357Y-12968214D02*
X12726786Y-12953929D01*
X12712500Y-12925357D01*
X12712500Y-12668214D01*
X12912500Y-12968214D02*
X12883928Y-12953929D01*
X12869643Y-12925357D01*
X12869643Y-12668214D01*
X13255357Y-12968214D02*
X13255357Y-12668214D01*
X13355357Y-12882500D01*
X13455357Y-12668214D01*
X13455357Y-12968214D01*
X13726786Y-12968214D02*
X13726786Y-12811071D01*
X13712500Y-12782500D01*
X13683928Y-12768214D01*
X13626786Y-12768214D01*
X13598214Y-12782500D01*
X13726786Y-12953929D02*
X13698214Y-12968214D01*
X13626786Y-12968214D01*
X13598214Y-12953929D01*
X13583928Y-12925357D01*
X13583928Y-12896786D01*
X13598214Y-12868214D01*
X13626786Y-12853929D01*
X13698214Y-12853929D01*
X13726786Y-12839643D01*
X13869643Y-12768214D02*
X13869643Y-13068214D01*
X13869643Y-12782500D02*
X13898214Y-12768214D01*
X13955357Y-12768214D01*
X13983928Y-12782500D01*
X13998214Y-12796786D01*
X14012500Y-12825357D01*
X14012500Y-12911071D01*
X13998214Y-12939643D01*
X13983928Y-12953929D01*
X13955357Y-12968214D01*
X13898214Y-12968214D01*
X13869643Y-12953929D01*
X14141071Y-12939643D02*
X14155357Y-12953929D01*
X14141071Y-12968214D01*
X14126786Y-12953929D01*
X14141071Y-12939643D01*
X14141071Y-12968214D01*
X14141071Y-12782500D02*
X14155357Y-12796786D01*
X14141071Y-12811071D01*
X14126786Y-12796786D01*
X14141071Y-12782500D01*
X14141071Y-12811071D01*
X11757500Y-13442500D02*
X11797500Y-13482500D01*
X11797500Y-13442500D02*
X11757500Y-13482500D01*
X12141071Y-13298214D02*
X12169643Y-13298214D01*
X12198214Y-13312500D01*
X12212500Y-13326786D01*
X12226786Y-13355357D01*
X12241071Y-13412500D01*
X12241071Y-13483929D01*
X12226786Y-13541071D01*
X12212500Y-13569643D01*
X12198214Y-13583929D01*
X12169643Y-13598214D01*
X12141071Y-13598214D01*
X12112500Y-13583929D01*
X12098214Y-13569643D01*
X12083928Y-13541071D01*
X12069643Y-13483929D01*
X12069643Y-13412500D01*
X12083928Y-13355357D01*
X12098214Y-13326786D01*
X12112500Y-13312500D01*
X12141071Y-13298214D01*
X12369643Y-13569643D02*
X12383928Y-13583929D01*
X12369643Y-13598214D01*
X12355357Y-13583929D01*
X12369643Y-13569643D01*
X12369643Y-13598214D01*
X12641071Y-13398214D02*
X12641071Y-13598214D01*
X12569643Y-13283929D02*
X12498214Y-13498214D01*
X12683928Y-13498214D01*
X12855357Y-13298214D02*
X12883928Y-13298214D01*
X12912500Y-13312500D01*
X12926786Y-13326786D01*
X12941071Y-13355357D01*
X12955357Y-13412500D01*
X12955357Y-13483929D01*
X12941071Y-13541071D01*
X12926786Y-13569643D01*
X12912500Y-13583929D01*
X12883928Y-13598214D01*
X12855357Y-13598214D01*
X12826786Y-13583929D01*
X12812500Y-13569643D01*
X12798214Y-13541071D01*
X12783928Y-13483929D01*
X12783928Y-13412500D01*
X12798214Y-13355357D01*
X12812500Y-13326786D01*
X12826786Y-13312500D01*
X12855357Y-13298214D01*
X13141071Y-13298214D02*
X13169643Y-13298214D01*
X13198214Y-13312500D01*
X13212500Y-13326786D01*
X13226786Y-13355357D01*
X13241071Y-13412500D01*
X13241071Y-13483929D01*
X13226786Y-13541071D01*
X13212500Y-13569643D01*
X13198214Y-13583929D01*
X13169643Y-13598214D01*
X13141071Y-13598214D01*
X13112500Y-13583929D01*
X13098214Y-13569643D01*
X13083928Y-13541071D01*
X13069643Y-13483929D01*
X13069643Y-13412500D01*
X13083928Y-13355357D01*
X13098214Y-13326786D01*
X13112500Y-13312500D01*
X13141071Y-13298214D01*
X13369643Y-13598214D02*
X13369643Y-13398214D01*
X13369643Y-13426786D02*
X13383928Y-13412500D01*
X13412500Y-13398214D01*
X13455357Y-13398214D01*
X13483928Y-13412500D01*
X13498214Y-13441071D01*
X13498214Y-13598214D01*
X13498214Y-13441071D02*
X13512500Y-13412500D01*
X13541071Y-13398214D01*
X13583928Y-13398214D01*
X13612500Y-13412500D01*
X13626786Y-13441071D01*
X13626786Y-13598214D01*
X13769643Y-13598214D02*
X13769643Y-13398214D01*
X13769643Y-13426786D02*
X13783928Y-13412500D01*
X13812500Y-13398214D01*
X13855357Y-13398214D01*
X13883928Y-13412500D01*
X13898214Y-13441071D01*
X13898214Y-13598214D01*
X13898214Y-13441071D02*
X13912500Y-13412500D01*
X13941071Y-13398214D01*
X13983928Y-13398214D01*
X14012500Y-13412500D01*
X14026786Y-13441071D01*
X14026786Y-13598214D01*
X14612500Y-13283929D02*
X14355357Y-13669643D01*
X14998214Y-13298214D02*
X15026786Y-13298214D01*
X15055357Y-13312500D01*
X15069643Y-13326786D01*
X15083928Y-13355357D01*
X15098214Y-13412500D01*
X15098214Y-13483929D01*
X15083928Y-13541071D01*
X15069643Y-13569643D01*
X15055357Y-13583929D01*
X15026786Y-13598214D01*
X14998214Y-13598214D01*
X14969643Y-13583929D01*
X14955357Y-13569643D01*
X14941071Y-13541071D01*
X14926786Y-13483929D01*
X14926786Y-13412500D01*
X14941071Y-13355357D01*
X14955357Y-13326786D01*
X14969643Y-13312500D01*
X14998214Y-13298214D01*
X15226786Y-13569643D02*
X15241071Y-13583929D01*
X15226786Y-13598214D01*
X15212500Y-13583929D01*
X15226786Y-13569643D01*
X15226786Y-13598214D01*
X15426786Y-13298214D02*
X15455357Y-13298214D01*
X15483928Y-13312500D01*
X15498214Y-13326786D01*
X15512500Y-13355357D01*
X15526786Y-13412500D01*
X15526786Y-13483929D01*
X15512500Y-13541071D01*
X15498214Y-13569643D01*
X15483928Y-13583929D01*
X15455357Y-13598214D01*
X15426786Y-13598214D01*
X15398214Y-13583929D01*
X15383928Y-13569643D01*
X15369643Y-13541071D01*
X15355357Y-13483929D01*
X15355357Y-13412500D01*
X15369643Y-13355357D01*
X15383928Y-13326786D01*
X15398214Y-13312500D01*
X15426786Y-13298214D01*
X15812500Y-13598214D02*
X15641071Y-13598214D01*
X15726786Y-13598214D02*
X15726786Y-13298214D01*
X15698214Y-13341071D01*
X15669643Y-13369643D01*
X15641071Y-13383929D01*
X16083928Y-13298214D02*
X15941071Y-13298214D01*
X15926786Y-13441071D01*
X15941071Y-13426786D01*
X15969643Y-13412500D01*
X16041071Y-13412500D01*
X16069643Y-13426786D01*
X16083928Y-13441071D01*
X16098214Y-13469643D01*
X16098214Y-13541071D01*
X16083928Y-13569643D01*
X16069643Y-13583929D01*
X16041071Y-13598214D01*
X15969643Y-13598214D01*
X15941071Y-13583929D01*
X15926786Y-13569643D01*
X16198214Y-13298214D02*
X16398214Y-13298214D01*
X16269643Y-13598214D01*
X16498214Y-13298214D02*
X16498214Y-13355357D01*
X16612500Y-13298214D02*
X16612500Y-13355357D01*
X17055357Y-13712500D02*
X17041071Y-13698214D01*
X17012500Y-13655357D01*
X16998214Y-13626786D01*
X16983928Y-13583929D01*
X16969643Y-13512500D01*
X16969643Y-13455357D01*
X16983928Y-13383929D01*
X16998214Y-13341071D01*
X17012500Y-13312500D01*
X17041071Y-13269643D01*
X17055357Y-13255357D01*
X17326786Y-13598214D02*
X17155357Y-13598214D01*
X17241071Y-13598214D02*
X17241071Y-13298214D01*
X17212500Y-13341071D01*
X17183928Y-13369643D01*
X17155357Y-13383929D01*
X17426786Y-13298214D02*
X17626786Y-13298214D01*
X17498214Y-13598214D01*
X17969643Y-13598214D02*
X17969643Y-13298214D01*
X18098214Y-13598214D02*
X18098214Y-13441071D01*
X18083928Y-13412500D01*
X18055357Y-13398214D01*
X18012500Y-13398214D01*
X17983928Y-13412500D01*
X17969643Y-13426786D01*
X18283928Y-13598214D02*
X18255357Y-13583929D01*
X18241071Y-13569643D01*
X18226786Y-13541071D01*
X18226786Y-13455357D01*
X18241071Y-13426786D01*
X18255357Y-13412500D01*
X18283928Y-13398214D01*
X18326786Y-13398214D01*
X18355357Y-13412500D01*
X18369643Y-13426786D01*
X18383928Y-13455357D01*
X18383928Y-13541071D01*
X18369643Y-13569643D01*
X18355357Y-13583929D01*
X18326786Y-13598214D01*
X18283928Y-13598214D01*
X18555357Y-13598214D02*
X18526786Y-13583929D01*
X18512500Y-13555357D01*
X18512500Y-13298214D01*
X18783928Y-13583929D02*
X18755357Y-13598214D01*
X18698214Y-13598214D01*
X18669643Y-13583929D01*
X18655357Y-13555357D01*
X18655357Y-13441071D01*
X18669643Y-13412500D01*
X18698214Y-13398214D01*
X18755357Y-13398214D01*
X18783928Y-13412500D01*
X18798214Y-13441071D01*
X18798214Y-13469643D01*
X18655357Y-13498214D01*
X18912500Y-13583929D02*
X18941071Y-13598214D01*
X18998214Y-13598214D01*
X19026786Y-13583929D01*
X19041071Y-13555357D01*
X19041071Y-13541071D01*
X19026786Y-13512500D01*
X18998214Y-13498214D01*
X18955357Y-13498214D01*
X18926786Y-13483929D01*
X18912500Y-13455357D01*
X18912500Y-13441071D01*
X18926786Y-13412500D01*
X18955357Y-13398214D01*
X18998214Y-13398214D01*
X19026786Y-13412500D01*
X19141071Y-13712500D02*
X19155357Y-13698214D01*
X19183928Y-13655357D01*
X19198214Y-13626786D01*
X19212500Y-13583929D01*
X19226786Y-13512500D01*
X19226786Y-13455357D01*
X19212500Y-13383929D01*
X19198214Y-13341071D01*
X19183928Y-13312500D01*
X19155357Y-13269643D01*
X19141071Y-13255357D01*
X11797500Y-13858500D02*
G75*
G03*
X11797500Y-13858500I-25000J0D01*
G01*
X12141071Y-13694214D02*
X12169643Y-13694214D01*
X12198214Y-13708500D01*
X12212500Y-13722786D01*
X12226786Y-13751357D01*
X12241071Y-13808500D01*
X12241071Y-13879929D01*
X12226786Y-13937071D01*
X12212500Y-13965643D01*
X12198214Y-13979929D01*
X12169643Y-13994214D01*
X12141071Y-13994214D01*
X12112500Y-13979929D01*
X12098214Y-13965643D01*
X12083928Y-13937071D01*
X12069643Y-13879929D01*
X12069643Y-13808500D01*
X12083928Y-13751357D01*
X12098214Y-13722786D01*
X12112500Y-13708500D01*
X12141071Y-13694214D01*
X12369643Y-13965643D02*
X12383928Y-13979929D01*
X12369643Y-13994214D01*
X12355357Y-13979929D01*
X12369643Y-13965643D01*
X12369643Y-13994214D01*
X12655357Y-13694214D02*
X12512500Y-13694214D01*
X12498214Y-13837071D01*
X12512500Y-13822786D01*
X12541071Y-13808500D01*
X12612500Y-13808500D01*
X12641071Y-13822786D01*
X12655357Y-13837071D01*
X12669643Y-13865643D01*
X12669643Y-13937071D01*
X12655357Y-13965643D01*
X12641071Y-13979929D01*
X12612500Y-13994214D01*
X12541071Y-13994214D01*
X12512500Y-13979929D01*
X12498214Y-13965643D01*
X12855357Y-13694214D02*
X12883928Y-13694214D01*
X12912500Y-13708500D01*
X12926786Y-13722786D01*
X12941071Y-13751357D01*
X12955357Y-13808500D01*
X12955357Y-13879929D01*
X12941071Y-13937071D01*
X12926786Y-13965643D01*
X12912500Y-13979929D01*
X12883928Y-13994214D01*
X12855357Y-13994214D01*
X12826786Y-13979929D01*
X12812500Y-13965643D01*
X12798214Y-13937071D01*
X12783928Y-13879929D01*
X12783928Y-13808500D01*
X12798214Y-13751357D01*
X12812500Y-13722786D01*
X12826786Y-13708500D01*
X12855357Y-13694214D01*
X13141071Y-13694214D02*
X13169643Y-13694214D01*
X13198214Y-13708500D01*
X13212500Y-13722786D01*
X13226786Y-13751357D01*
X13241071Y-13808500D01*
X13241071Y-13879929D01*
X13226786Y-13937071D01*
X13212500Y-13965643D01*
X13198214Y-13979929D01*
X13169643Y-13994214D01*
X13141071Y-13994214D01*
X13112500Y-13979929D01*
X13098214Y-13965643D01*
X13083928Y-13937071D01*
X13069643Y-13879929D01*
X13069643Y-13808500D01*
X13083928Y-13751357D01*
X13098214Y-13722786D01*
X13112500Y-13708500D01*
X13141071Y-13694214D01*
X13369643Y-13994214D02*
X13369643Y-13794214D01*
X13369643Y-13822786D02*
X13383928Y-13808500D01*
X13412500Y-13794214D01*
X13455357Y-13794214D01*
X13483928Y-13808500D01*
X13498214Y-13837071D01*
X13498214Y-13994214D01*
X13498214Y-13837071D02*
X13512500Y-13808500D01*
X13541071Y-13794214D01*
X13583928Y-13794214D01*
X13612500Y-13808500D01*
X13626786Y-13837071D01*
X13626786Y-13994214D01*
X13769643Y-13994214D02*
X13769643Y-13794214D01*
X13769643Y-13822786D02*
X13783928Y-13808500D01*
X13812500Y-13794214D01*
X13855357Y-13794214D01*
X13883928Y-13808500D01*
X13898214Y-13837071D01*
X13898214Y-13994214D01*
X13898214Y-13837071D02*
X13912500Y-13808500D01*
X13941071Y-13794214D01*
X13983928Y-13794214D01*
X14012500Y-13808500D01*
X14026786Y-13837071D01*
X14026786Y-13994214D01*
X14612500Y-13679929D02*
X14355357Y-14065643D01*
X14998214Y-13694214D02*
X15026786Y-13694214D01*
X15055357Y-13708500D01*
X15069643Y-13722786D01*
X15083928Y-13751357D01*
X15098214Y-13808500D01*
X15098214Y-13879929D01*
X15083928Y-13937071D01*
X15069643Y-13965643D01*
X15055357Y-13979929D01*
X15026786Y-13994214D01*
X14998214Y-13994214D01*
X14969643Y-13979929D01*
X14955357Y-13965643D01*
X14941071Y-13937071D01*
X14926786Y-13879929D01*
X14926786Y-13808500D01*
X14941071Y-13751357D01*
X14955357Y-13722786D01*
X14969643Y-13708500D01*
X14998214Y-13694214D01*
X15226786Y-13965643D02*
X15241071Y-13979929D01*
X15226786Y-13994214D01*
X15212500Y-13979929D01*
X15226786Y-13965643D01*
X15226786Y-13994214D01*
X15426786Y-13694214D02*
X15455357Y-13694214D01*
X15483928Y-13708500D01*
X15498214Y-13722786D01*
X15512500Y-13751357D01*
X15526786Y-13808500D01*
X15526786Y-13879929D01*
X15512500Y-13937071D01*
X15498214Y-13965643D01*
X15483928Y-13979929D01*
X15455357Y-13994214D01*
X15426786Y-13994214D01*
X15398214Y-13979929D01*
X15383928Y-13965643D01*
X15369643Y-13937071D01*
X15355357Y-13879929D01*
X15355357Y-13808500D01*
X15369643Y-13751357D01*
X15383928Y-13722786D01*
X15398214Y-13708500D01*
X15426786Y-13694214D01*
X15812500Y-13994214D02*
X15641071Y-13994214D01*
X15726786Y-13994214D02*
X15726786Y-13694214D01*
X15698214Y-13737071D01*
X15669643Y-13765643D01*
X15641071Y-13779929D01*
X15955357Y-13994214D02*
X16012500Y-13994214D01*
X16041071Y-13979929D01*
X16055357Y-13965643D01*
X16083928Y-13922786D01*
X16098214Y-13865643D01*
X16098214Y-13751357D01*
X16083928Y-13722786D01*
X16069643Y-13708500D01*
X16041071Y-13694214D01*
X15983928Y-13694214D01*
X15955357Y-13708500D01*
X15941071Y-13722786D01*
X15926786Y-13751357D01*
X15926786Y-13822786D01*
X15941071Y-13851357D01*
X15955357Y-13865643D01*
X15983928Y-13879929D01*
X16041071Y-13879929D01*
X16069643Y-13865643D01*
X16083928Y-13851357D01*
X16098214Y-13822786D01*
X16198214Y-13694214D02*
X16398214Y-13694214D01*
X16269643Y-13994214D01*
X16498214Y-13694214D02*
X16498214Y-13751357D01*
X16612500Y-13694214D02*
X16612500Y-13751357D01*
X17055357Y-14108500D02*
X17041071Y-14094214D01*
X17012500Y-14051357D01*
X16998214Y-14022786D01*
X16983928Y-13979929D01*
X16969643Y-13908500D01*
X16969643Y-13851357D01*
X16983928Y-13779929D01*
X16998214Y-13737071D01*
X17012500Y-13708500D01*
X17041071Y-13665643D01*
X17055357Y-13651357D01*
X17155357Y-13722786D02*
X17169643Y-13708500D01*
X17198214Y-13694214D01*
X17269643Y-13694214D01*
X17298214Y-13708500D01*
X17312500Y-13722786D01*
X17326786Y-13751357D01*
X17326786Y-13779929D01*
X17312500Y-13822786D01*
X17141071Y-13994214D01*
X17326786Y-13994214D01*
X17683928Y-13994214D02*
X17683928Y-13694214D01*
X17812500Y-13994214D02*
X17812500Y-13837071D01*
X17798214Y-13808500D01*
X17769643Y-13794214D01*
X17726786Y-13794214D01*
X17698214Y-13808500D01*
X17683928Y-13822786D01*
X17998214Y-13994214D02*
X17969643Y-13979929D01*
X17955357Y-13965643D01*
X17941071Y-13937071D01*
X17941071Y-13851357D01*
X17955357Y-13822786D01*
X17969643Y-13808500D01*
X17998214Y-13794214D01*
X18041071Y-13794214D01*
X18069643Y-13808500D01*
X18083928Y-13822786D01*
X18098214Y-13851357D01*
X18098214Y-13937071D01*
X18083928Y-13965643D01*
X18069643Y-13979929D01*
X18041071Y-13994214D01*
X17998214Y-13994214D01*
X18269643Y-13994214D02*
X18241071Y-13979929D01*
X18226786Y-13951357D01*
X18226786Y-13694214D01*
X18498214Y-13979929D02*
X18469643Y-13994214D01*
X18412500Y-13994214D01*
X18383928Y-13979929D01*
X18369643Y-13951357D01*
X18369643Y-13837071D01*
X18383928Y-13808500D01*
X18412500Y-13794214D01*
X18469643Y-13794214D01*
X18498214Y-13808500D01*
X18512500Y-13837071D01*
X18512500Y-13865643D01*
X18369643Y-13894214D01*
X18626786Y-13979929D02*
X18655357Y-13994214D01*
X18712500Y-13994214D01*
X18741071Y-13979929D01*
X18755357Y-13951357D01*
X18755357Y-13937071D01*
X18741071Y-13908500D01*
X18712500Y-13894214D01*
X18669643Y-13894214D01*
X18641071Y-13879929D01*
X18626786Y-13851357D01*
X18626786Y-13837071D01*
X18641071Y-13808500D01*
X18669643Y-13794214D01*
X18712500Y-13794214D01*
X18741071Y-13808500D01*
X18855357Y-14108500D02*
X18869643Y-14094214D01*
X18898214Y-14051357D01*
X18912500Y-14022786D01*
X18926786Y-13979929D01*
X18941071Y-13908500D01*
X18941071Y-13851357D01*
X18926786Y-13779929D01*
X18912500Y-13737071D01*
X18898214Y-13708500D01*
X18869643Y-13665643D01*
X18855357Y-13651357D01*
X11759400Y-14216400D02*
X11759400Y-14292600D01*
X11721300Y-14254500D02*
X11797500Y-14254500D01*
X12141071Y-14090214D02*
X12169643Y-14090214D01*
X12198214Y-14104500D01*
X12212500Y-14118786D01*
X12226786Y-14147357D01*
X12241071Y-14204500D01*
X12241071Y-14275929D01*
X12226786Y-14333071D01*
X12212500Y-14361643D01*
X12198214Y-14375929D01*
X12169643Y-14390214D01*
X12141071Y-14390214D01*
X12112500Y-14375929D01*
X12098214Y-14361643D01*
X12083928Y-14333071D01*
X12069643Y-14275929D01*
X12069643Y-14204500D01*
X12083928Y-14147357D01*
X12098214Y-14118786D01*
X12112500Y-14104500D01*
X12141071Y-14090214D01*
X12369643Y-14361643D02*
X12383928Y-14375929D01*
X12369643Y-14390214D01*
X12355357Y-14375929D01*
X12369643Y-14361643D01*
X12369643Y-14390214D01*
X12483928Y-14090214D02*
X12683928Y-14090214D01*
X12555357Y-14390214D01*
X12926786Y-14090214D02*
X12869643Y-14090214D01*
X12841071Y-14104500D01*
X12826786Y-14118786D01*
X12798214Y-14161643D01*
X12783928Y-14218786D01*
X12783928Y-14333071D01*
X12798214Y-14361643D01*
X12812500Y-14375929D01*
X12841071Y-14390214D01*
X12898214Y-14390214D01*
X12926786Y-14375929D01*
X12941071Y-14361643D01*
X12955357Y-14333071D01*
X12955357Y-14261643D01*
X12941071Y-14233071D01*
X12926786Y-14218786D01*
X12898214Y-14204500D01*
X12841071Y-14204500D01*
X12812500Y-14218786D01*
X12798214Y-14233071D01*
X12783928Y-14261643D01*
X13069643Y-14118786D02*
X13083928Y-14104500D01*
X13112500Y-14090214D01*
X13183928Y-14090214D01*
X13212500Y-14104500D01*
X13226786Y-14118786D01*
X13241071Y-14147357D01*
X13241071Y-14175929D01*
X13226786Y-14218786D01*
X13055357Y-14390214D01*
X13241071Y-14390214D01*
X13369643Y-14390214D02*
X13369643Y-14190214D01*
X13369643Y-14218786D02*
X13383928Y-14204500D01*
X13412500Y-14190214D01*
X13455357Y-14190214D01*
X13483928Y-14204500D01*
X13498214Y-14233071D01*
X13498214Y-14390214D01*
X13498214Y-14233071D02*
X13512500Y-14204500D01*
X13541071Y-14190214D01*
X13583928Y-14190214D01*
X13612500Y-14204500D01*
X13626786Y-14233071D01*
X13626786Y-14390214D01*
X13769643Y-14390214D02*
X13769643Y-14190214D01*
X13769643Y-14218786D02*
X13783928Y-14204500D01*
X13812500Y-14190214D01*
X13855357Y-14190214D01*
X13883928Y-14204500D01*
X13898214Y-14233071D01*
X13898214Y-14390214D01*
X13898214Y-14233071D02*
X13912500Y-14204500D01*
X13941071Y-14190214D01*
X13983928Y-14190214D01*
X14012500Y-14204500D01*
X14026786Y-14233071D01*
X14026786Y-14390214D01*
X14612500Y-14075929D02*
X14355357Y-14461643D01*
X14998214Y-14090214D02*
X15026786Y-14090214D01*
X15055357Y-14104500D01*
X15069643Y-14118786D01*
X15083928Y-14147357D01*
X15098214Y-14204500D01*
X15098214Y-14275929D01*
X15083928Y-14333071D01*
X15069643Y-14361643D01*
X15055357Y-14375929D01*
X15026786Y-14390214D01*
X14998214Y-14390214D01*
X14969643Y-14375929D01*
X14955357Y-14361643D01*
X14941071Y-14333071D01*
X14926786Y-14275929D01*
X14926786Y-14204500D01*
X14941071Y-14147357D01*
X14955357Y-14118786D01*
X14969643Y-14104500D01*
X14998214Y-14090214D01*
X15226786Y-14361643D02*
X15241071Y-14375929D01*
X15226786Y-14390214D01*
X15212500Y-14375929D01*
X15226786Y-14361643D01*
X15226786Y-14390214D01*
X15426786Y-14090214D02*
X15455357Y-14090214D01*
X15483928Y-14104500D01*
X15498214Y-14118786D01*
X15512500Y-14147357D01*
X15526786Y-14204500D01*
X15526786Y-14275929D01*
X15512500Y-14333071D01*
X15498214Y-14361643D01*
X15483928Y-14375929D01*
X15455357Y-14390214D01*
X15426786Y-14390214D01*
X15398214Y-14375929D01*
X15383928Y-14361643D01*
X15369643Y-14333071D01*
X15355357Y-14275929D01*
X15355357Y-14204500D01*
X15369643Y-14147357D01*
X15383928Y-14118786D01*
X15398214Y-14104500D01*
X15426786Y-14090214D01*
X15626786Y-14090214D02*
X15812500Y-14090214D01*
X15712500Y-14204500D01*
X15755357Y-14204500D01*
X15783928Y-14218786D01*
X15798214Y-14233071D01*
X15812500Y-14261643D01*
X15812500Y-14333071D01*
X15798214Y-14361643D01*
X15783928Y-14375929D01*
X15755357Y-14390214D01*
X15669643Y-14390214D01*
X15641071Y-14375929D01*
X15626786Y-14361643D01*
X15998214Y-14090214D02*
X16026786Y-14090214D01*
X16055357Y-14104500D01*
X16069643Y-14118786D01*
X16083928Y-14147357D01*
X16098214Y-14204500D01*
X16098214Y-14275929D01*
X16083928Y-14333071D01*
X16069643Y-14361643D01*
X16055357Y-14375929D01*
X16026786Y-14390214D01*
X15998214Y-14390214D01*
X15969643Y-14375929D01*
X15955357Y-14361643D01*
X15941071Y-14333071D01*
X15926786Y-14275929D01*
X15926786Y-14204500D01*
X15941071Y-14147357D01*
X15955357Y-14118786D01*
X15969643Y-14104500D01*
X15998214Y-14090214D01*
X16283928Y-14090214D02*
X16312500Y-14090214D01*
X16341071Y-14104500D01*
X16355357Y-14118786D01*
X16369643Y-14147357D01*
X16383928Y-14204500D01*
X16383928Y-14275929D01*
X16369643Y-14333071D01*
X16355357Y-14361643D01*
X16341071Y-14375929D01*
X16312500Y-14390214D01*
X16283928Y-14390214D01*
X16255357Y-14375929D01*
X16241071Y-14361643D01*
X16226786Y-14333071D01*
X16212500Y-14275929D01*
X16212500Y-14204500D01*
X16226786Y-14147357D01*
X16241071Y-14118786D01*
X16255357Y-14104500D01*
X16283928Y-14090214D01*
X16498214Y-14090214D02*
X16498214Y-14147357D01*
X16612500Y-14090214D02*
X16612500Y-14147357D01*
X17055357Y-14504500D02*
X17041071Y-14490214D01*
X17012500Y-14447357D01*
X16998214Y-14418786D01*
X16983928Y-14375929D01*
X16969643Y-14304500D01*
X16969643Y-14247357D01*
X16983928Y-14175929D01*
X16998214Y-14133071D01*
X17012500Y-14104500D01*
X17041071Y-14061643D01*
X17055357Y-14047357D01*
X17326786Y-14390214D02*
X17155357Y-14390214D01*
X17241071Y-14390214D02*
X17241071Y-14090214D01*
X17212500Y-14133071D01*
X17183928Y-14161643D01*
X17155357Y-14175929D01*
X17583928Y-14090214D02*
X17526786Y-14090214D01*
X17498214Y-14104500D01*
X17483928Y-14118786D01*
X17455357Y-14161643D01*
X17441071Y-14218786D01*
X17441071Y-14333071D01*
X17455357Y-14361643D01*
X17469643Y-14375929D01*
X17498214Y-14390214D01*
X17555357Y-14390214D01*
X17583928Y-14375929D01*
X17598214Y-14361643D01*
X17612500Y-14333071D01*
X17612500Y-14261643D01*
X17598214Y-14233071D01*
X17583928Y-14218786D01*
X17555357Y-14204500D01*
X17498214Y-14204500D01*
X17469643Y-14218786D01*
X17455357Y-14233071D01*
X17441071Y-14261643D01*
X17969643Y-14390214D02*
X17969643Y-14090214D01*
X18098214Y-14390214D02*
X18098214Y-14233071D01*
X18083928Y-14204500D01*
X18055357Y-14190214D01*
X18012500Y-14190214D01*
X17983928Y-14204500D01*
X17969643Y-14218786D01*
X18283928Y-14390214D02*
X18255357Y-14375929D01*
X18241071Y-14361643D01*
X18226786Y-14333071D01*
X18226786Y-14247357D01*
X18241071Y-14218786D01*
X18255357Y-14204500D01*
X18283928Y-14190214D01*
X18326786Y-14190214D01*
X18355357Y-14204500D01*
X18369643Y-14218786D01*
X18383928Y-14247357D01*
X18383928Y-14333071D01*
X18369643Y-14361643D01*
X18355357Y-14375929D01*
X18326786Y-14390214D01*
X18283928Y-14390214D01*
X18555357Y-14390214D02*
X18526786Y-14375929D01*
X18512500Y-14347357D01*
X18512500Y-14090214D01*
X18783928Y-14375929D02*
X18755357Y-14390214D01*
X18698214Y-14390214D01*
X18669643Y-14375929D01*
X18655357Y-14347357D01*
X18655357Y-14233071D01*
X18669643Y-14204500D01*
X18698214Y-14190214D01*
X18755357Y-14190214D01*
X18783928Y-14204500D01*
X18798214Y-14233071D01*
X18798214Y-14261643D01*
X18655357Y-14290214D01*
X18912500Y-14375929D02*
X18941071Y-14390214D01*
X18998214Y-14390214D01*
X19026786Y-14375929D01*
X19041071Y-14347357D01*
X19041071Y-14333071D01*
X19026786Y-14304500D01*
X18998214Y-14290214D01*
X18955357Y-14290214D01*
X18926786Y-14275929D01*
X18912500Y-14247357D01*
X18912500Y-14233071D01*
X18926786Y-14204500D01*
X18955357Y-14190214D01*
X18998214Y-14190214D01*
X19026786Y-14204500D01*
X19141071Y-14504500D02*
X19155357Y-14490214D01*
X19183928Y-14447357D01*
X19198214Y-14418786D01*
X19212500Y-14375929D01*
X19226786Y-14304500D01*
X19226786Y-14247357D01*
X19212500Y-14175929D01*
X19198214Y-14133071D01*
X19183928Y-14104500D01*
X19155357Y-14061643D01*
X19141071Y-14047357D01*
X11782856Y-14685856D02*
X11782856Y-14615144D01*
X11712144Y-14615144D01*
X11712144Y-14685856D01*
X11782856Y-14685856D01*
X12241071Y-14786214D02*
X12069643Y-14786214D01*
X12155357Y-14786214D02*
X12155357Y-14486214D01*
X12126786Y-14529071D01*
X12098214Y-14557643D01*
X12069643Y-14571929D01*
X12369643Y-14757643D02*
X12383928Y-14771929D01*
X12369643Y-14786214D01*
X12355357Y-14771929D01*
X12369643Y-14757643D01*
X12369643Y-14786214D01*
X12569643Y-14486214D02*
X12598214Y-14486214D01*
X12626786Y-14500500D01*
X12641071Y-14514786D01*
X12655357Y-14543357D01*
X12669643Y-14600500D01*
X12669643Y-14671929D01*
X12655357Y-14729071D01*
X12641071Y-14757643D01*
X12626786Y-14771929D01*
X12598214Y-14786214D01*
X12569643Y-14786214D01*
X12541071Y-14771929D01*
X12526786Y-14757643D01*
X12512500Y-14729071D01*
X12498214Y-14671929D01*
X12498214Y-14600500D01*
X12512500Y-14543357D01*
X12526786Y-14514786D01*
X12541071Y-14500500D01*
X12569643Y-14486214D01*
X12855357Y-14486214D02*
X12883928Y-14486214D01*
X12912500Y-14500500D01*
X12926786Y-14514786D01*
X12941071Y-14543357D01*
X12955357Y-14600500D01*
X12955357Y-14671929D01*
X12941071Y-14729071D01*
X12926786Y-14757643D01*
X12912500Y-14771929D01*
X12883928Y-14786214D01*
X12855357Y-14786214D01*
X12826786Y-14771929D01*
X12812500Y-14757643D01*
X12798214Y-14729071D01*
X12783928Y-14671929D01*
X12783928Y-14600500D01*
X12798214Y-14543357D01*
X12812500Y-14514786D01*
X12826786Y-14500500D01*
X12855357Y-14486214D01*
X13141071Y-14486214D02*
X13169643Y-14486214D01*
X13198214Y-14500500D01*
X13212500Y-14514786D01*
X13226786Y-14543357D01*
X13241071Y-14600500D01*
X13241071Y-14671929D01*
X13226786Y-14729071D01*
X13212500Y-14757643D01*
X13198214Y-14771929D01*
X13169643Y-14786214D01*
X13141071Y-14786214D01*
X13112500Y-14771929D01*
X13098214Y-14757643D01*
X13083928Y-14729071D01*
X13069643Y-14671929D01*
X13069643Y-14600500D01*
X13083928Y-14543357D01*
X13098214Y-14514786D01*
X13112500Y-14500500D01*
X13141071Y-14486214D01*
X13369643Y-14786214D02*
X13369643Y-14586214D01*
X13369643Y-14614786D02*
X13383928Y-14600500D01*
X13412500Y-14586214D01*
X13455357Y-14586214D01*
X13483928Y-14600500D01*
X13498214Y-14629071D01*
X13498214Y-14786214D01*
X13498214Y-14629071D02*
X13512500Y-14600500D01*
X13541071Y-14586214D01*
X13583928Y-14586214D01*
X13612500Y-14600500D01*
X13626786Y-14629071D01*
X13626786Y-14786214D01*
X13769643Y-14786214D02*
X13769643Y-14586214D01*
X13769643Y-14614786D02*
X13783928Y-14600500D01*
X13812500Y-14586214D01*
X13855357Y-14586214D01*
X13883928Y-14600500D01*
X13898214Y-14629071D01*
X13898214Y-14786214D01*
X13898214Y-14629071D02*
X13912500Y-14600500D01*
X13941071Y-14586214D01*
X13983928Y-14586214D01*
X14012500Y-14600500D01*
X14026786Y-14629071D01*
X14026786Y-14786214D01*
X14612500Y-14471929D02*
X14355357Y-14857643D01*
X14998214Y-14486214D02*
X15026786Y-14486214D01*
X15055357Y-14500500D01*
X15069643Y-14514786D01*
X15083928Y-14543357D01*
X15098214Y-14600500D01*
X15098214Y-14671929D01*
X15083928Y-14729071D01*
X15069643Y-14757643D01*
X15055357Y-14771929D01*
X15026786Y-14786214D01*
X14998214Y-14786214D01*
X14969643Y-14771929D01*
X14955357Y-14757643D01*
X14941071Y-14729071D01*
X14926786Y-14671929D01*
X14926786Y-14600500D01*
X14941071Y-14543357D01*
X14955357Y-14514786D01*
X14969643Y-14500500D01*
X14998214Y-14486214D01*
X15226786Y-14757643D02*
X15241071Y-14771929D01*
X15226786Y-14786214D01*
X15212500Y-14771929D01*
X15226786Y-14757643D01*
X15226786Y-14786214D01*
X15426786Y-14486214D02*
X15455357Y-14486214D01*
X15483928Y-14500500D01*
X15498214Y-14514786D01*
X15512500Y-14543357D01*
X15526786Y-14600500D01*
X15526786Y-14671929D01*
X15512500Y-14729071D01*
X15498214Y-14757643D01*
X15483928Y-14771929D01*
X15455357Y-14786214D01*
X15426786Y-14786214D01*
X15398214Y-14771929D01*
X15383928Y-14757643D01*
X15369643Y-14729071D01*
X15355357Y-14671929D01*
X15355357Y-14600500D01*
X15369643Y-14543357D01*
X15383928Y-14514786D01*
X15398214Y-14500500D01*
X15426786Y-14486214D01*
X15626786Y-14486214D02*
X15812500Y-14486214D01*
X15712500Y-14600500D01*
X15755357Y-14600500D01*
X15783928Y-14614786D01*
X15798214Y-14629071D01*
X15812500Y-14657643D01*
X15812500Y-14729071D01*
X15798214Y-14757643D01*
X15783928Y-14771929D01*
X15755357Y-14786214D01*
X15669643Y-14786214D01*
X15641071Y-14771929D01*
X15626786Y-14757643D01*
X15955357Y-14786214D02*
X16012500Y-14786214D01*
X16041071Y-14771929D01*
X16055357Y-14757643D01*
X16083928Y-14714786D01*
X16098214Y-14657643D01*
X16098214Y-14543357D01*
X16083928Y-14514786D01*
X16069643Y-14500500D01*
X16041071Y-14486214D01*
X15983928Y-14486214D01*
X15955357Y-14500500D01*
X15941071Y-14514786D01*
X15926786Y-14543357D01*
X15926786Y-14614786D01*
X15941071Y-14643357D01*
X15955357Y-14657643D01*
X15983928Y-14671929D01*
X16041071Y-14671929D01*
X16069643Y-14657643D01*
X16083928Y-14643357D01*
X16098214Y-14614786D01*
X16355357Y-14586214D02*
X16355357Y-14786214D01*
X16283928Y-14471929D02*
X16212500Y-14686214D01*
X16398214Y-14686214D01*
X16498214Y-14486214D02*
X16498214Y-14543357D01*
X16612500Y-14486214D02*
X16612500Y-14543357D01*
X17055357Y-14900500D02*
X17041071Y-14886214D01*
X17012500Y-14843357D01*
X16998214Y-14814786D01*
X16983928Y-14771929D01*
X16969643Y-14700500D01*
X16969643Y-14643357D01*
X16983928Y-14571929D01*
X16998214Y-14529071D01*
X17012500Y-14500500D01*
X17041071Y-14457643D01*
X17055357Y-14443357D01*
X17141071Y-14486214D02*
X17341071Y-14486214D01*
X17212500Y-14786214D01*
X17683928Y-14786214D02*
X17683928Y-14486214D01*
X17812500Y-14786214D02*
X17812500Y-14629071D01*
X17798214Y-14600500D01*
X17769643Y-14586214D01*
X17726786Y-14586214D01*
X17698214Y-14600500D01*
X17683928Y-14614786D01*
X17998214Y-14786214D02*
X17969643Y-14771929D01*
X17955357Y-14757643D01*
X17941071Y-14729071D01*
X17941071Y-14643357D01*
X17955357Y-14614786D01*
X17969643Y-14600500D01*
X17998214Y-14586214D01*
X18041071Y-14586214D01*
X18069643Y-14600500D01*
X18083928Y-14614786D01*
X18098214Y-14643357D01*
X18098214Y-14729071D01*
X18083928Y-14757643D01*
X18069643Y-14771929D01*
X18041071Y-14786214D01*
X17998214Y-14786214D01*
X18269643Y-14786214D02*
X18241071Y-14771929D01*
X18226786Y-14743357D01*
X18226786Y-14486214D01*
X18498214Y-14771929D02*
X18469643Y-14786214D01*
X18412500Y-14786214D01*
X18383928Y-14771929D01*
X18369643Y-14743357D01*
X18369643Y-14629071D01*
X18383928Y-14600500D01*
X18412500Y-14586214D01*
X18469643Y-14586214D01*
X18498214Y-14600500D01*
X18512500Y-14629071D01*
X18512500Y-14657643D01*
X18369643Y-14686214D01*
X18626786Y-14771929D02*
X18655357Y-14786214D01*
X18712500Y-14786214D01*
X18741071Y-14771929D01*
X18755357Y-14743357D01*
X18755357Y-14729071D01*
X18741071Y-14700500D01*
X18712500Y-14686214D01*
X18669643Y-14686214D01*
X18641071Y-14671929D01*
X18626786Y-14643357D01*
X18626786Y-14629071D01*
X18641071Y-14600500D01*
X18669643Y-14586214D01*
X18712500Y-14586214D01*
X18741071Y-14600500D01*
X18855357Y-14900500D02*
X18869643Y-14886214D01*
X18898214Y-14843357D01*
X18912500Y-14814786D01*
X18926786Y-14771929D01*
X18941071Y-14700500D01*
X18941071Y-14643357D01*
X18926786Y-14571929D01*
X18912500Y-14529071D01*
X18898214Y-14500500D01*
X18869643Y-14457643D01*
X18855357Y-14443357D01*
X11742500Y-15101500D02*
X11797500Y-15046500D01*
X11742500Y-14991500D01*
X11687500Y-15046500D01*
X11742500Y-15101500D01*
X12241071Y-15182214D02*
X12069643Y-15182214D01*
X12155357Y-15182214D02*
X12155357Y-14882214D01*
X12126786Y-14925071D01*
X12098214Y-14953643D01*
X12069643Y-14967929D01*
X12369643Y-15153643D02*
X12383928Y-15167929D01*
X12369643Y-15182214D01*
X12355357Y-15167929D01*
X12369643Y-15153643D01*
X12369643Y-15182214D01*
X12669643Y-15182214D02*
X12498214Y-15182214D01*
X12583928Y-15182214D02*
X12583928Y-14882214D01*
X12555357Y-14925071D01*
X12526786Y-14953643D01*
X12498214Y-14967929D01*
X12855357Y-14882214D02*
X12883928Y-14882214D01*
X12912500Y-14896500D01*
X12926786Y-14910786D01*
X12941071Y-14939357D01*
X12955357Y-14996500D01*
X12955357Y-15067929D01*
X12941071Y-15125071D01*
X12926786Y-15153643D01*
X12912500Y-15167929D01*
X12883928Y-15182214D01*
X12855357Y-15182214D01*
X12826786Y-15167929D01*
X12812500Y-15153643D01*
X12798214Y-15125071D01*
X12783928Y-15067929D01*
X12783928Y-14996500D01*
X12798214Y-14939357D01*
X12812500Y-14910786D01*
X12826786Y-14896500D01*
X12855357Y-14882214D01*
X13141071Y-14882214D02*
X13169643Y-14882214D01*
X13198214Y-14896500D01*
X13212500Y-14910786D01*
X13226786Y-14939357D01*
X13241071Y-14996500D01*
X13241071Y-15067929D01*
X13226786Y-15125071D01*
X13212500Y-15153643D01*
X13198214Y-15167929D01*
X13169643Y-15182214D01*
X13141071Y-15182214D01*
X13112500Y-15167929D01*
X13098214Y-15153643D01*
X13083928Y-15125071D01*
X13069643Y-15067929D01*
X13069643Y-14996500D01*
X13083928Y-14939357D01*
X13098214Y-14910786D01*
X13112500Y-14896500D01*
X13141071Y-14882214D01*
X13369643Y-15182214D02*
X13369643Y-14982214D01*
X13369643Y-15010786D02*
X13383928Y-14996500D01*
X13412500Y-14982214D01*
X13455357Y-14982214D01*
X13483928Y-14996500D01*
X13498214Y-15025071D01*
X13498214Y-15182214D01*
X13498214Y-15025071D02*
X13512500Y-14996500D01*
X13541071Y-14982214D01*
X13583928Y-14982214D01*
X13612500Y-14996500D01*
X13626786Y-15025071D01*
X13626786Y-15182214D01*
X13769643Y-15182214D02*
X13769643Y-14982214D01*
X13769643Y-15010786D02*
X13783928Y-14996500D01*
X13812500Y-14982214D01*
X13855357Y-14982214D01*
X13883928Y-14996500D01*
X13898214Y-15025071D01*
X13898214Y-15182214D01*
X13898214Y-15025071D02*
X13912500Y-14996500D01*
X13941071Y-14982214D01*
X13983928Y-14982214D01*
X14012500Y-14996500D01*
X14026786Y-15025071D01*
X14026786Y-15182214D01*
X14612500Y-14867929D02*
X14355357Y-15253643D01*
X14998214Y-14882214D02*
X15026786Y-14882214D01*
X15055357Y-14896500D01*
X15069643Y-14910786D01*
X15083928Y-14939357D01*
X15098214Y-14996500D01*
X15098214Y-15067929D01*
X15083928Y-15125071D01*
X15069643Y-15153643D01*
X15055357Y-15167929D01*
X15026786Y-15182214D01*
X14998214Y-15182214D01*
X14969643Y-15167929D01*
X14955357Y-15153643D01*
X14941071Y-15125071D01*
X14926786Y-15067929D01*
X14926786Y-14996500D01*
X14941071Y-14939357D01*
X14955357Y-14910786D01*
X14969643Y-14896500D01*
X14998214Y-14882214D01*
X15226786Y-15153643D02*
X15241071Y-15167929D01*
X15226786Y-15182214D01*
X15212500Y-15167929D01*
X15226786Y-15153643D01*
X15226786Y-15182214D01*
X15426786Y-14882214D02*
X15455357Y-14882214D01*
X15483928Y-14896500D01*
X15498214Y-14910786D01*
X15512500Y-14939357D01*
X15526786Y-14996500D01*
X15526786Y-15067929D01*
X15512500Y-15125071D01*
X15498214Y-15153643D01*
X15483928Y-15167929D01*
X15455357Y-15182214D01*
X15426786Y-15182214D01*
X15398214Y-15167929D01*
X15383928Y-15153643D01*
X15369643Y-15125071D01*
X15355357Y-15067929D01*
X15355357Y-14996500D01*
X15369643Y-14939357D01*
X15383928Y-14910786D01*
X15398214Y-14896500D01*
X15426786Y-14882214D01*
X15783928Y-14982214D02*
X15783928Y-15182214D01*
X15712500Y-14867929D02*
X15641071Y-15082214D01*
X15826786Y-15082214D01*
X15912500Y-14882214D02*
X16098214Y-14882214D01*
X15998214Y-14996500D01*
X16041071Y-14996500D01*
X16069643Y-15010786D01*
X16083928Y-15025071D01*
X16098214Y-15053643D01*
X16098214Y-15125071D01*
X16083928Y-15153643D01*
X16069643Y-15167929D01*
X16041071Y-15182214D01*
X15955357Y-15182214D01*
X15926786Y-15167929D01*
X15912500Y-15153643D01*
X16198214Y-14882214D02*
X16383928Y-14882214D01*
X16283928Y-14996500D01*
X16326786Y-14996500D01*
X16355357Y-15010786D01*
X16369643Y-15025071D01*
X16383928Y-15053643D01*
X16383928Y-15125071D01*
X16369643Y-15153643D01*
X16355357Y-15167929D01*
X16326786Y-15182214D01*
X16241071Y-15182214D01*
X16212500Y-15167929D01*
X16198214Y-15153643D01*
X16498214Y-14882214D02*
X16498214Y-14939357D01*
X16612500Y-14882214D02*
X16612500Y-14939357D01*
X17055357Y-15296500D02*
X17041071Y-15282214D01*
X17012500Y-15239357D01*
X16998214Y-15210786D01*
X16983928Y-15167929D01*
X16969643Y-15096500D01*
X16969643Y-15039357D01*
X16983928Y-14967929D01*
X16998214Y-14925071D01*
X17012500Y-14896500D01*
X17041071Y-14853643D01*
X17055357Y-14839357D01*
X17326786Y-15182214D02*
X17155357Y-15182214D01*
X17241071Y-15182214D02*
X17241071Y-14882214D01*
X17212500Y-14925071D01*
X17183928Y-14953643D01*
X17155357Y-14967929D01*
X17583928Y-14882214D02*
X17526786Y-14882214D01*
X17498214Y-14896500D01*
X17483928Y-14910786D01*
X17455357Y-14953643D01*
X17441071Y-15010786D01*
X17441071Y-15125071D01*
X17455357Y-15153643D01*
X17469643Y-15167929D01*
X17498214Y-15182214D01*
X17555357Y-15182214D01*
X17583928Y-15167929D01*
X17598214Y-15153643D01*
X17612500Y-15125071D01*
X17612500Y-15053643D01*
X17598214Y-15025071D01*
X17583928Y-15010786D01*
X17555357Y-14996500D01*
X17498214Y-14996500D01*
X17469643Y-15010786D01*
X17455357Y-15025071D01*
X17441071Y-15053643D01*
X17969643Y-15182214D02*
X17969643Y-14882214D01*
X18098214Y-15182214D02*
X18098214Y-15025071D01*
X18083928Y-14996500D01*
X18055357Y-14982214D01*
X18012500Y-14982214D01*
X17983928Y-14996500D01*
X17969643Y-15010786D01*
X18283928Y-15182214D02*
X18255357Y-15167929D01*
X18241071Y-15153643D01*
X18226786Y-15125071D01*
X18226786Y-15039357D01*
X18241071Y-15010786D01*
X18255357Y-14996500D01*
X18283928Y-14982214D01*
X18326786Y-14982214D01*
X18355357Y-14996500D01*
X18369643Y-15010786D01*
X18383928Y-15039357D01*
X18383928Y-15125071D01*
X18369643Y-15153643D01*
X18355357Y-15167929D01*
X18326786Y-15182214D01*
X18283928Y-15182214D01*
X18555357Y-15182214D02*
X18526786Y-15167929D01*
X18512500Y-15139357D01*
X18512500Y-14882214D01*
X18783928Y-15167929D02*
X18755357Y-15182214D01*
X18698214Y-15182214D01*
X18669643Y-15167929D01*
X18655357Y-15139357D01*
X18655357Y-15025071D01*
X18669643Y-14996500D01*
X18698214Y-14982214D01*
X18755357Y-14982214D01*
X18783928Y-14996500D01*
X18798214Y-15025071D01*
X18798214Y-15053643D01*
X18655357Y-15082214D01*
X18912500Y-15167929D02*
X18941071Y-15182214D01*
X18998214Y-15182214D01*
X19026786Y-15167929D01*
X19041071Y-15139357D01*
X19041071Y-15125071D01*
X19026786Y-15096500D01*
X18998214Y-15082214D01*
X18955357Y-15082214D01*
X18926786Y-15067929D01*
X18912500Y-15039357D01*
X18912500Y-15025071D01*
X18926786Y-14996500D01*
X18955357Y-14982214D01*
X18998214Y-14982214D01*
X19026786Y-14996500D01*
X19141071Y-15296500D02*
X19155357Y-15282214D01*
X19183928Y-15239357D01*
X19198214Y-15210786D01*
X19212500Y-15167929D01*
X19226786Y-15096500D01*
X19226786Y-15039357D01*
X19212500Y-14967929D01*
X19198214Y-14925071D01*
X19183928Y-14896500D01*
X19155357Y-14853643D01*
X19141071Y-14839357D01*
M02*
