M48
; DRILL file {KiCad 5.1.10} date Sun Dec 26 14:38:16 2021
; FORMAT={-:-/ absolute / metric / decimal}
; #@! TF.CreationDate,2021-12-26T14:38:16-06:00
; #@! TF.GenerationSoftware,Kicad,Pcbnew,5.1.10
; #@! TF.FileFunction,Plated,1,2,PTH
FMAT,2
METRIC
T1C0.400
T2C0.500
T3C0.762
T4C1.000
T5C1.100
%
G90
G05
T1
X125.5Y-98.5
X133.0Y-100.0
X135.0Y-100.0
X135.0Y-101.0
X135.5Y-105.0
X136.0Y-116.0
X136.0Y-117.5
X136.0Y-119.0
X136.0Y-120.5
X136.5Y-105.0
X137.5Y-105.0
X138.0Y-100.0
X140.5Y-112.0
X141.0Y-97.5
X141.5Y-111.0
X143.5Y-100.0
X143.5Y-102.5
T2
X149.5Y-101.1
X149.5Y-103.0
T3
X131.0Y-105.25
X131.0Y-107.75
X131.0Y-110.25
X131.0Y-112.75
X131.0Y-115.25
X131.0Y-117.75
X131.0Y-120.25
X131.0Y-122.75
X146.0Y-105.25
X146.0Y-107.75
X146.0Y-110.25
X146.0Y-112.75
X146.0Y-115.25
X146.0Y-117.75
X146.0Y-120.25
X146.0Y-122.75
T4
X131.96Y-95.0
X134.5Y-95.0
X137.04Y-95.0
X139.58Y-95.0
X143.5Y-96.0
X146.04Y-96.0
X148.58Y-96.0
T5
X120.0Y-106.5
X120.0Y-111.0
X120.0Y-117.0
X120.0Y-121.5
X126.5Y-106.5
X126.5Y-111.0
X126.5Y-117.0
X126.5Y-121.5
X150.5Y-106.5
X150.5Y-111.0
X150.5Y-117.0
X150.5Y-121.5
X157.0Y-106.5
X157.0Y-111.0
X157.0Y-117.0
X157.0Y-121.5
T0
M30
