G04 #@! TF.GenerationSoftware,KiCad,Pcbnew,5.1.10*
G04 #@! TF.CreationDate,2021-12-26T14:37:38-06:00*
G04 #@! TF.ProjectId,notawatch,6e6f7461-7761-4746-9368-2e6b69636164,1*
G04 #@! TF.SameCoordinates,Original*
G04 #@! TF.FileFunction,Soldermask,Bot*
G04 #@! TF.FilePolarity,Negative*
%FSLAX46Y46*%
G04 Gerber Fmt 4.6, Leading zero omitted, Abs format (unit mm)*
G04 Created by KiCad (PCBNEW 5.1.10) date 2021-12-26 14:37:38*
%MOMM*%
%LPD*%
G01*
G04 APERTURE LIST*
%ADD10C,2.000000*%
%ADD11C,1.524000*%
%ADD12C,1.000000*%
%ADD13R,1.700000X1.700000*%
%ADD14O,1.700000X1.700000*%
G04 APERTURE END LIST*
D10*
X126500000Y-106500000D03*
X126500000Y-111000000D03*
X120000000Y-106500000D03*
X120000000Y-111000000D03*
X120000000Y-121500000D03*
X120000000Y-117000000D03*
X126500000Y-121500000D03*
X126500000Y-117000000D03*
X150500000Y-111000000D03*
X150500000Y-106500000D03*
X157000000Y-111000000D03*
X157000000Y-106500000D03*
X157000000Y-117000000D03*
X157000000Y-121500000D03*
X150500000Y-117000000D03*
X150500000Y-121500000D03*
D11*
X131000000Y-112750000D03*
X131000000Y-115250000D03*
X131000000Y-110250000D03*
X131000000Y-107750000D03*
X131000000Y-105250000D03*
X131000000Y-117750000D03*
X131000000Y-120250000D03*
X131000000Y-122750000D03*
X146000000Y-112750000D03*
X146000000Y-110250000D03*
X146000000Y-107750000D03*
X146000000Y-105250000D03*
X146000000Y-115250000D03*
X146000000Y-117750000D03*
X146000000Y-120250000D03*
X146000000Y-122750000D03*
D12*
X149500000Y-103000000D03*
X149500000Y-101100000D03*
D13*
X143500000Y-96000000D03*
D14*
X146040000Y-96000000D03*
X148580000Y-96000000D03*
D13*
X131960000Y-95000000D03*
D14*
X134500000Y-95000000D03*
X137040000Y-95000000D03*
X139580000Y-95000000D03*
M02*
