G04 #@! TF.GenerationSoftware,KiCad,Pcbnew,5.1.10*
G04 #@! TF.CreationDate,2021-12-20T19:27:34-06:00*
G04 #@! TF.ProjectId,notawatch,6e6f7461-7761-4746-9368-2e6b69636164,rev?*
G04 #@! TF.SameCoordinates,Original*
G04 #@! TF.FileFunction,Paste,Top*
G04 #@! TF.FilePolarity,Positive*
%FSLAX46Y46*%
G04 Gerber Fmt 4.6, Leading zero omitted, Abs format (unit mm)*
G04 Created by KiCad (PCBNEW 5.1.10) date 2021-12-20 19:27:34*
%MOMM*%
%LPD*%
G01*
G04 APERTURE LIST*
%ADD10C,0.100000*%
%ADD11R,1.060000X0.650000*%
G04 APERTURE END LIST*
D10*
G36*
X152689755Y-91350961D02*
G01*
X152699134Y-91353806D01*
X152707779Y-91358427D01*
X152715355Y-91364645D01*
X152721573Y-91372221D01*
X152726194Y-91380866D01*
X152729039Y-91390245D01*
X152730000Y-91400000D01*
X152730000Y-92550000D01*
X152729039Y-92559755D01*
X152726194Y-92569134D01*
X152721573Y-92577779D01*
X152715355Y-92585355D01*
X152707779Y-92591573D01*
X152699134Y-92596194D01*
X152689755Y-92599039D01*
X152680000Y-92600000D01*
X150900000Y-92600000D01*
X150890245Y-92599039D01*
X150880866Y-92596194D01*
X150872221Y-92591573D01*
X150864645Y-92585355D01*
X150858427Y-92577779D01*
X150853806Y-92569134D01*
X150850961Y-92559755D01*
X150850000Y-92550000D01*
X150850000Y-91400000D01*
X150850961Y-91390245D01*
X150853806Y-91380866D01*
X150858427Y-91372221D01*
X150864645Y-91364645D01*
X150872221Y-91358427D01*
X150880866Y-91353806D01*
X150890245Y-91350961D01*
X150900000Y-91350000D01*
X152680000Y-91350000D01*
X152689755Y-91350961D01*
G37*
G36*
X152689755Y-85400961D02*
G01*
X152699134Y-85403806D01*
X152707779Y-85408427D01*
X152715355Y-85414645D01*
X152721573Y-85422221D01*
X152726194Y-85430866D01*
X152729039Y-85440245D01*
X152730000Y-85450000D01*
X152730000Y-86600000D01*
X152729039Y-86609755D01*
X152726194Y-86619134D01*
X152721573Y-86627779D01*
X152715355Y-86635355D01*
X152707779Y-86641573D01*
X152699134Y-86646194D01*
X152689755Y-86649039D01*
X152680000Y-86650000D01*
X150900000Y-86650000D01*
X150890245Y-86649039D01*
X150880866Y-86646194D01*
X150872221Y-86641573D01*
X150864645Y-86635355D01*
X150858427Y-86627779D01*
X150853806Y-86619134D01*
X150850961Y-86609755D01*
X150850000Y-86600000D01*
X150850000Y-85450000D01*
X150850961Y-85440245D01*
X150853806Y-85430866D01*
X150858427Y-85422221D01*
X150864645Y-85414645D01*
X150872221Y-85408427D01*
X150880866Y-85403806D01*
X150890245Y-85400961D01*
X150900000Y-85400000D01*
X152680000Y-85400000D01*
X152689755Y-85400961D01*
G37*
G36*
X145109755Y-91350961D02*
G01*
X145119134Y-91353806D01*
X145127779Y-91358427D01*
X145135355Y-91364645D01*
X145141573Y-91372221D01*
X145146194Y-91380866D01*
X145149039Y-91390245D01*
X145150000Y-91400000D01*
X145150000Y-92550000D01*
X145149039Y-92559755D01*
X145146194Y-92569134D01*
X145141573Y-92577779D01*
X145135355Y-92585355D01*
X145127779Y-92591573D01*
X145119134Y-92596194D01*
X145109755Y-92599039D01*
X145100000Y-92600000D01*
X143320000Y-92600000D01*
X143310245Y-92599039D01*
X143300866Y-92596194D01*
X143292221Y-92591573D01*
X143284645Y-92585355D01*
X143278427Y-92577779D01*
X143273806Y-92569134D01*
X143270961Y-92559755D01*
X143270000Y-92550000D01*
X143270000Y-91400000D01*
X143270961Y-91390245D01*
X143273806Y-91380866D01*
X143278427Y-91372221D01*
X143284645Y-91364645D01*
X143292221Y-91358427D01*
X143300866Y-91353806D01*
X143310245Y-91350961D01*
X143320000Y-91350000D01*
X145100000Y-91350000D01*
X145109755Y-91350961D01*
G37*
G36*
X145109755Y-85400961D02*
G01*
X145119134Y-85403806D01*
X145127779Y-85408427D01*
X145135355Y-85414645D01*
X145141573Y-85422221D01*
X145146194Y-85430866D01*
X145149039Y-85440245D01*
X145150000Y-85450000D01*
X145150000Y-86600000D01*
X145149039Y-86609755D01*
X145146194Y-86619134D01*
X145141573Y-86627779D01*
X145135355Y-86635355D01*
X145127779Y-86641573D01*
X145119134Y-86646194D01*
X145109755Y-86649039D01*
X145100000Y-86650000D01*
X143320000Y-86650000D01*
X143310245Y-86649039D01*
X143300866Y-86646194D01*
X143292221Y-86641573D01*
X143284645Y-86635355D01*
X143278427Y-86627779D01*
X143273806Y-86619134D01*
X143270961Y-86609755D01*
X143270000Y-86600000D01*
X143270000Y-85450000D01*
X143270961Y-85440245D01*
X143273806Y-85430866D01*
X143278427Y-85422221D01*
X143284645Y-85414645D01*
X143292221Y-85408427D01*
X143300866Y-85403806D01*
X143310245Y-85400961D01*
X143320000Y-85400000D01*
X145100000Y-85400000D01*
X145109755Y-85400961D01*
G37*
G36*
G01*
X131950000Y-92650001D02*
X131950000Y-91349999D01*
G75*
G02*
X132199999Y-91100000I249999J0D01*
G01*
X132850001Y-91100000D01*
G75*
G02*
X133100000Y-91349999I0J-249999D01*
G01*
X133100000Y-92650001D01*
G75*
G02*
X132850001Y-92900000I-249999J0D01*
G01*
X132199999Y-92900000D01*
G75*
G02*
X131950000Y-92650001I0J249999D01*
G01*
G37*
G36*
G01*
X134900000Y-92650001D02*
X134900000Y-91349999D01*
G75*
G02*
X135149999Y-91100000I249999J0D01*
G01*
X135800001Y-91100000D01*
G75*
G02*
X136050000Y-91349999I0J-249999D01*
G01*
X136050000Y-92650001D01*
G75*
G02*
X135800001Y-92900000I-249999J0D01*
G01*
X135149999Y-92900000D01*
G75*
G02*
X134900000Y-92650001I0J249999D01*
G01*
G37*
G36*
G01*
X155975000Y-95150000D02*
X155975000Y-94850000D01*
G75*
G02*
X156125000Y-94700000I150000J0D01*
G01*
X157775000Y-94700000D01*
G75*
G02*
X157925000Y-94850000I0J-150000D01*
G01*
X157925000Y-95150000D01*
G75*
G02*
X157775000Y-95300000I-150000J0D01*
G01*
X156125000Y-95300000D01*
G75*
G02*
X155975000Y-95150000I0J150000D01*
G01*
G37*
G36*
G01*
X155975000Y-96420000D02*
X155975000Y-96120000D01*
G75*
G02*
X156125000Y-95970000I150000J0D01*
G01*
X157775000Y-95970000D01*
G75*
G02*
X157925000Y-96120000I0J-150000D01*
G01*
X157925000Y-96420000D01*
G75*
G02*
X157775000Y-96570000I-150000J0D01*
G01*
X156125000Y-96570000D01*
G75*
G02*
X155975000Y-96420000I0J150000D01*
G01*
G37*
G36*
G01*
X155975000Y-97690000D02*
X155975000Y-97390000D01*
G75*
G02*
X156125000Y-97240000I150000J0D01*
G01*
X157775000Y-97240000D01*
G75*
G02*
X157925000Y-97390000I0J-150000D01*
G01*
X157925000Y-97690000D01*
G75*
G02*
X157775000Y-97840000I-150000J0D01*
G01*
X156125000Y-97840000D01*
G75*
G02*
X155975000Y-97690000I0J150000D01*
G01*
G37*
G36*
G01*
X155975000Y-98960000D02*
X155975000Y-98660000D01*
G75*
G02*
X156125000Y-98510000I150000J0D01*
G01*
X157775000Y-98510000D01*
G75*
G02*
X157925000Y-98660000I0J-150000D01*
G01*
X157925000Y-98960000D01*
G75*
G02*
X157775000Y-99110000I-150000J0D01*
G01*
X156125000Y-99110000D01*
G75*
G02*
X155975000Y-98960000I0J150000D01*
G01*
G37*
G36*
G01*
X155975000Y-100230000D02*
X155975000Y-99930000D01*
G75*
G02*
X156125000Y-99780000I150000J0D01*
G01*
X157775000Y-99780000D01*
G75*
G02*
X157925000Y-99930000I0J-150000D01*
G01*
X157925000Y-100230000D01*
G75*
G02*
X157775000Y-100380000I-150000J0D01*
G01*
X156125000Y-100380000D01*
G75*
G02*
X155975000Y-100230000I0J150000D01*
G01*
G37*
G36*
G01*
X155975000Y-101500000D02*
X155975000Y-101200000D01*
G75*
G02*
X156125000Y-101050000I150000J0D01*
G01*
X157775000Y-101050000D01*
G75*
G02*
X157925000Y-101200000I0J-150000D01*
G01*
X157925000Y-101500000D01*
G75*
G02*
X157775000Y-101650000I-150000J0D01*
G01*
X156125000Y-101650000D01*
G75*
G02*
X155975000Y-101500000I0J150000D01*
G01*
G37*
G36*
G01*
X155975000Y-102770000D02*
X155975000Y-102470000D01*
G75*
G02*
X156125000Y-102320000I150000J0D01*
G01*
X157775000Y-102320000D01*
G75*
G02*
X157925000Y-102470000I0J-150000D01*
G01*
X157925000Y-102770000D01*
G75*
G02*
X157775000Y-102920000I-150000J0D01*
G01*
X156125000Y-102920000D01*
G75*
G02*
X155975000Y-102770000I0J150000D01*
G01*
G37*
G36*
G01*
X151025000Y-102770000D02*
X151025000Y-102470000D01*
G75*
G02*
X151175000Y-102320000I150000J0D01*
G01*
X152825000Y-102320000D01*
G75*
G02*
X152975000Y-102470000I0J-150000D01*
G01*
X152975000Y-102770000D01*
G75*
G02*
X152825000Y-102920000I-150000J0D01*
G01*
X151175000Y-102920000D01*
G75*
G02*
X151025000Y-102770000I0J150000D01*
G01*
G37*
G36*
G01*
X151025000Y-101500000D02*
X151025000Y-101200000D01*
G75*
G02*
X151175000Y-101050000I150000J0D01*
G01*
X152825000Y-101050000D01*
G75*
G02*
X152975000Y-101200000I0J-150000D01*
G01*
X152975000Y-101500000D01*
G75*
G02*
X152825000Y-101650000I-150000J0D01*
G01*
X151175000Y-101650000D01*
G75*
G02*
X151025000Y-101500000I0J150000D01*
G01*
G37*
G36*
G01*
X151025000Y-100230000D02*
X151025000Y-99930000D01*
G75*
G02*
X151175000Y-99780000I150000J0D01*
G01*
X152825000Y-99780000D01*
G75*
G02*
X152975000Y-99930000I0J-150000D01*
G01*
X152975000Y-100230000D01*
G75*
G02*
X152825000Y-100380000I-150000J0D01*
G01*
X151175000Y-100380000D01*
G75*
G02*
X151025000Y-100230000I0J150000D01*
G01*
G37*
G36*
G01*
X151025000Y-98960000D02*
X151025000Y-98660000D01*
G75*
G02*
X151175000Y-98510000I150000J0D01*
G01*
X152825000Y-98510000D01*
G75*
G02*
X152975000Y-98660000I0J-150000D01*
G01*
X152975000Y-98960000D01*
G75*
G02*
X152825000Y-99110000I-150000J0D01*
G01*
X151175000Y-99110000D01*
G75*
G02*
X151025000Y-98960000I0J150000D01*
G01*
G37*
G36*
G01*
X151025000Y-97690000D02*
X151025000Y-97390000D01*
G75*
G02*
X151175000Y-97240000I150000J0D01*
G01*
X152825000Y-97240000D01*
G75*
G02*
X152975000Y-97390000I0J-150000D01*
G01*
X152975000Y-97690000D01*
G75*
G02*
X152825000Y-97840000I-150000J0D01*
G01*
X151175000Y-97840000D01*
G75*
G02*
X151025000Y-97690000I0J150000D01*
G01*
G37*
G36*
G01*
X151025000Y-96420000D02*
X151025000Y-96120000D01*
G75*
G02*
X151175000Y-95970000I150000J0D01*
G01*
X152825000Y-95970000D01*
G75*
G02*
X152975000Y-96120000I0J-150000D01*
G01*
X152975000Y-96420000D01*
G75*
G02*
X152825000Y-96570000I-150000J0D01*
G01*
X151175000Y-96570000D01*
G75*
G02*
X151025000Y-96420000I0J150000D01*
G01*
G37*
G36*
G01*
X151025000Y-95150000D02*
X151025000Y-94850000D01*
G75*
G02*
X151175000Y-94700000I150000J0D01*
G01*
X152825000Y-94700000D01*
G75*
G02*
X152975000Y-94850000I0J-150000D01*
G01*
X152975000Y-95150000D01*
G75*
G02*
X152825000Y-95300000I-150000J0D01*
G01*
X151175000Y-95300000D01*
G75*
G02*
X151025000Y-95150000I0J150000D01*
G01*
G37*
G36*
G01*
X155625000Y-105165000D02*
X155625000Y-104865000D01*
G75*
G02*
X155775000Y-104715000I150000J0D01*
G01*
X157525000Y-104715000D01*
G75*
G02*
X157675000Y-104865000I0J-150000D01*
G01*
X157675000Y-105165000D01*
G75*
G02*
X157525000Y-105315000I-150000J0D01*
G01*
X155775000Y-105315000D01*
G75*
G02*
X155625000Y-105165000I0J150000D01*
G01*
G37*
G36*
G01*
X155625000Y-106435000D02*
X155625000Y-106135000D01*
G75*
G02*
X155775000Y-105985000I150000J0D01*
G01*
X157525000Y-105985000D01*
G75*
G02*
X157675000Y-106135000I0J-150000D01*
G01*
X157675000Y-106435000D01*
G75*
G02*
X157525000Y-106585000I-150000J0D01*
G01*
X155775000Y-106585000D01*
G75*
G02*
X155625000Y-106435000I0J150000D01*
G01*
G37*
G36*
G01*
X155625000Y-107705000D02*
X155625000Y-107405000D01*
G75*
G02*
X155775000Y-107255000I150000J0D01*
G01*
X157525000Y-107255000D01*
G75*
G02*
X157675000Y-107405000I0J-150000D01*
G01*
X157675000Y-107705000D01*
G75*
G02*
X157525000Y-107855000I-150000J0D01*
G01*
X155775000Y-107855000D01*
G75*
G02*
X155625000Y-107705000I0J150000D01*
G01*
G37*
G36*
G01*
X155625000Y-108975000D02*
X155625000Y-108675000D01*
G75*
G02*
X155775000Y-108525000I150000J0D01*
G01*
X157525000Y-108525000D01*
G75*
G02*
X157675000Y-108675000I0J-150000D01*
G01*
X157675000Y-108975000D01*
G75*
G02*
X157525000Y-109125000I-150000J0D01*
G01*
X155775000Y-109125000D01*
G75*
G02*
X155625000Y-108975000I0J150000D01*
G01*
G37*
G36*
G01*
X155625000Y-110245000D02*
X155625000Y-109945000D01*
G75*
G02*
X155775000Y-109795000I150000J0D01*
G01*
X157525000Y-109795000D01*
G75*
G02*
X157675000Y-109945000I0J-150000D01*
G01*
X157675000Y-110245000D01*
G75*
G02*
X157525000Y-110395000I-150000J0D01*
G01*
X155775000Y-110395000D01*
G75*
G02*
X155625000Y-110245000I0J150000D01*
G01*
G37*
G36*
G01*
X155625000Y-111515000D02*
X155625000Y-111215000D01*
G75*
G02*
X155775000Y-111065000I150000J0D01*
G01*
X157525000Y-111065000D01*
G75*
G02*
X157675000Y-111215000I0J-150000D01*
G01*
X157675000Y-111515000D01*
G75*
G02*
X157525000Y-111665000I-150000J0D01*
G01*
X155775000Y-111665000D01*
G75*
G02*
X155625000Y-111515000I0J150000D01*
G01*
G37*
G36*
G01*
X155625000Y-112785000D02*
X155625000Y-112485000D01*
G75*
G02*
X155775000Y-112335000I150000J0D01*
G01*
X157525000Y-112335000D01*
G75*
G02*
X157675000Y-112485000I0J-150000D01*
G01*
X157675000Y-112785000D01*
G75*
G02*
X157525000Y-112935000I-150000J0D01*
G01*
X155775000Y-112935000D01*
G75*
G02*
X155625000Y-112785000I0J150000D01*
G01*
G37*
G36*
G01*
X155625000Y-114055000D02*
X155625000Y-113755000D01*
G75*
G02*
X155775000Y-113605000I150000J0D01*
G01*
X157525000Y-113605000D01*
G75*
G02*
X157675000Y-113755000I0J-150000D01*
G01*
X157675000Y-114055000D01*
G75*
G02*
X157525000Y-114205000I-150000J0D01*
G01*
X155775000Y-114205000D01*
G75*
G02*
X155625000Y-114055000I0J150000D01*
G01*
G37*
G36*
G01*
X155625000Y-115325000D02*
X155625000Y-115025000D01*
G75*
G02*
X155775000Y-114875000I150000J0D01*
G01*
X157525000Y-114875000D01*
G75*
G02*
X157675000Y-115025000I0J-150000D01*
G01*
X157675000Y-115325000D01*
G75*
G02*
X157525000Y-115475000I-150000J0D01*
G01*
X155775000Y-115475000D01*
G75*
G02*
X155625000Y-115325000I0J150000D01*
G01*
G37*
G36*
G01*
X155625000Y-116595000D02*
X155625000Y-116295000D01*
G75*
G02*
X155775000Y-116145000I150000J0D01*
G01*
X157525000Y-116145000D01*
G75*
G02*
X157675000Y-116295000I0J-150000D01*
G01*
X157675000Y-116595000D01*
G75*
G02*
X157525000Y-116745000I-150000J0D01*
G01*
X155775000Y-116745000D01*
G75*
G02*
X155625000Y-116595000I0J150000D01*
G01*
G37*
G36*
G01*
X155625000Y-117865000D02*
X155625000Y-117565000D01*
G75*
G02*
X155775000Y-117415000I150000J0D01*
G01*
X157525000Y-117415000D01*
G75*
G02*
X157675000Y-117565000I0J-150000D01*
G01*
X157675000Y-117865000D01*
G75*
G02*
X157525000Y-118015000I-150000J0D01*
G01*
X155775000Y-118015000D01*
G75*
G02*
X155625000Y-117865000I0J150000D01*
G01*
G37*
G36*
G01*
X155625000Y-119135000D02*
X155625000Y-118835000D01*
G75*
G02*
X155775000Y-118685000I150000J0D01*
G01*
X157525000Y-118685000D01*
G75*
G02*
X157675000Y-118835000I0J-150000D01*
G01*
X157675000Y-119135000D01*
G75*
G02*
X157525000Y-119285000I-150000J0D01*
G01*
X155775000Y-119285000D01*
G75*
G02*
X155625000Y-119135000I0J150000D01*
G01*
G37*
G36*
G01*
X146325000Y-119135000D02*
X146325000Y-118835000D01*
G75*
G02*
X146475000Y-118685000I150000J0D01*
G01*
X148225000Y-118685000D01*
G75*
G02*
X148375000Y-118835000I0J-150000D01*
G01*
X148375000Y-119135000D01*
G75*
G02*
X148225000Y-119285000I-150000J0D01*
G01*
X146475000Y-119285000D01*
G75*
G02*
X146325000Y-119135000I0J150000D01*
G01*
G37*
G36*
G01*
X146325000Y-117865000D02*
X146325000Y-117565000D01*
G75*
G02*
X146475000Y-117415000I150000J0D01*
G01*
X148225000Y-117415000D01*
G75*
G02*
X148375000Y-117565000I0J-150000D01*
G01*
X148375000Y-117865000D01*
G75*
G02*
X148225000Y-118015000I-150000J0D01*
G01*
X146475000Y-118015000D01*
G75*
G02*
X146325000Y-117865000I0J150000D01*
G01*
G37*
G36*
G01*
X146325000Y-116595000D02*
X146325000Y-116295000D01*
G75*
G02*
X146475000Y-116145000I150000J0D01*
G01*
X148225000Y-116145000D01*
G75*
G02*
X148375000Y-116295000I0J-150000D01*
G01*
X148375000Y-116595000D01*
G75*
G02*
X148225000Y-116745000I-150000J0D01*
G01*
X146475000Y-116745000D01*
G75*
G02*
X146325000Y-116595000I0J150000D01*
G01*
G37*
G36*
G01*
X146325000Y-115325000D02*
X146325000Y-115025000D01*
G75*
G02*
X146475000Y-114875000I150000J0D01*
G01*
X148225000Y-114875000D01*
G75*
G02*
X148375000Y-115025000I0J-150000D01*
G01*
X148375000Y-115325000D01*
G75*
G02*
X148225000Y-115475000I-150000J0D01*
G01*
X146475000Y-115475000D01*
G75*
G02*
X146325000Y-115325000I0J150000D01*
G01*
G37*
G36*
G01*
X146325000Y-114055000D02*
X146325000Y-113755000D01*
G75*
G02*
X146475000Y-113605000I150000J0D01*
G01*
X148225000Y-113605000D01*
G75*
G02*
X148375000Y-113755000I0J-150000D01*
G01*
X148375000Y-114055000D01*
G75*
G02*
X148225000Y-114205000I-150000J0D01*
G01*
X146475000Y-114205000D01*
G75*
G02*
X146325000Y-114055000I0J150000D01*
G01*
G37*
G36*
G01*
X146325000Y-112785000D02*
X146325000Y-112485000D01*
G75*
G02*
X146475000Y-112335000I150000J0D01*
G01*
X148225000Y-112335000D01*
G75*
G02*
X148375000Y-112485000I0J-150000D01*
G01*
X148375000Y-112785000D01*
G75*
G02*
X148225000Y-112935000I-150000J0D01*
G01*
X146475000Y-112935000D01*
G75*
G02*
X146325000Y-112785000I0J150000D01*
G01*
G37*
G36*
G01*
X146325000Y-111515000D02*
X146325000Y-111215000D01*
G75*
G02*
X146475000Y-111065000I150000J0D01*
G01*
X148225000Y-111065000D01*
G75*
G02*
X148375000Y-111215000I0J-150000D01*
G01*
X148375000Y-111515000D01*
G75*
G02*
X148225000Y-111665000I-150000J0D01*
G01*
X146475000Y-111665000D01*
G75*
G02*
X146325000Y-111515000I0J150000D01*
G01*
G37*
G36*
G01*
X146325000Y-110245000D02*
X146325000Y-109945000D01*
G75*
G02*
X146475000Y-109795000I150000J0D01*
G01*
X148225000Y-109795000D01*
G75*
G02*
X148375000Y-109945000I0J-150000D01*
G01*
X148375000Y-110245000D01*
G75*
G02*
X148225000Y-110395000I-150000J0D01*
G01*
X146475000Y-110395000D01*
G75*
G02*
X146325000Y-110245000I0J150000D01*
G01*
G37*
G36*
G01*
X146325000Y-108975000D02*
X146325000Y-108675000D01*
G75*
G02*
X146475000Y-108525000I150000J0D01*
G01*
X148225000Y-108525000D01*
G75*
G02*
X148375000Y-108675000I0J-150000D01*
G01*
X148375000Y-108975000D01*
G75*
G02*
X148225000Y-109125000I-150000J0D01*
G01*
X146475000Y-109125000D01*
G75*
G02*
X146325000Y-108975000I0J150000D01*
G01*
G37*
G36*
G01*
X146325000Y-107705000D02*
X146325000Y-107405000D01*
G75*
G02*
X146475000Y-107255000I150000J0D01*
G01*
X148225000Y-107255000D01*
G75*
G02*
X148375000Y-107405000I0J-150000D01*
G01*
X148375000Y-107705000D01*
G75*
G02*
X148225000Y-107855000I-150000J0D01*
G01*
X146475000Y-107855000D01*
G75*
G02*
X146325000Y-107705000I0J150000D01*
G01*
G37*
G36*
G01*
X146325000Y-106435000D02*
X146325000Y-106135000D01*
G75*
G02*
X146475000Y-105985000I150000J0D01*
G01*
X148225000Y-105985000D01*
G75*
G02*
X148375000Y-106135000I0J-150000D01*
G01*
X148375000Y-106435000D01*
G75*
G02*
X148225000Y-106585000I-150000J0D01*
G01*
X146475000Y-106585000D01*
G75*
G02*
X146325000Y-106435000I0J150000D01*
G01*
G37*
G36*
G01*
X146325000Y-105165000D02*
X146325000Y-104865000D01*
G75*
G02*
X146475000Y-104715000I150000J0D01*
G01*
X148225000Y-104715000D01*
G75*
G02*
X148375000Y-104865000I0J-150000D01*
G01*
X148375000Y-105165000D01*
G75*
G02*
X148225000Y-105315000I-150000J0D01*
G01*
X146475000Y-105315000D01*
G75*
G02*
X146325000Y-105165000I0J150000D01*
G01*
G37*
G36*
G01*
X160450000Y-91755000D02*
X160450000Y-92055000D01*
G75*
G02*
X160300000Y-92205000I-150000J0D01*
G01*
X158650000Y-92205000D01*
G75*
G02*
X158500000Y-92055000I0J150000D01*
G01*
X158500000Y-91755000D01*
G75*
G02*
X158650000Y-91605000I150000J0D01*
G01*
X160300000Y-91605000D01*
G75*
G02*
X160450000Y-91755000I0J-150000D01*
G01*
G37*
G36*
G01*
X160450000Y-90485000D02*
X160450000Y-90785000D01*
G75*
G02*
X160300000Y-90935000I-150000J0D01*
G01*
X158650000Y-90935000D01*
G75*
G02*
X158500000Y-90785000I0J150000D01*
G01*
X158500000Y-90485000D01*
G75*
G02*
X158650000Y-90335000I150000J0D01*
G01*
X160300000Y-90335000D01*
G75*
G02*
X160450000Y-90485000I0J-150000D01*
G01*
G37*
G36*
G01*
X160450000Y-89215000D02*
X160450000Y-89515000D01*
G75*
G02*
X160300000Y-89665000I-150000J0D01*
G01*
X158650000Y-89665000D01*
G75*
G02*
X158500000Y-89515000I0J150000D01*
G01*
X158500000Y-89215000D01*
G75*
G02*
X158650000Y-89065000I150000J0D01*
G01*
X160300000Y-89065000D01*
G75*
G02*
X160450000Y-89215000I0J-150000D01*
G01*
G37*
G36*
G01*
X160450000Y-87945000D02*
X160450000Y-88245000D01*
G75*
G02*
X160300000Y-88395000I-150000J0D01*
G01*
X158650000Y-88395000D01*
G75*
G02*
X158500000Y-88245000I0J150000D01*
G01*
X158500000Y-87945000D01*
G75*
G02*
X158650000Y-87795000I150000J0D01*
G01*
X160300000Y-87795000D01*
G75*
G02*
X160450000Y-87945000I0J-150000D01*
G01*
G37*
G36*
G01*
X155500000Y-87945000D02*
X155500000Y-88245000D01*
G75*
G02*
X155350000Y-88395000I-150000J0D01*
G01*
X153700000Y-88395000D01*
G75*
G02*
X153550000Y-88245000I0J150000D01*
G01*
X153550000Y-87945000D01*
G75*
G02*
X153700000Y-87795000I150000J0D01*
G01*
X155350000Y-87795000D01*
G75*
G02*
X155500000Y-87945000I0J-150000D01*
G01*
G37*
G36*
G01*
X155500000Y-89215000D02*
X155500000Y-89515000D01*
G75*
G02*
X155350000Y-89665000I-150000J0D01*
G01*
X153700000Y-89665000D01*
G75*
G02*
X153550000Y-89515000I0J150000D01*
G01*
X153550000Y-89215000D01*
G75*
G02*
X153700000Y-89065000I150000J0D01*
G01*
X155350000Y-89065000D01*
G75*
G02*
X155500000Y-89215000I0J-150000D01*
G01*
G37*
G36*
G01*
X155500000Y-90485000D02*
X155500000Y-90785000D01*
G75*
G02*
X155350000Y-90935000I-150000J0D01*
G01*
X153700000Y-90935000D01*
G75*
G02*
X153550000Y-90785000I0J150000D01*
G01*
X153550000Y-90485000D01*
G75*
G02*
X153700000Y-90335000I150000J0D01*
G01*
X155350000Y-90335000D01*
G75*
G02*
X155500000Y-90485000I0J-150000D01*
G01*
G37*
G36*
G01*
X155500000Y-91755000D02*
X155500000Y-92055000D01*
G75*
G02*
X155350000Y-92205000I-150000J0D01*
G01*
X153700000Y-92205000D01*
G75*
G02*
X153550000Y-92055000I0J150000D01*
G01*
X153550000Y-91755000D01*
G75*
G02*
X153700000Y-91605000I150000J0D01*
G01*
X155350000Y-91605000D01*
G75*
G02*
X155500000Y-91755000I0J-150000D01*
G01*
G37*
G36*
G01*
X161899500Y-109186000D02*
X162100500Y-109186000D01*
G75*
G02*
X162180000Y-109265500I0J-79500D01*
G01*
X162180000Y-109424500D01*
G75*
G02*
X162100500Y-109504000I-79500J0D01*
G01*
X161899500Y-109504000D01*
G75*
G02*
X161820000Y-109424500I0J79500D01*
G01*
X161820000Y-109265500D01*
G75*
G02*
X161899500Y-109186000I79500J0D01*
G01*
G37*
G36*
G01*
X161899500Y-108496000D02*
X162100500Y-108496000D01*
G75*
G02*
X162180000Y-108575500I0J-79500D01*
G01*
X162180000Y-108734500D01*
G75*
G02*
X162100500Y-108814000I-79500J0D01*
G01*
X161899500Y-108814000D01*
G75*
G02*
X161820000Y-108734500I0J79500D01*
G01*
X161820000Y-108575500D01*
G75*
G02*
X161899500Y-108496000I79500J0D01*
G01*
G37*
G36*
G01*
X162100500Y-104134000D02*
X161899500Y-104134000D01*
G75*
G02*
X161820000Y-104054500I0J79500D01*
G01*
X161820000Y-103895500D01*
G75*
G02*
X161899500Y-103816000I79500J0D01*
G01*
X162100500Y-103816000D01*
G75*
G02*
X162180000Y-103895500I0J-79500D01*
G01*
X162180000Y-104054500D01*
G75*
G02*
X162100500Y-104134000I-79500J0D01*
G01*
G37*
G36*
G01*
X162100500Y-104824000D02*
X161899500Y-104824000D01*
G75*
G02*
X161820000Y-104744500I0J79500D01*
G01*
X161820000Y-104585500D01*
G75*
G02*
X161899500Y-104506000I79500J0D01*
G01*
X162100500Y-104506000D01*
G75*
G02*
X162180000Y-104585500I0J-79500D01*
G01*
X162180000Y-104744500D01*
G75*
G02*
X162100500Y-104824000I-79500J0D01*
G01*
G37*
G36*
G01*
X161899500Y-111866000D02*
X162100500Y-111866000D01*
G75*
G02*
X162180000Y-111945500I0J-79500D01*
G01*
X162180000Y-112104500D01*
G75*
G02*
X162100500Y-112184000I-79500J0D01*
G01*
X161899500Y-112184000D01*
G75*
G02*
X161820000Y-112104500I0J79500D01*
G01*
X161820000Y-111945500D01*
G75*
G02*
X161899500Y-111866000I79500J0D01*
G01*
G37*
G36*
G01*
X161899500Y-111176000D02*
X162100500Y-111176000D01*
G75*
G02*
X162180000Y-111255500I0J-79500D01*
G01*
X162180000Y-111414500D01*
G75*
G02*
X162100500Y-111494000I-79500J0D01*
G01*
X161899500Y-111494000D01*
G75*
G02*
X161820000Y-111414500I0J79500D01*
G01*
X161820000Y-111255500D01*
G75*
G02*
X161899500Y-111176000I79500J0D01*
G01*
G37*
G36*
G01*
X161899500Y-106866000D02*
X162100500Y-106866000D01*
G75*
G02*
X162180000Y-106945500I0J-79500D01*
G01*
X162180000Y-107104500D01*
G75*
G02*
X162100500Y-107184000I-79500J0D01*
G01*
X161899500Y-107184000D01*
G75*
G02*
X161820000Y-107104500I0J79500D01*
G01*
X161820000Y-106945500D01*
G75*
G02*
X161899500Y-106866000I79500J0D01*
G01*
G37*
G36*
G01*
X161899500Y-106176000D02*
X162100500Y-106176000D01*
G75*
G02*
X162180000Y-106255500I0J-79500D01*
G01*
X162180000Y-106414500D01*
G75*
G02*
X162100500Y-106494000I-79500J0D01*
G01*
X161899500Y-106494000D01*
G75*
G02*
X161820000Y-106414500I0J79500D01*
G01*
X161820000Y-106255500D01*
G75*
G02*
X161899500Y-106176000I79500J0D01*
G01*
G37*
G36*
G01*
X141899500Y-99186000D02*
X142100500Y-99186000D01*
G75*
G02*
X142180000Y-99265500I0J-79500D01*
G01*
X142180000Y-99424500D01*
G75*
G02*
X142100500Y-99504000I-79500J0D01*
G01*
X141899500Y-99504000D01*
G75*
G02*
X141820000Y-99424500I0J79500D01*
G01*
X141820000Y-99265500D01*
G75*
G02*
X141899500Y-99186000I79500J0D01*
G01*
G37*
G36*
G01*
X141899500Y-98496000D02*
X142100500Y-98496000D01*
G75*
G02*
X142180000Y-98575500I0J-79500D01*
G01*
X142180000Y-98734500D01*
G75*
G02*
X142100500Y-98814000I-79500J0D01*
G01*
X141899500Y-98814000D01*
G75*
G02*
X141820000Y-98734500I0J79500D01*
G01*
X141820000Y-98575500D01*
G75*
G02*
X141899500Y-98496000I79500J0D01*
G01*
G37*
G36*
G01*
X141899500Y-94506000D02*
X142100500Y-94506000D01*
G75*
G02*
X142180000Y-94585500I0J-79500D01*
G01*
X142180000Y-94744500D01*
G75*
G02*
X142100500Y-94824000I-79500J0D01*
G01*
X141899500Y-94824000D01*
G75*
G02*
X141820000Y-94744500I0J79500D01*
G01*
X141820000Y-94585500D01*
G75*
G02*
X141899500Y-94506000I79500J0D01*
G01*
G37*
G36*
G01*
X141899500Y-93816000D02*
X142100500Y-93816000D01*
G75*
G02*
X142180000Y-93895500I0J-79500D01*
G01*
X142180000Y-94054500D01*
G75*
G02*
X142100500Y-94134000I-79500J0D01*
G01*
X141899500Y-94134000D01*
G75*
G02*
X141820000Y-94054500I0J79500D01*
G01*
X141820000Y-93895500D01*
G75*
G02*
X141899500Y-93816000I79500J0D01*
G01*
G37*
G36*
G01*
X141899500Y-102186000D02*
X142100500Y-102186000D01*
G75*
G02*
X142180000Y-102265500I0J-79500D01*
G01*
X142180000Y-102424500D01*
G75*
G02*
X142100500Y-102504000I-79500J0D01*
G01*
X141899500Y-102504000D01*
G75*
G02*
X141820000Y-102424500I0J79500D01*
G01*
X141820000Y-102265500D01*
G75*
G02*
X141899500Y-102186000I79500J0D01*
G01*
G37*
G36*
G01*
X141899500Y-101496000D02*
X142100500Y-101496000D01*
G75*
G02*
X142180000Y-101575500I0J-79500D01*
G01*
X142180000Y-101734500D01*
G75*
G02*
X142100500Y-101814000I-79500J0D01*
G01*
X141899500Y-101814000D01*
G75*
G02*
X141820000Y-101734500I0J79500D01*
G01*
X141820000Y-101575500D01*
G75*
G02*
X141899500Y-101496000I79500J0D01*
G01*
G37*
G36*
G01*
X141899500Y-97186000D02*
X142100500Y-97186000D01*
G75*
G02*
X142180000Y-97265500I0J-79500D01*
G01*
X142180000Y-97424500D01*
G75*
G02*
X142100500Y-97504000I-79500J0D01*
G01*
X141899500Y-97504000D01*
G75*
G02*
X141820000Y-97424500I0J79500D01*
G01*
X141820000Y-97265500D01*
G75*
G02*
X141899500Y-97186000I79500J0D01*
G01*
G37*
G36*
G01*
X141899500Y-96496000D02*
X142100500Y-96496000D01*
G75*
G02*
X142180000Y-96575500I0J-79500D01*
G01*
X142180000Y-96734500D01*
G75*
G02*
X142100500Y-96814000I-79500J0D01*
G01*
X141899500Y-96814000D01*
G75*
G02*
X141820000Y-96734500I0J79500D01*
G01*
X141820000Y-96575500D01*
G75*
G02*
X141899500Y-96496000I79500J0D01*
G01*
G37*
G36*
G01*
X171186000Y-103100500D02*
X171186000Y-102899500D01*
G75*
G02*
X171265500Y-102820000I79500J0D01*
G01*
X171424500Y-102820000D01*
G75*
G02*
X171504000Y-102899500I0J-79500D01*
G01*
X171504000Y-103100500D01*
G75*
G02*
X171424500Y-103180000I-79500J0D01*
G01*
X171265500Y-103180000D01*
G75*
G02*
X171186000Y-103100500I0J79500D01*
G01*
G37*
G36*
G01*
X170496000Y-103100500D02*
X170496000Y-102899500D01*
G75*
G02*
X170575500Y-102820000I79500J0D01*
G01*
X170734500Y-102820000D01*
G75*
G02*
X170814000Y-102899500I0J-79500D01*
G01*
X170814000Y-103100500D01*
G75*
G02*
X170734500Y-103180000I-79500J0D01*
G01*
X170575500Y-103180000D01*
G75*
G02*
X170496000Y-103100500I0J79500D01*
G01*
G37*
G36*
G01*
X166814000Y-93899500D02*
X166814000Y-94100500D01*
G75*
G02*
X166734500Y-94180000I-79500J0D01*
G01*
X166575500Y-94180000D01*
G75*
G02*
X166496000Y-94100500I0J79500D01*
G01*
X166496000Y-93899500D01*
G75*
G02*
X166575500Y-93820000I79500J0D01*
G01*
X166734500Y-93820000D01*
G75*
G02*
X166814000Y-93899500I0J-79500D01*
G01*
G37*
G36*
G01*
X167504000Y-93899500D02*
X167504000Y-94100500D01*
G75*
G02*
X167424500Y-94180000I-79500J0D01*
G01*
X167265500Y-94180000D01*
G75*
G02*
X167186000Y-94100500I0J79500D01*
G01*
X167186000Y-93899500D01*
G75*
G02*
X167265500Y-93820000I79500J0D01*
G01*
X167424500Y-93820000D01*
G75*
G02*
X167504000Y-93899500I0J-79500D01*
G01*
G37*
G36*
G01*
X140866000Y-94100500D02*
X140866000Y-93899500D01*
G75*
G02*
X140945500Y-93820000I79500J0D01*
G01*
X141104500Y-93820000D01*
G75*
G02*
X141184000Y-93899500I0J-79500D01*
G01*
X141184000Y-94100500D01*
G75*
G02*
X141104500Y-94180000I-79500J0D01*
G01*
X140945500Y-94180000D01*
G75*
G02*
X140866000Y-94100500I0J79500D01*
G01*
G37*
G36*
G01*
X140176000Y-94100500D02*
X140176000Y-93899500D01*
G75*
G02*
X140255500Y-93820000I79500J0D01*
G01*
X140414500Y-93820000D01*
G75*
G02*
X140494000Y-93899500I0J-79500D01*
G01*
X140494000Y-94100500D01*
G75*
G02*
X140414500Y-94180000I-79500J0D01*
G01*
X140255500Y-94180000D01*
G75*
G02*
X140176000Y-94100500I0J79500D01*
G01*
G37*
G36*
G01*
X137186000Y-103100500D02*
X137186000Y-102899500D01*
G75*
G02*
X137265500Y-102820000I79500J0D01*
G01*
X137424500Y-102820000D01*
G75*
G02*
X137504000Y-102899500I0J-79500D01*
G01*
X137504000Y-103100500D01*
G75*
G02*
X137424500Y-103180000I-79500J0D01*
G01*
X137265500Y-103180000D01*
G75*
G02*
X137186000Y-103100500I0J79500D01*
G01*
G37*
G36*
G01*
X136496000Y-103100500D02*
X136496000Y-102899500D01*
G75*
G02*
X136575500Y-102820000I79500J0D01*
G01*
X136734500Y-102820000D01*
G75*
G02*
X136814000Y-102899500I0J-79500D01*
G01*
X136814000Y-103100500D01*
G75*
G02*
X136734500Y-103180000I-79500J0D01*
G01*
X136575500Y-103180000D01*
G75*
G02*
X136496000Y-103100500I0J79500D01*
G01*
G37*
D11*
X146800000Y-94100000D03*
X146800000Y-95050000D03*
X146800000Y-96000000D03*
X149000000Y-96000000D03*
X149000000Y-94100000D03*
M02*
