G04 #@! TF.GenerationSoftware,KiCad,Pcbnew,5.1.10*
G04 #@! TF.CreationDate,2021-12-21T05:37:38-06:00*
G04 #@! TF.ProjectId,notawatch,6e6f7461-7761-4746-9368-2e6b69636164,rev?*
G04 #@! TF.SameCoordinates,Original*
G04 #@! TF.FileFunction,Copper,L1,Top*
G04 #@! TF.FilePolarity,Positive*
%FSLAX46Y46*%
G04 Gerber Fmt 4.6, Leading zero omitted, Abs format (unit mm)*
G04 Created by KiCad (PCBNEW 5.1.10) date 2021-12-21 05:37:38*
%MOMM*%
%LPD*%
G01*
G04 APERTURE LIST*
G04 #@! TA.AperFunction,SMDPad,CuDef*
%ADD10C,0.100000*%
G04 #@! TD*
G04 #@! TA.AperFunction,ComponentPad*
%ADD11O,1.350000X1.350000*%
G04 #@! TD*
G04 #@! TA.AperFunction,ComponentPad*
%ADD12R,1.350000X1.350000*%
G04 #@! TD*
G04 #@! TA.AperFunction,ComponentPad*
%ADD13C,1.000000*%
G04 #@! TD*
G04 #@! TA.AperFunction,ComponentPad*
%ADD14C,1.524000*%
G04 #@! TD*
G04 #@! TA.AperFunction,ComponentPad*
%ADD15C,2.000000*%
G04 #@! TD*
G04 #@! TA.AperFunction,SMDPad,CuDef*
%ADD16R,1.060000X0.650000*%
G04 #@! TD*
G04 #@! TA.AperFunction,ComponentPad*
%ADD17R,1.700000X1.700000*%
G04 #@! TD*
G04 #@! TA.AperFunction,ComponentPad*
%ADD18O,1.700000X1.700000*%
G04 #@! TD*
G04 #@! TA.AperFunction,ViaPad*
%ADD19C,0.800000*%
G04 #@! TD*
G04 #@! TA.AperFunction,Conductor*
%ADD20C,0.250000*%
G04 #@! TD*
G04 APERTURE END LIST*
G04 #@! TA.AperFunction,SMDPad,CuDef*
D10*
G36*
X152689755Y-91350961D02*
G01*
X152699134Y-91353806D01*
X152707779Y-91358427D01*
X152715355Y-91364645D01*
X152721573Y-91372221D01*
X152726194Y-91380866D01*
X152729039Y-91390245D01*
X152730000Y-91400000D01*
X152730000Y-92550000D01*
X152729039Y-92559755D01*
X152726194Y-92569134D01*
X152721573Y-92577779D01*
X152715355Y-92585355D01*
X152707779Y-92591573D01*
X152699134Y-92596194D01*
X152689755Y-92599039D01*
X152680000Y-92600000D01*
X150900000Y-92600000D01*
X150890245Y-92599039D01*
X150880866Y-92596194D01*
X150872221Y-92591573D01*
X150864645Y-92585355D01*
X150858427Y-92577779D01*
X150853806Y-92569134D01*
X150850961Y-92559755D01*
X150850000Y-92550000D01*
X150850000Y-91400000D01*
X150850961Y-91390245D01*
X150853806Y-91380866D01*
X150858427Y-91372221D01*
X150864645Y-91364645D01*
X150872221Y-91358427D01*
X150880866Y-91353806D01*
X150890245Y-91350961D01*
X150900000Y-91350000D01*
X152680000Y-91350000D01*
X152689755Y-91350961D01*
G37*
G04 #@! TD.AperFunction*
G04 #@! TA.AperFunction,SMDPad,CuDef*
G36*
X152689755Y-85400961D02*
G01*
X152699134Y-85403806D01*
X152707779Y-85408427D01*
X152715355Y-85414645D01*
X152721573Y-85422221D01*
X152726194Y-85430866D01*
X152729039Y-85440245D01*
X152730000Y-85450000D01*
X152730000Y-86600000D01*
X152729039Y-86609755D01*
X152726194Y-86619134D01*
X152721573Y-86627779D01*
X152715355Y-86635355D01*
X152707779Y-86641573D01*
X152699134Y-86646194D01*
X152689755Y-86649039D01*
X152680000Y-86650000D01*
X150900000Y-86650000D01*
X150890245Y-86649039D01*
X150880866Y-86646194D01*
X150872221Y-86641573D01*
X150864645Y-86635355D01*
X150858427Y-86627779D01*
X150853806Y-86619134D01*
X150850961Y-86609755D01*
X150850000Y-86600000D01*
X150850000Y-85450000D01*
X150850961Y-85440245D01*
X150853806Y-85430866D01*
X150858427Y-85422221D01*
X150864645Y-85414645D01*
X150872221Y-85408427D01*
X150880866Y-85403806D01*
X150890245Y-85400961D01*
X150900000Y-85400000D01*
X152680000Y-85400000D01*
X152689755Y-85400961D01*
G37*
G04 #@! TD.AperFunction*
G04 #@! TA.AperFunction,SMDPad,CuDef*
G36*
X145109755Y-91350961D02*
G01*
X145119134Y-91353806D01*
X145127779Y-91358427D01*
X145135355Y-91364645D01*
X145141573Y-91372221D01*
X145146194Y-91380866D01*
X145149039Y-91390245D01*
X145150000Y-91400000D01*
X145150000Y-92550000D01*
X145149039Y-92559755D01*
X145146194Y-92569134D01*
X145141573Y-92577779D01*
X145135355Y-92585355D01*
X145127779Y-92591573D01*
X145119134Y-92596194D01*
X145109755Y-92599039D01*
X145100000Y-92600000D01*
X143320000Y-92600000D01*
X143310245Y-92599039D01*
X143300866Y-92596194D01*
X143292221Y-92591573D01*
X143284645Y-92585355D01*
X143278427Y-92577779D01*
X143273806Y-92569134D01*
X143270961Y-92559755D01*
X143270000Y-92550000D01*
X143270000Y-91400000D01*
X143270961Y-91390245D01*
X143273806Y-91380866D01*
X143278427Y-91372221D01*
X143284645Y-91364645D01*
X143292221Y-91358427D01*
X143300866Y-91353806D01*
X143310245Y-91350961D01*
X143320000Y-91350000D01*
X145100000Y-91350000D01*
X145109755Y-91350961D01*
G37*
G04 #@! TD.AperFunction*
G04 #@! TA.AperFunction,SMDPad,CuDef*
G36*
X145109755Y-85400961D02*
G01*
X145119134Y-85403806D01*
X145127779Y-85408427D01*
X145135355Y-85414645D01*
X145141573Y-85422221D01*
X145146194Y-85430866D01*
X145149039Y-85440245D01*
X145150000Y-85450000D01*
X145150000Y-86600000D01*
X145149039Y-86609755D01*
X145146194Y-86619134D01*
X145141573Y-86627779D01*
X145135355Y-86635355D01*
X145127779Y-86641573D01*
X145119134Y-86646194D01*
X145109755Y-86649039D01*
X145100000Y-86650000D01*
X143320000Y-86650000D01*
X143310245Y-86649039D01*
X143300866Y-86646194D01*
X143292221Y-86641573D01*
X143284645Y-86635355D01*
X143278427Y-86627779D01*
X143273806Y-86619134D01*
X143270961Y-86609755D01*
X143270000Y-86600000D01*
X143270000Y-85450000D01*
X143270961Y-85440245D01*
X143273806Y-85430866D01*
X143278427Y-85422221D01*
X143284645Y-85414645D01*
X143292221Y-85408427D01*
X143300866Y-85403806D01*
X143310245Y-85400961D01*
X143320000Y-85400000D01*
X145100000Y-85400000D01*
X145109755Y-85400961D01*
G37*
G04 #@! TD.AperFunction*
G04 #@! TA.AperFunction,SMDPad,CuDef*
G36*
G01*
X131950000Y-92650001D02*
X131950000Y-91349999D01*
G75*
G02*
X132199999Y-91100000I249999J0D01*
G01*
X132850001Y-91100000D01*
G75*
G02*
X133100000Y-91349999I0J-249999D01*
G01*
X133100000Y-92650001D01*
G75*
G02*
X132850001Y-92900000I-249999J0D01*
G01*
X132199999Y-92900000D01*
G75*
G02*
X131950000Y-92650001I0J249999D01*
G01*
G37*
G04 #@! TD.AperFunction*
G04 #@! TA.AperFunction,SMDPad,CuDef*
G36*
G01*
X134900000Y-92650001D02*
X134900000Y-91349999D01*
G75*
G02*
X135149999Y-91100000I249999J0D01*
G01*
X135800001Y-91100000D01*
G75*
G02*
X136050000Y-91349999I0J-249999D01*
G01*
X136050000Y-92650001D01*
G75*
G02*
X135800001Y-92900000I-249999J0D01*
G01*
X135149999Y-92900000D01*
G75*
G02*
X134900000Y-92650001I0J249999D01*
G01*
G37*
G04 #@! TD.AperFunction*
D11*
X140000000Y-114000000D03*
X140000000Y-116000000D03*
X140000000Y-118000000D03*
D12*
X140000000Y-120000000D03*
G04 #@! TA.AperFunction,SMDPad,CuDef*
G36*
G01*
X155975000Y-95150000D02*
X155975000Y-94850000D01*
G75*
G02*
X156125000Y-94700000I150000J0D01*
G01*
X157775000Y-94700000D01*
G75*
G02*
X157925000Y-94850000I0J-150000D01*
G01*
X157925000Y-95150000D01*
G75*
G02*
X157775000Y-95300000I-150000J0D01*
G01*
X156125000Y-95300000D01*
G75*
G02*
X155975000Y-95150000I0J150000D01*
G01*
G37*
G04 #@! TD.AperFunction*
G04 #@! TA.AperFunction,SMDPad,CuDef*
G36*
G01*
X155975000Y-96420000D02*
X155975000Y-96120000D01*
G75*
G02*
X156125000Y-95970000I150000J0D01*
G01*
X157775000Y-95970000D01*
G75*
G02*
X157925000Y-96120000I0J-150000D01*
G01*
X157925000Y-96420000D01*
G75*
G02*
X157775000Y-96570000I-150000J0D01*
G01*
X156125000Y-96570000D01*
G75*
G02*
X155975000Y-96420000I0J150000D01*
G01*
G37*
G04 #@! TD.AperFunction*
G04 #@! TA.AperFunction,SMDPad,CuDef*
G36*
G01*
X155975000Y-97690000D02*
X155975000Y-97390000D01*
G75*
G02*
X156125000Y-97240000I150000J0D01*
G01*
X157775000Y-97240000D01*
G75*
G02*
X157925000Y-97390000I0J-150000D01*
G01*
X157925000Y-97690000D01*
G75*
G02*
X157775000Y-97840000I-150000J0D01*
G01*
X156125000Y-97840000D01*
G75*
G02*
X155975000Y-97690000I0J150000D01*
G01*
G37*
G04 #@! TD.AperFunction*
G04 #@! TA.AperFunction,SMDPad,CuDef*
G36*
G01*
X155975000Y-98960000D02*
X155975000Y-98660000D01*
G75*
G02*
X156125000Y-98510000I150000J0D01*
G01*
X157775000Y-98510000D01*
G75*
G02*
X157925000Y-98660000I0J-150000D01*
G01*
X157925000Y-98960000D01*
G75*
G02*
X157775000Y-99110000I-150000J0D01*
G01*
X156125000Y-99110000D01*
G75*
G02*
X155975000Y-98960000I0J150000D01*
G01*
G37*
G04 #@! TD.AperFunction*
G04 #@! TA.AperFunction,SMDPad,CuDef*
G36*
G01*
X155975000Y-100230000D02*
X155975000Y-99930000D01*
G75*
G02*
X156125000Y-99780000I150000J0D01*
G01*
X157775000Y-99780000D01*
G75*
G02*
X157925000Y-99930000I0J-150000D01*
G01*
X157925000Y-100230000D01*
G75*
G02*
X157775000Y-100380000I-150000J0D01*
G01*
X156125000Y-100380000D01*
G75*
G02*
X155975000Y-100230000I0J150000D01*
G01*
G37*
G04 #@! TD.AperFunction*
G04 #@! TA.AperFunction,SMDPad,CuDef*
G36*
G01*
X155975000Y-101500000D02*
X155975000Y-101200000D01*
G75*
G02*
X156125000Y-101050000I150000J0D01*
G01*
X157775000Y-101050000D01*
G75*
G02*
X157925000Y-101200000I0J-150000D01*
G01*
X157925000Y-101500000D01*
G75*
G02*
X157775000Y-101650000I-150000J0D01*
G01*
X156125000Y-101650000D01*
G75*
G02*
X155975000Y-101500000I0J150000D01*
G01*
G37*
G04 #@! TD.AperFunction*
G04 #@! TA.AperFunction,SMDPad,CuDef*
G36*
G01*
X155975000Y-102770000D02*
X155975000Y-102470000D01*
G75*
G02*
X156125000Y-102320000I150000J0D01*
G01*
X157775000Y-102320000D01*
G75*
G02*
X157925000Y-102470000I0J-150000D01*
G01*
X157925000Y-102770000D01*
G75*
G02*
X157775000Y-102920000I-150000J0D01*
G01*
X156125000Y-102920000D01*
G75*
G02*
X155975000Y-102770000I0J150000D01*
G01*
G37*
G04 #@! TD.AperFunction*
G04 #@! TA.AperFunction,SMDPad,CuDef*
G36*
G01*
X151025000Y-102770000D02*
X151025000Y-102470000D01*
G75*
G02*
X151175000Y-102320000I150000J0D01*
G01*
X152825000Y-102320000D01*
G75*
G02*
X152975000Y-102470000I0J-150000D01*
G01*
X152975000Y-102770000D01*
G75*
G02*
X152825000Y-102920000I-150000J0D01*
G01*
X151175000Y-102920000D01*
G75*
G02*
X151025000Y-102770000I0J150000D01*
G01*
G37*
G04 #@! TD.AperFunction*
G04 #@! TA.AperFunction,SMDPad,CuDef*
G36*
G01*
X151025000Y-101500000D02*
X151025000Y-101200000D01*
G75*
G02*
X151175000Y-101050000I150000J0D01*
G01*
X152825000Y-101050000D01*
G75*
G02*
X152975000Y-101200000I0J-150000D01*
G01*
X152975000Y-101500000D01*
G75*
G02*
X152825000Y-101650000I-150000J0D01*
G01*
X151175000Y-101650000D01*
G75*
G02*
X151025000Y-101500000I0J150000D01*
G01*
G37*
G04 #@! TD.AperFunction*
G04 #@! TA.AperFunction,SMDPad,CuDef*
G36*
G01*
X151025000Y-100230000D02*
X151025000Y-99930000D01*
G75*
G02*
X151175000Y-99780000I150000J0D01*
G01*
X152825000Y-99780000D01*
G75*
G02*
X152975000Y-99930000I0J-150000D01*
G01*
X152975000Y-100230000D01*
G75*
G02*
X152825000Y-100380000I-150000J0D01*
G01*
X151175000Y-100380000D01*
G75*
G02*
X151025000Y-100230000I0J150000D01*
G01*
G37*
G04 #@! TD.AperFunction*
G04 #@! TA.AperFunction,SMDPad,CuDef*
G36*
G01*
X151025000Y-98960000D02*
X151025000Y-98660000D01*
G75*
G02*
X151175000Y-98510000I150000J0D01*
G01*
X152825000Y-98510000D01*
G75*
G02*
X152975000Y-98660000I0J-150000D01*
G01*
X152975000Y-98960000D01*
G75*
G02*
X152825000Y-99110000I-150000J0D01*
G01*
X151175000Y-99110000D01*
G75*
G02*
X151025000Y-98960000I0J150000D01*
G01*
G37*
G04 #@! TD.AperFunction*
G04 #@! TA.AperFunction,SMDPad,CuDef*
G36*
G01*
X151025000Y-97690000D02*
X151025000Y-97390000D01*
G75*
G02*
X151175000Y-97240000I150000J0D01*
G01*
X152825000Y-97240000D01*
G75*
G02*
X152975000Y-97390000I0J-150000D01*
G01*
X152975000Y-97690000D01*
G75*
G02*
X152825000Y-97840000I-150000J0D01*
G01*
X151175000Y-97840000D01*
G75*
G02*
X151025000Y-97690000I0J150000D01*
G01*
G37*
G04 #@! TD.AperFunction*
G04 #@! TA.AperFunction,SMDPad,CuDef*
G36*
G01*
X151025000Y-96420000D02*
X151025000Y-96120000D01*
G75*
G02*
X151175000Y-95970000I150000J0D01*
G01*
X152825000Y-95970000D01*
G75*
G02*
X152975000Y-96120000I0J-150000D01*
G01*
X152975000Y-96420000D01*
G75*
G02*
X152825000Y-96570000I-150000J0D01*
G01*
X151175000Y-96570000D01*
G75*
G02*
X151025000Y-96420000I0J150000D01*
G01*
G37*
G04 #@! TD.AperFunction*
G04 #@! TA.AperFunction,SMDPad,CuDef*
G36*
G01*
X151025000Y-95150000D02*
X151025000Y-94850000D01*
G75*
G02*
X151175000Y-94700000I150000J0D01*
G01*
X152825000Y-94700000D01*
G75*
G02*
X152975000Y-94850000I0J-150000D01*
G01*
X152975000Y-95150000D01*
G75*
G02*
X152825000Y-95300000I-150000J0D01*
G01*
X151175000Y-95300000D01*
G75*
G02*
X151025000Y-95150000I0J150000D01*
G01*
G37*
G04 #@! TD.AperFunction*
D13*
X163000000Y-90000000D03*
X163000000Y-91900000D03*
D14*
X159500000Y-111750000D03*
X159500000Y-109250000D03*
X159500000Y-106750000D03*
X159500000Y-104250000D03*
X159500000Y-94250000D03*
X159500000Y-96750000D03*
X159500000Y-99250000D03*
X159500000Y-101750000D03*
X144500000Y-111750000D03*
X144500000Y-109250000D03*
X144500000Y-106750000D03*
X144500000Y-94250000D03*
X144500000Y-96750000D03*
X144500000Y-99250000D03*
X144500000Y-104250000D03*
X144500000Y-101750000D03*
G04 #@! TA.AperFunction,SMDPad,CuDef*
G36*
G01*
X155625000Y-105165000D02*
X155625000Y-104865000D01*
G75*
G02*
X155775000Y-104715000I150000J0D01*
G01*
X157525000Y-104715000D01*
G75*
G02*
X157675000Y-104865000I0J-150000D01*
G01*
X157675000Y-105165000D01*
G75*
G02*
X157525000Y-105315000I-150000J0D01*
G01*
X155775000Y-105315000D01*
G75*
G02*
X155625000Y-105165000I0J150000D01*
G01*
G37*
G04 #@! TD.AperFunction*
G04 #@! TA.AperFunction,SMDPad,CuDef*
G36*
G01*
X155625000Y-106435000D02*
X155625000Y-106135000D01*
G75*
G02*
X155775000Y-105985000I150000J0D01*
G01*
X157525000Y-105985000D01*
G75*
G02*
X157675000Y-106135000I0J-150000D01*
G01*
X157675000Y-106435000D01*
G75*
G02*
X157525000Y-106585000I-150000J0D01*
G01*
X155775000Y-106585000D01*
G75*
G02*
X155625000Y-106435000I0J150000D01*
G01*
G37*
G04 #@! TD.AperFunction*
G04 #@! TA.AperFunction,SMDPad,CuDef*
G36*
G01*
X155625000Y-107705000D02*
X155625000Y-107405000D01*
G75*
G02*
X155775000Y-107255000I150000J0D01*
G01*
X157525000Y-107255000D01*
G75*
G02*
X157675000Y-107405000I0J-150000D01*
G01*
X157675000Y-107705000D01*
G75*
G02*
X157525000Y-107855000I-150000J0D01*
G01*
X155775000Y-107855000D01*
G75*
G02*
X155625000Y-107705000I0J150000D01*
G01*
G37*
G04 #@! TD.AperFunction*
G04 #@! TA.AperFunction,SMDPad,CuDef*
G36*
G01*
X155625000Y-108975000D02*
X155625000Y-108675000D01*
G75*
G02*
X155775000Y-108525000I150000J0D01*
G01*
X157525000Y-108525000D01*
G75*
G02*
X157675000Y-108675000I0J-150000D01*
G01*
X157675000Y-108975000D01*
G75*
G02*
X157525000Y-109125000I-150000J0D01*
G01*
X155775000Y-109125000D01*
G75*
G02*
X155625000Y-108975000I0J150000D01*
G01*
G37*
G04 #@! TD.AperFunction*
G04 #@! TA.AperFunction,SMDPad,CuDef*
G36*
G01*
X155625000Y-110245000D02*
X155625000Y-109945000D01*
G75*
G02*
X155775000Y-109795000I150000J0D01*
G01*
X157525000Y-109795000D01*
G75*
G02*
X157675000Y-109945000I0J-150000D01*
G01*
X157675000Y-110245000D01*
G75*
G02*
X157525000Y-110395000I-150000J0D01*
G01*
X155775000Y-110395000D01*
G75*
G02*
X155625000Y-110245000I0J150000D01*
G01*
G37*
G04 #@! TD.AperFunction*
G04 #@! TA.AperFunction,SMDPad,CuDef*
G36*
G01*
X155625000Y-111515000D02*
X155625000Y-111215000D01*
G75*
G02*
X155775000Y-111065000I150000J0D01*
G01*
X157525000Y-111065000D01*
G75*
G02*
X157675000Y-111215000I0J-150000D01*
G01*
X157675000Y-111515000D01*
G75*
G02*
X157525000Y-111665000I-150000J0D01*
G01*
X155775000Y-111665000D01*
G75*
G02*
X155625000Y-111515000I0J150000D01*
G01*
G37*
G04 #@! TD.AperFunction*
G04 #@! TA.AperFunction,SMDPad,CuDef*
G36*
G01*
X155625000Y-112785000D02*
X155625000Y-112485000D01*
G75*
G02*
X155775000Y-112335000I150000J0D01*
G01*
X157525000Y-112335000D01*
G75*
G02*
X157675000Y-112485000I0J-150000D01*
G01*
X157675000Y-112785000D01*
G75*
G02*
X157525000Y-112935000I-150000J0D01*
G01*
X155775000Y-112935000D01*
G75*
G02*
X155625000Y-112785000I0J150000D01*
G01*
G37*
G04 #@! TD.AperFunction*
G04 #@! TA.AperFunction,SMDPad,CuDef*
G36*
G01*
X155625000Y-114055000D02*
X155625000Y-113755000D01*
G75*
G02*
X155775000Y-113605000I150000J0D01*
G01*
X157525000Y-113605000D01*
G75*
G02*
X157675000Y-113755000I0J-150000D01*
G01*
X157675000Y-114055000D01*
G75*
G02*
X157525000Y-114205000I-150000J0D01*
G01*
X155775000Y-114205000D01*
G75*
G02*
X155625000Y-114055000I0J150000D01*
G01*
G37*
G04 #@! TD.AperFunction*
G04 #@! TA.AperFunction,SMDPad,CuDef*
G36*
G01*
X155625000Y-115325000D02*
X155625000Y-115025000D01*
G75*
G02*
X155775000Y-114875000I150000J0D01*
G01*
X157525000Y-114875000D01*
G75*
G02*
X157675000Y-115025000I0J-150000D01*
G01*
X157675000Y-115325000D01*
G75*
G02*
X157525000Y-115475000I-150000J0D01*
G01*
X155775000Y-115475000D01*
G75*
G02*
X155625000Y-115325000I0J150000D01*
G01*
G37*
G04 #@! TD.AperFunction*
G04 #@! TA.AperFunction,SMDPad,CuDef*
G36*
G01*
X155625000Y-116595000D02*
X155625000Y-116295000D01*
G75*
G02*
X155775000Y-116145000I150000J0D01*
G01*
X157525000Y-116145000D01*
G75*
G02*
X157675000Y-116295000I0J-150000D01*
G01*
X157675000Y-116595000D01*
G75*
G02*
X157525000Y-116745000I-150000J0D01*
G01*
X155775000Y-116745000D01*
G75*
G02*
X155625000Y-116595000I0J150000D01*
G01*
G37*
G04 #@! TD.AperFunction*
G04 #@! TA.AperFunction,SMDPad,CuDef*
G36*
G01*
X155625000Y-117865000D02*
X155625000Y-117565000D01*
G75*
G02*
X155775000Y-117415000I150000J0D01*
G01*
X157525000Y-117415000D01*
G75*
G02*
X157675000Y-117565000I0J-150000D01*
G01*
X157675000Y-117865000D01*
G75*
G02*
X157525000Y-118015000I-150000J0D01*
G01*
X155775000Y-118015000D01*
G75*
G02*
X155625000Y-117865000I0J150000D01*
G01*
G37*
G04 #@! TD.AperFunction*
G04 #@! TA.AperFunction,SMDPad,CuDef*
G36*
G01*
X155625000Y-119135000D02*
X155625000Y-118835000D01*
G75*
G02*
X155775000Y-118685000I150000J0D01*
G01*
X157525000Y-118685000D01*
G75*
G02*
X157675000Y-118835000I0J-150000D01*
G01*
X157675000Y-119135000D01*
G75*
G02*
X157525000Y-119285000I-150000J0D01*
G01*
X155775000Y-119285000D01*
G75*
G02*
X155625000Y-119135000I0J150000D01*
G01*
G37*
G04 #@! TD.AperFunction*
G04 #@! TA.AperFunction,SMDPad,CuDef*
G36*
G01*
X146325000Y-119135000D02*
X146325000Y-118835000D01*
G75*
G02*
X146475000Y-118685000I150000J0D01*
G01*
X148225000Y-118685000D01*
G75*
G02*
X148375000Y-118835000I0J-150000D01*
G01*
X148375000Y-119135000D01*
G75*
G02*
X148225000Y-119285000I-150000J0D01*
G01*
X146475000Y-119285000D01*
G75*
G02*
X146325000Y-119135000I0J150000D01*
G01*
G37*
G04 #@! TD.AperFunction*
G04 #@! TA.AperFunction,SMDPad,CuDef*
G36*
G01*
X146325000Y-117865000D02*
X146325000Y-117565000D01*
G75*
G02*
X146475000Y-117415000I150000J0D01*
G01*
X148225000Y-117415000D01*
G75*
G02*
X148375000Y-117565000I0J-150000D01*
G01*
X148375000Y-117865000D01*
G75*
G02*
X148225000Y-118015000I-150000J0D01*
G01*
X146475000Y-118015000D01*
G75*
G02*
X146325000Y-117865000I0J150000D01*
G01*
G37*
G04 #@! TD.AperFunction*
G04 #@! TA.AperFunction,SMDPad,CuDef*
G36*
G01*
X146325000Y-116595000D02*
X146325000Y-116295000D01*
G75*
G02*
X146475000Y-116145000I150000J0D01*
G01*
X148225000Y-116145000D01*
G75*
G02*
X148375000Y-116295000I0J-150000D01*
G01*
X148375000Y-116595000D01*
G75*
G02*
X148225000Y-116745000I-150000J0D01*
G01*
X146475000Y-116745000D01*
G75*
G02*
X146325000Y-116595000I0J150000D01*
G01*
G37*
G04 #@! TD.AperFunction*
G04 #@! TA.AperFunction,SMDPad,CuDef*
G36*
G01*
X146325000Y-115325000D02*
X146325000Y-115025000D01*
G75*
G02*
X146475000Y-114875000I150000J0D01*
G01*
X148225000Y-114875000D01*
G75*
G02*
X148375000Y-115025000I0J-150000D01*
G01*
X148375000Y-115325000D01*
G75*
G02*
X148225000Y-115475000I-150000J0D01*
G01*
X146475000Y-115475000D01*
G75*
G02*
X146325000Y-115325000I0J150000D01*
G01*
G37*
G04 #@! TD.AperFunction*
G04 #@! TA.AperFunction,SMDPad,CuDef*
G36*
G01*
X146325000Y-114055000D02*
X146325000Y-113755000D01*
G75*
G02*
X146475000Y-113605000I150000J0D01*
G01*
X148225000Y-113605000D01*
G75*
G02*
X148375000Y-113755000I0J-150000D01*
G01*
X148375000Y-114055000D01*
G75*
G02*
X148225000Y-114205000I-150000J0D01*
G01*
X146475000Y-114205000D01*
G75*
G02*
X146325000Y-114055000I0J150000D01*
G01*
G37*
G04 #@! TD.AperFunction*
G04 #@! TA.AperFunction,SMDPad,CuDef*
G36*
G01*
X146325000Y-112785000D02*
X146325000Y-112485000D01*
G75*
G02*
X146475000Y-112335000I150000J0D01*
G01*
X148225000Y-112335000D01*
G75*
G02*
X148375000Y-112485000I0J-150000D01*
G01*
X148375000Y-112785000D01*
G75*
G02*
X148225000Y-112935000I-150000J0D01*
G01*
X146475000Y-112935000D01*
G75*
G02*
X146325000Y-112785000I0J150000D01*
G01*
G37*
G04 #@! TD.AperFunction*
G04 #@! TA.AperFunction,SMDPad,CuDef*
G36*
G01*
X146325000Y-111515000D02*
X146325000Y-111215000D01*
G75*
G02*
X146475000Y-111065000I150000J0D01*
G01*
X148225000Y-111065000D01*
G75*
G02*
X148375000Y-111215000I0J-150000D01*
G01*
X148375000Y-111515000D01*
G75*
G02*
X148225000Y-111665000I-150000J0D01*
G01*
X146475000Y-111665000D01*
G75*
G02*
X146325000Y-111515000I0J150000D01*
G01*
G37*
G04 #@! TD.AperFunction*
G04 #@! TA.AperFunction,SMDPad,CuDef*
G36*
G01*
X146325000Y-110245000D02*
X146325000Y-109945000D01*
G75*
G02*
X146475000Y-109795000I150000J0D01*
G01*
X148225000Y-109795000D01*
G75*
G02*
X148375000Y-109945000I0J-150000D01*
G01*
X148375000Y-110245000D01*
G75*
G02*
X148225000Y-110395000I-150000J0D01*
G01*
X146475000Y-110395000D01*
G75*
G02*
X146325000Y-110245000I0J150000D01*
G01*
G37*
G04 #@! TD.AperFunction*
G04 #@! TA.AperFunction,SMDPad,CuDef*
G36*
G01*
X146325000Y-108975000D02*
X146325000Y-108675000D01*
G75*
G02*
X146475000Y-108525000I150000J0D01*
G01*
X148225000Y-108525000D01*
G75*
G02*
X148375000Y-108675000I0J-150000D01*
G01*
X148375000Y-108975000D01*
G75*
G02*
X148225000Y-109125000I-150000J0D01*
G01*
X146475000Y-109125000D01*
G75*
G02*
X146325000Y-108975000I0J150000D01*
G01*
G37*
G04 #@! TD.AperFunction*
G04 #@! TA.AperFunction,SMDPad,CuDef*
G36*
G01*
X146325000Y-107705000D02*
X146325000Y-107405000D01*
G75*
G02*
X146475000Y-107255000I150000J0D01*
G01*
X148225000Y-107255000D01*
G75*
G02*
X148375000Y-107405000I0J-150000D01*
G01*
X148375000Y-107705000D01*
G75*
G02*
X148225000Y-107855000I-150000J0D01*
G01*
X146475000Y-107855000D01*
G75*
G02*
X146325000Y-107705000I0J150000D01*
G01*
G37*
G04 #@! TD.AperFunction*
G04 #@! TA.AperFunction,SMDPad,CuDef*
G36*
G01*
X146325000Y-106435000D02*
X146325000Y-106135000D01*
G75*
G02*
X146475000Y-105985000I150000J0D01*
G01*
X148225000Y-105985000D01*
G75*
G02*
X148375000Y-106135000I0J-150000D01*
G01*
X148375000Y-106435000D01*
G75*
G02*
X148225000Y-106585000I-150000J0D01*
G01*
X146475000Y-106585000D01*
G75*
G02*
X146325000Y-106435000I0J150000D01*
G01*
G37*
G04 #@! TD.AperFunction*
G04 #@! TA.AperFunction,SMDPad,CuDef*
G36*
G01*
X146325000Y-105165000D02*
X146325000Y-104865000D01*
G75*
G02*
X146475000Y-104715000I150000J0D01*
G01*
X148225000Y-104715000D01*
G75*
G02*
X148375000Y-104865000I0J-150000D01*
G01*
X148375000Y-105165000D01*
G75*
G02*
X148225000Y-105315000I-150000J0D01*
G01*
X146475000Y-105315000D01*
G75*
G02*
X146325000Y-105165000I0J150000D01*
G01*
G37*
G04 #@! TD.AperFunction*
G04 #@! TA.AperFunction,SMDPad,CuDef*
G36*
G01*
X160450000Y-91755000D02*
X160450000Y-92055000D01*
G75*
G02*
X160300000Y-92205000I-150000J0D01*
G01*
X158650000Y-92205000D01*
G75*
G02*
X158500000Y-92055000I0J150000D01*
G01*
X158500000Y-91755000D01*
G75*
G02*
X158650000Y-91605000I150000J0D01*
G01*
X160300000Y-91605000D01*
G75*
G02*
X160450000Y-91755000I0J-150000D01*
G01*
G37*
G04 #@! TD.AperFunction*
G04 #@! TA.AperFunction,SMDPad,CuDef*
G36*
G01*
X160450000Y-90485000D02*
X160450000Y-90785000D01*
G75*
G02*
X160300000Y-90935000I-150000J0D01*
G01*
X158650000Y-90935000D01*
G75*
G02*
X158500000Y-90785000I0J150000D01*
G01*
X158500000Y-90485000D01*
G75*
G02*
X158650000Y-90335000I150000J0D01*
G01*
X160300000Y-90335000D01*
G75*
G02*
X160450000Y-90485000I0J-150000D01*
G01*
G37*
G04 #@! TD.AperFunction*
G04 #@! TA.AperFunction,SMDPad,CuDef*
G36*
G01*
X160450000Y-89215000D02*
X160450000Y-89515000D01*
G75*
G02*
X160300000Y-89665000I-150000J0D01*
G01*
X158650000Y-89665000D01*
G75*
G02*
X158500000Y-89515000I0J150000D01*
G01*
X158500000Y-89215000D01*
G75*
G02*
X158650000Y-89065000I150000J0D01*
G01*
X160300000Y-89065000D01*
G75*
G02*
X160450000Y-89215000I0J-150000D01*
G01*
G37*
G04 #@! TD.AperFunction*
G04 #@! TA.AperFunction,SMDPad,CuDef*
G36*
G01*
X160450000Y-87945000D02*
X160450000Y-88245000D01*
G75*
G02*
X160300000Y-88395000I-150000J0D01*
G01*
X158650000Y-88395000D01*
G75*
G02*
X158500000Y-88245000I0J150000D01*
G01*
X158500000Y-87945000D01*
G75*
G02*
X158650000Y-87795000I150000J0D01*
G01*
X160300000Y-87795000D01*
G75*
G02*
X160450000Y-87945000I0J-150000D01*
G01*
G37*
G04 #@! TD.AperFunction*
G04 #@! TA.AperFunction,SMDPad,CuDef*
G36*
G01*
X155500000Y-87945000D02*
X155500000Y-88245000D01*
G75*
G02*
X155350000Y-88395000I-150000J0D01*
G01*
X153700000Y-88395000D01*
G75*
G02*
X153550000Y-88245000I0J150000D01*
G01*
X153550000Y-87945000D01*
G75*
G02*
X153700000Y-87795000I150000J0D01*
G01*
X155350000Y-87795000D01*
G75*
G02*
X155500000Y-87945000I0J-150000D01*
G01*
G37*
G04 #@! TD.AperFunction*
G04 #@! TA.AperFunction,SMDPad,CuDef*
G36*
G01*
X155500000Y-89215000D02*
X155500000Y-89515000D01*
G75*
G02*
X155350000Y-89665000I-150000J0D01*
G01*
X153700000Y-89665000D01*
G75*
G02*
X153550000Y-89515000I0J150000D01*
G01*
X153550000Y-89215000D01*
G75*
G02*
X153700000Y-89065000I150000J0D01*
G01*
X155350000Y-89065000D01*
G75*
G02*
X155500000Y-89215000I0J-150000D01*
G01*
G37*
G04 #@! TD.AperFunction*
G04 #@! TA.AperFunction,SMDPad,CuDef*
G36*
G01*
X155500000Y-90485000D02*
X155500000Y-90785000D01*
G75*
G02*
X155350000Y-90935000I-150000J0D01*
G01*
X153700000Y-90935000D01*
G75*
G02*
X153550000Y-90785000I0J150000D01*
G01*
X153550000Y-90485000D01*
G75*
G02*
X153700000Y-90335000I150000J0D01*
G01*
X155350000Y-90335000D01*
G75*
G02*
X155500000Y-90485000I0J-150000D01*
G01*
G37*
G04 #@! TD.AperFunction*
G04 #@! TA.AperFunction,SMDPad,CuDef*
G36*
G01*
X155500000Y-91755000D02*
X155500000Y-92055000D01*
G75*
G02*
X155350000Y-92205000I-150000J0D01*
G01*
X153700000Y-92205000D01*
G75*
G02*
X153550000Y-92055000I0J150000D01*
G01*
X153550000Y-91755000D01*
G75*
G02*
X153700000Y-91605000I150000J0D01*
G01*
X155350000Y-91605000D01*
G75*
G02*
X155500000Y-91755000I0J-150000D01*
G01*
G37*
G04 #@! TD.AperFunction*
D15*
X171000000Y-105500000D03*
X171000000Y-110000000D03*
X164500000Y-105500000D03*
X164500000Y-110000000D03*
X171000000Y-96000000D03*
X171000000Y-100500000D03*
X164500000Y-96000000D03*
X164500000Y-100500000D03*
X139500000Y-105500000D03*
X139500000Y-110000000D03*
X133000000Y-105500000D03*
X133000000Y-110000000D03*
X139500000Y-96000000D03*
X139500000Y-100500000D03*
X133000000Y-96000000D03*
X133000000Y-100500000D03*
D16*
X146800000Y-94100000D03*
X146800000Y-95050000D03*
X146800000Y-96000000D03*
X149000000Y-96000000D03*
X149000000Y-94100000D03*
D17*
X141000000Y-89000000D03*
D18*
X141000000Y-86460000D03*
G04 #@! TA.AperFunction,SMDPad,CuDef*
G36*
G01*
X135775000Y-103275000D02*
X135775000Y-102725000D01*
G75*
G02*
X135975000Y-102525000I200000J0D01*
G01*
X136375000Y-102525000D01*
G75*
G02*
X136575000Y-102725000I0J-200000D01*
G01*
X136575000Y-103275000D01*
G75*
G02*
X136375000Y-103475000I-200000J0D01*
G01*
X135975000Y-103475000D01*
G75*
G02*
X135775000Y-103275000I0J200000D01*
G01*
G37*
G04 #@! TD.AperFunction*
G04 #@! TA.AperFunction,SMDPad,CuDef*
G36*
G01*
X137425000Y-103275000D02*
X137425000Y-102725000D01*
G75*
G02*
X137625000Y-102525000I200000J0D01*
G01*
X138025000Y-102525000D01*
G75*
G02*
X138225000Y-102725000I0J-200000D01*
G01*
X138225000Y-103275000D01*
G75*
G02*
X138025000Y-103475000I-200000J0D01*
G01*
X137625000Y-103475000D01*
G75*
G02*
X137425000Y-103275000I0J200000D01*
G01*
G37*
G04 #@! TD.AperFunction*
G04 #@! TA.AperFunction,SMDPad,CuDef*
G36*
G01*
X137950000Y-93275000D02*
X137950000Y-92725000D01*
G75*
G02*
X138150000Y-92525000I200000J0D01*
G01*
X138550000Y-92525000D01*
G75*
G02*
X138750000Y-92725000I0J-200000D01*
G01*
X138750000Y-93275000D01*
G75*
G02*
X138550000Y-93475000I-200000J0D01*
G01*
X138150000Y-93475000D01*
G75*
G02*
X137950000Y-93275000I0J200000D01*
G01*
G37*
G04 #@! TD.AperFunction*
G04 #@! TA.AperFunction,SMDPad,CuDef*
G36*
G01*
X139600000Y-93275000D02*
X139600000Y-92725000D01*
G75*
G02*
X139800000Y-92525000I200000J0D01*
G01*
X140200000Y-92525000D01*
G75*
G02*
X140400000Y-92725000I0J-200000D01*
G01*
X140400000Y-93275000D01*
G75*
G02*
X140200000Y-93475000I-200000J0D01*
G01*
X139800000Y-93475000D01*
G75*
G02*
X139600000Y-93275000I0J200000D01*
G01*
G37*
G04 #@! TD.AperFunction*
G04 #@! TA.AperFunction,SMDPad,CuDef*
G36*
G01*
X166575000Y-93725000D02*
X166575000Y-94275000D01*
G75*
G02*
X166375000Y-94475000I-200000J0D01*
G01*
X165975000Y-94475000D01*
G75*
G02*
X165775000Y-94275000I0J200000D01*
G01*
X165775000Y-93725000D01*
G75*
G02*
X165975000Y-93525000I200000J0D01*
G01*
X166375000Y-93525000D01*
G75*
G02*
X166575000Y-93725000I0J-200000D01*
G01*
G37*
G04 #@! TD.AperFunction*
G04 #@! TA.AperFunction,SMDPad,CuDef*
G36*
G01*
X168225000Y-93725000D02*
X168225000Y-94275000D01*
G75*
G02*
X168025000Y-94475000I-200000J0D01*
G01*
X167625000Y-94475000D01*
G75*
G02*
X167425000Y-94275000I0J200000D01*
G01*
X167425000Y-93725000D01*
G75*
G02*
X167625000Y-93525000I200000J0D01*
G01*
X168025000Y-93525000D01*
G75*
G02*
X168225000Y-93725000I0J-200000D01*
G01*
G37*
G04 #@! TD.AperFunction*
G04 #@! TA.AperFunction,SMDPad,CuDef*
G36*
G01*
X170575000Y-102725000D02*
X170575000Y-103275000D01*
G75*
G02*
X170375000Y-103475000I-200000J0D01*
G01*
X169975000Y-103475000D01*
G75*
G02*
X169775000Y-103275000I0J200000D01*
G01*
X169775000Y-102725000D01*
G75*
G02*
X169975000Y-102525000I200000J0D01*
G01*
X170375000Y-102525000D01*
G75*
G02*
X170575000Y-102725000I0J-200000D01*
G01*
G37*
G04 #@! TD.AperFunction*
G04 #@! TA.AperFunction,SMDPad,CuDef*
G36*
G01*
X172225000Y-102725000D02*
X172225000Y-103275000D01*
G75*
G02*
X172025000Y-103475000I-200000J0D01*
G01*
X171625000Y-103475000D01*
G75*
G02*
X171425000Y-103275000I0J200000D01*
G01*
X171425000Y-102725000D01*
G75*
G02*
X171625000Y-102525000I200000J0D01*
G01*
X172025000Y-102525000D01*
G75*
G02*
X172225000Y-102725000I0J-200000D01*
G01*
G37*
G04 #@! TD.AperFunction*
G04 #@! TA.AperFunction,SMDPad,CuDef*
G36*
G01*
X141725000Y-94600000D02*
X142275000Y-94600000D01*
G75*
G02*
X142475000Y-94800000I0J-200000D01*
G01*
X142475000Y-95200000D01*
G75*
G02*
X142275000Y-95400000I-200000J0D01*
G01*
X141725000Y-95400000D01*
G75*
G02*
X141525000Y-95200000I0J200000D01*
G01*
X141525000Y-94800000D01*
G75*
G02*
X141725000Y-94600000I200000J0D01*
G01*
G37*
G04 #@! TD.AperFunction*
G04 #@! TA.AperFunction,SMDPad,CuDef*
G36*
G01*
X141725000Y-96250000D02*
X142275000Y-96250000D01*
G75*
G02*
X142475000Y-96450000I0J-200000D01*
G01*
X142475000Y-96850000D01*
G75*
G02*
X142275000Y-97050000I-200000J0D01*
G01*
X141725000Y-97050000D01*
G75*
G02*
X141525000Y-96850000I0J200000D01*
G01*
X141525000Y-96450000D01*
G75*
G02*
X141725000Y-96250000I200000J0D01*
G01*
G37*
G04 #@! TD.AperFunction*
G04 #@! TA.AperFunction,SMDPad,CuDef*
G36*
G01*
X141725000Y-100600000D02*
X142275000Y-100600000D01*
G75*
G02*
X142475000Y-100800000I0J-200000D01*
G01*
X142475000Y-101200000D01*
G75*
G02*
X142275000Y-101400000I-200000J0D01*
G01*
X141725000Y-101400000D01*
G75*
G02*
X141525000Y-101200000I0J200000D01*
G01*
X141525000Y-100800000D01*
G75*
G02*
X141725000Y-100600000I200000J0D01*
G01*
G37*
G04 #@! TD.AperFunction*
G04 #@! TA.AperFunction,SMDPad,CuDef*
G36*
G01*
X141725000Y-102250000D02*
X142275000Y-102250000D01*
G75*
G02*
X142475000Y-102450000I0J-200000D01*
G01*
X142475000Y-102850000D01*
G75*
G02*
X142275000Y-103050000I-200000J0D01*
G01*
X141725000Y-103050000D01*
G75*
G02*
X141525000Y-102850000I0J200000D01*
G01*
X141525000Y-102450000D01*
G75*
G02*
X141725000Y-102250000I200000J0D01*
G01*
G37*
G04 #@! TD.AperFunction*
G04 #@! TA.AperFunction,SMDPad,CuDef*
G36*
G01*
X141725000Y-93250000D02*
X142275000Y-93250000D01*
G75*
G02*
X142475000Y-93450000I0J-200000D01*
G01*
X142475000Y-93850000D01*
G75*
G02*
X142275000Y-94050000I-200000J0D01*
G01*
X141725000Y-94050000D01*
G75*
G02*
X141525000Y-93850000I0J200000D01*
G01*
X141525000Y-93450000D01*
G75*
G02*
X141725000Y-93250000I200000J0D01*
G01*
G37*
G04 #@! TD.AperFunction*
G04 #@! TA.AperFunction,SMDPad,CuDef*
G36*
G01*
X141725000Y-91600000D02*
X142275000Y-91600000D01*
G75*
G02*
X142475000Y-91800000I0J-200000D01*
G01*
X142475000Y-92200000D01*
G75*
G02*
X142275000Y-92400000I-200000J0D01*
G01*
X141725000Y-92400000D01*
G75*
G02*
X141525000Y-92200000I0J200000D01*
G01*
X141525000Y-91800000D01*
G75*
G02*
X141725000Y-91600000I200000J0D01*
G01*
G37*
G04 #@! TD.AperFunction*
G04 #@! TA.AperFunction,SMDPad,CuDef*
G36*
G01*
X141725000Y-99250000D02*
X142275000Y-99250000D01*
G75*
G02*
X142475000Y-99450000I0J-200000D01*
G01*
X142475000Y-99850000D01*
G75*
G02*
X142275000Y-100050000I-200000J0D01*
G01*
X141725000Y-100050000D01*
G75*
G02*
X141525000Y-99850000I0J200000D01*
G01*
X141525000Y-99450000D01*
G75*
G02*
X141725000Y-99250000I200000J0D01*
G01*
G37*
G04 #@! TD.AperFunction*
G04 #@! TA.AperFunction,SMDPad,CuDef*
G36*
G01*
X141725000Y-97600000D02*
X142275000Y-97600000D01*
G75*
G02*
X142475000Y-97800000I0J-200000D01*
G01*
X142475000Y-98200000D01*
G75*
G02*
X142275000Y-98400000I-200000J0D01*
G01*
X141725000Y-98400000D01*
G75*
G02*
X141525000Y-98200000I0J200000D01*
G01*
X141525000Y-97800000D01*
G75*
G02*
X141725000Y-97600000I200000J0D01*
G01*
G37*
G04 #@! TD.AperFunction*
G04 #@! TA.AperFunction,SMDPad,CuDef*
G36*
G01*
X161725000Y-106425000D02*
X162275000Y-106425000D01*
G75*
G02*
X162475000Y-106625000I0J-200000D01*
G01*
X162475000Y-107025000D01*
G75*
G02*
X162275000Y-107225000I-200000J0D01*
G01*
X161725000Y-107225000D01*
G75*
G02*
X161525000Y-107025000I0J200000D01*
G01*
X161525000Y-106625000D01*
G75*
G02*
X161725000Y-106425000I200000J0D01*
G01*
G37*
G04 #@! TD.AperFunction*
G04 #@! TA.AperFunction,SMDPad,CuDef*
G36*
G01*
X161725000Y-104775000D02*
X162275000Y-104775000D01*
G75*
G02*
X162475000Y-104975000I0J-200000D01*
G01*
X162475000Y-105375000D01*
G75*
G02*
X162275000Y-105575000I-200000J0D01*
G01*
X161725000Y-105575000D01*
G75*
G02*
X161525000Y-105375000I0J200000D01*
G01*
X161525000Y-104975000D01*
G75*
G02*
X161725000Y-104775000I200000J0D01*
G01*
G37*
G04 #@! TD.AperFunction*
G04 #@! TA.AperFunction,SMDPad,CuDef*
G36*
G01*
X161725000Y-112425000D02*
X162275000Y-112425000D01*
G75*
G02*
X162475000Y-112625000I0J-200000D01*
G01*
X162475000Y-113025000D01*
G75*
G02*
X162275000Y-113225000I-200000J0D01*
G01*
X161725000Y-113225000D01*
G75*
G02*
X161525000Y-113025000I0J200000D01*
G01*
X161525000Y-112625000D01*
G75*
G02*
X161725000Y-112425000I200000J0D01*
G01*
G37*
G04 #@! TD.AperFunction*
G04 #@! TA.AperFunction,SMDPad,CuDef*
G36*
G01*
X161725000Y-110775000D02*
X162275000Y-110775000D01*
G75*
G02*
X162475000Y-110975000I0J-200000D01*
G01*
X162475000Y-111375000D01*
G75*
G02*
X162275000Y-111575000I-200000J0D01*
G01*
X161725000Y-111575000D01*
G75*
G02*
X161525000Y-111375000I0J200000D01*
G01*
X161525000Y-110975000D01*
G75*
G02*
X161725000Y-110775000I200000J0D01*
G01*
G37*
G04 #@! TD.AperFunction*
G04 #@! TA.AperFunction,SMDPad,CuDef*
G36*
G01*
X162275000Y-104225000D02*
X161725000Y-104225000D01*
G75*
G02*
X161525000Y-104025000I0J200000D01*
G01*
X161525000Y-103625000D01*
G75*
G02*
X161725000Y-103425000I200000J0D01*
G01*
X162275000Y-103425000D01*
G75*
G02*
X162475000Y-103625000I0J-200000D01*
G01*
X162475000Y-104025000D01*
G75*
G02*
X162275000Y-104225000I-200000J0D01*
G01*
G37*
G04 #@! TD.AperFunction*
G04 #@! TA.AperFunction,SMDPad,CuDef*
G36*
G01*
X162275000Y-102575000D02*
X161725000Y-102575000D01*
G75*
G02*
X161525000Y-102375000I0J200000D01*
G01*
X161525000Y-101975000D01*
G75*
G02*
X161725000Y-101775000I200000J0D01*
G01*
X162275000Y-101775000D01*
G75*
G02*
X162475000Y-101975000I0J-200000D01*
G01*
X162475000Y-102375000D01*
G75*
G02*
X162275000Y-102575000I-200000J0D01*
G01*
G37*
G04 #@! TD.AperFunction*
G04 #@! TA.AperFunction,SMDPad,CuDef*
G36*
G01*
X161725000Y-107775000D02*
X162275000Y-107775000D01*
G75*
G02*
X162475000Y-107975000I0J-200000D01*
G01*
X162475000Y-108375000D01*
G75*
G02*
X162275000Y-108575000I-200000J0D01*
G01*
X161725000Y-108575000D01*
G75*
G02*
X161525000Y-108375000I0J200000D01*
G01*
X161525000Y-107975000D01*
G75*
G02*
X161725000Y-107775000I200000J0D01*
G01*
G37*
G04 #@! TD.AperFunction*
G04 #@! TA.AperFunction,SMDPad,CuDef*
G36*
G01*
X161725000Y-109425000D02*
X162275000Y-109425000D01*
G75*
G02*
X162475000Y-109625000I0J-200000D01*
G01*
X162475000Y-110025000D01*
G75*
G02*
X162275000Y-110225000I-200000J0D01*
G01*
X161725000Y-110225000D01*
G75*
G02*
X161525000Y-110025000I0J200000D01*
G01*
X161525000Y-109625000D01*
G75*
G02*
X161725000Y-109425000I200000J0D01*
G01*
G37*
G04 #@! TD.AperFunction*
D19*
X158000000Y-86000000D03*
X158000000Y-104000000D03*
X150000000Y-101000000D03*
X150000000Y-100000000D03*
X155000000Y-107000000D03*
X155000000Y-96000000D03*
X155000000Y-106000000D03*
X155000000Y-97000000D03*
X153000000Y-104000000D03*
X150000000Y-99000000D03*
X158500000Y-100500000D03*
X158500000Y-103000000D03*
X162000000Y-89000000D03*
X148000000Y-99000000D03*
D20*
X144500000Y-91000000D02*
X145000000Y-91500000D01*
X146020000Y-95050000D02*
X146800000Y-95050000D01*
X145587001Y-94617001D02*
X146020000Y-95050000D01*
X145587001Y-92087001D02*
X145587001Y-94617001D01*
X145000000Y-91500000D02*
X145587001Y-92087001D01*
X156950000Y-89645000D02*
X156950000Y-95000000D01*
X158500000Y-88095000D02*
X156950000Y-89645000D01*
X159475000Y-88095000D02*
X158500000Y-88095000D01*
X159475000Y-88095000D02*
X159475000Y-87475000D01*
X159475000Y-87475000D02*
X158000000Y-86000000D01*
X141000000Y-89000000D02*
X140360000Y-89640000D01*
X136680000Y-94795000D02*
X137475000Y-94000000D01*
X136680000Y-102495000D02*
X136680000Y-94795000D01*
X137475000Y-94000000D02*
X135475000Y-92000000D01*
X136175000Y-103000000D02*
X136680000Y-102495000D01*
X137475000Y-93875000D02*
X138350000Y-93000000D01*
X137475000Y-94000000D02*
X137475000Y-93875000D01*
X138350000Y-92150000D02*
X139000000Y-91500000D01*
X138350000Y-93000000D02*
X138350000Y-92150000D01*
X139000000Y-91500000D02*
X140500000Y-91500000D01*
X141000000Y-91000000D02*
X141000000Y-89000000D01*
X140500000Y-91500000D02*
X141000000Y-91000000D01*
X143000000Y-91000000D02*
X141000000Y-89000000D01*
X144500000Y-91000000D02*
X143000000Y-91000000D01*
X167825000Y-99400000D02*
X167825000Y-94000000D01*
X171425000Y-103000000D02*
X167825000Y-99400000D01*
X171825000Y-103000000D02*
X171425000Y-103000000D01*
X169561002Y-99400000D02*
X167825000Y-99400000D01*
X172325001Y-96636001D02*
X169561002Y-99400000D01*
X169800604Y-92749981D02*
X172325001Y-95274378D01*
X168749980Y-92749980D02*
X169800604Y-92749981D01*
X164095000Y-88095000D02*
X168749980Y-92749980D01*
X172325001Y-95274378D02*
X172325001Y-96636001D01*
X159475000Y-88095000D02*
X164095000Y-88095000D01*
X155649990Y-102966758D02*
X156683232Y-104000000D01*
X155649990Y-99135010D02*
X155649990Y-102966758D01*
X155975000Y-98810000D02*
X155649990Y-99135010D01*
X156950000Y-98810000D02*
X155975000Y-98810000D01*
X156683232Y-104000000D02*
X158000000Y-104000000D01*
X137825000Y-103825000D02*
X137825000Y-103000000D01*
X139500000Y-105500000D02*
X137825000Y-103825000D01*
X150350000Y-101350000D02*
X150000000Y-101000000D01*
X152000000Y-101350000D02*
X150350000Y-101350000D01*
X140000000Y-95500000D02*
X139500000Y-96000000D01*
X140000000Y-93000000D02*
X140000000Y-95500000D01*
X166500000Y-94000000D02*
X166680000Y-94000000D01*
X164500000Y-96000000D02*
X166500000Y-94000000D01*
X150080000Y-100080000D02*
X150000000Y-100000000D01*
X152000000Y-100080000D02*
X150080000Y-100080000D01*
X166975010Y-93199990D02*
X166175000Y-94000000D01*
X169614203Y-93199990D02*
X166975010Y-93199990D01*
X171000000Y-94585787D02*
X169614203Y-93199990D01*
X171000000Y-96000000D02*
X171000000Y-94585787D01*
X171000000Y-105500000D02*
X171320000Y-105180000D01*
X171000000Y-103825000D02*
X170175000Y-103000000D01*
X171000000Y-105500000D02*
X171000000Y-103825000D01*
X158412999Y-93728239D02*
X158412999Y-99592001D01*
X158978239Y-93162999D02*
X158412999Y-93728239D01*
X160021761Y-93162999D02*
X158978239Y-93162999D01*
X157925000Y-100080000D02*
X156950000Y-100080000D01*
X160587001Y-93728239D02*
X160021761Y-93162999D01*
X160587001Y-93989589D02*
X160587001Y-93728239D01*
X164097412Y-97500000D02*
X160587001Y-93989589D01*
X165288590Y-97500000D02*
X164097412Y-97500000D01*
X169597412Y-101808822D02*
X165288590Y-97500000D01*
X169597412Y-103000000D02*
X169597412Y-101808822D01*
X158412999Y-99592001D02*
X157925000Y-100080000D01*
X170175000Y-103000000D02*
X169597412Y-103000000D01*
X155625000Y-110095000D02*
X156650000Y-110095000D01*
X146000000Y-100470000D02*
X155625000Y-110095000D01*
X146000000Y-99141238D02*
X146000000Y-100470000D01*
X143420619Y-98070619D02*
X144929381Y-98070619D01*
X142000000Y-96650000D02*
X143420619Y-98070619D01*
X144929381Y-98070619D02*
X146000000Y-99141238D01*
X144430000Y-96680000D02*
X144500000Y-96750000D01*
X143750000Y-96750000D02*
X144500000Y-96750000D01*
X142000000Y-95000000D02*
X143750000Y-96750000D01*
X144304237Y-110662999D02*
X142000000Y-108358762D01*
X144695763Y-110662999D02*
X144304237Y-110662999D01*
X145888772Y-109469990D02*
X144695763Y-110662999D01*
X148421758Y-109469990D02*
X145888772Y-109469990D01*
X151586768Y-112635000D02*
X148421758Y-109469990D01*
X156650000Y-112635000D02*
X151586768Y-112635000D01*
X142000000Y-102650000D02*
X142000000Y-107000000D01*
X142000000Y-107000000D02*
X142000000Y-106000000D01*
X142000000Y-108358762D02*
X142000000Y-107000000D01*
X144430000Y-101680000D02*
X144500000Y-101750000D01*
X142750000Y-101750000D02*
X142000000Y-101000000D01*
X144500000Y-101750000D02*
X142750000Y-101750000D01*
X155625000Y-108825000D02*
X146450010Y-99650010D01*
X156650000Y-108825000D02*
X155625000Y-108825000D01*
X145587001Y-97271761D02*
X145587001Y-96261003D01*
X146450010Y-98134770D02*
X145587001Y-97271761D01*
X146450010Y-99650010D02*
X146450010Y-98134770D01*
X143937001Y-95587001D02*
X144912999Y-95587001D01*
X142000000Y-93650000D02*
X143937001Y-95587001D01*
X145587001Y-96261003D02*
X144912999Y-95587001D01*
X144250000Y-94000000D02*
X144500000Y-94250000D01*
X144250000Y-94250000D02*
X144500000Y-94250000D01*
X142000000Y-92000000D02*
X144250000Y-94250000D01*
X145021761Y-102837001D02*
X145587001Y-102271761D01*
X144304237Y-102837001D02*
X145021761Y-102837001D01*
X143412999Y-103728239D02*
X144304237Y-102837001D01*
X145587001Y-102271761D02*
X145587001Y-101228239D01*
X143978239Y-107837001D02*
X143412999Y-107271761D01*
X145038772Y-108180010D02*
X144695763Y-107837001D01*
X149671778Y-108180010D02*
X145038772Y-108180010D01*
X143412999Y-107271761D02*
X143412999Y-103728239D01*
X144695763Y-107837001D02*
X143978239Y-107837001D01*
X152856768Y-111365000D02*
X149671778Y-108180010D01*
X156650000Y-111365000D02*
X152856768Y-111365000D01*
X143006401Y-100656401D02*
X145015163Y-100656401D01*
X142000000Y-99650000D02*
X143006401Y-100656401D01*
X145179381Y-100820619D02*
X145021761Y-100662999D01*
X145015163Y-100656401D02*
X145179381Y-100820619D01*
X145587001Y-101228239D02*
X145179381Y-100820619D01*
X142850000Y-99250000D02*
X144500000Y-99250000D01*
X142000000Y-98400000D02*
X142850000Y-99250000D01*
X142000000Y-98000000D02*
X142000000Y-98400000D01*
X159750000Y-107000000D02*
X159500000Y-106750000D01*
X159575000Y-106825000D02*
X159500000Y-106750000D01*
X162000000Y-106825000D02*
X159575000Y-106825000D01*
X154849980Y-115950020D02*
X155625000Y-115175000D01*
X155578242Y-119610010D02*
X154849980Y-118881748D01*
X155625000Y-115175000D02*
X156650000Y-115175000D01*
X157721758Y-119610010D02*
X155578242Y-119610010D01*
X166000000Y-111331768D02*
X157721758Y-119610010D01*
X166000000Y-109538998D02*
X166000000Y-111331768D01*
X154849980Y-118881748D02*
X154849980Y-115950020D01*
X164961002Y-108500000D02*
X166000000Y-109538998D01*
X164892478Y-108500000D02*
X164961002Y-108500000D01*
X162000000Y-105607522D02*
X164892478Y-108500000D01*
X162000000Y-105175000D02*
X162000000Y-105607522D01*
X159750000Y-112000000D02*
X159500000Y-111750000D01*
X160261999Y-112511999D02*
X161686999Y-112511999D01*
X161686999Y-112511999D02*
X162000000Y-112825000D01*
X159500000Y-111750000D02*
X160261999Y-112511999D01*
X157675000Y-117715000D02*
X156650000Y-117715000D01*
X158000000Y-117390000D02*
X157675000Y-117715000D01*
X158000000Y-111641238D02*
X158000000Y-117390000D01*
X158978239Y-110662999D02*
X158000000Y-111641238D01*
X161887999Y-110662999D02*
X158978239Y-110662999D01*
X162000000Y-110775000D02*
X161887999Y-110662999D01*
X162000000Y-111175000D02*
X162000000Y-110775000D01*
X159750000Y-104000000D02*
X159500000Y-104250000D01*
X161575000Y-102175000D02*
X159500000Y-104250000D01*
X162000000Y-102175000D02*
X161575000Y-102175000D01*
X157908159Y-120060019D02*
X166450010Y-111518168D01*
X155391842Y-120060020D02*
X157908159Y-120060019D01*
X154399971Y-115130029D02*
X154399971Y-119068149D01*
X155625000Y-113905000D02*
X154399971Y-115130029D01*
X154399971Y-119068149D02*
X155391842Y-120060020D01*
X156650000Y-113905000D02*
X155625000Y-113905000D01*
X166450010Y-111518168D02*
X166450009Y-109352597D01*
X162800010Y-104625010D02*
X162000000Y-103825000D01*
X162800010Y-105702598D02*
X162800010Y-104625010D01*
X166450009Y-109352597D02*
X162800010Y-105702598D01*
X159570000Y-109320000D02*
X159500000Y-109250000D01*
X160075000Y-109825000D02*
X159500000Y-109250000D01*
X162000000Y-109825000D02*
X160075000Y-109825000D01*
X155578242Y-118340010D02*
X157721758Y-118340010D01*
X155299990Y-118061758D02*
X155578242Y-118340010D01*
X155299990Y-116770010D02*
X155299990Y-118061758D01*
X155625000Y-116445000D02*
X155299990Y-116770010D01*
X156650000Y-116445000D02*
X155625000Y-116445000D01*
X162800010Y-113261758D02*
X162530884Y-113530884D01*
X162800010Y-108975010D02*
X162800010Y-113261758D01*
X162000000Y-108175000D02*
X162800010Y-108975010D01*
X157721758Y-118340010D02*
X162530884Y-113530884D01*
X156680000Y-96000000D02*
X156950000Y-96270000D01*
X155000000Y-96000000D02*
X156680000Y-96000000D01*
X156095000Y-107000000D02*
X156650000Y-107555000D01*
X155000000Y-107000000D02*
X156095000Y-107000000D01*
X156410000Y-97000000D02*
X156950000Y-97540000D01*
X155000000Y-97000000D02*
X156410000Y-97000000D01*
X156365000Y-106000000D02*
X156650000Y-106285000D01*
X155000000Y-106000000D02*
X156365000Y-106000000D01*
X153000000Y-103620000D02*
X152000000Y-102620000D01*
X153000000Y-104000000D02*
X153000000Y-103620000D01*
X151810000Y-99000000D02*
X152000000Y-98810000D01*
X150000000Y-99000000D02*
X151810000Y-99000000D01*
X149135000Y-90635000D02*
X145000000Y-86500000D01*
X154525000Y-90635000D02*
X149135000Y-90635000D01*
X162365000Y-90635000D02*
X163000000Y-90000000D01*
X159475000Y-90635000D02*
X162365000Y-90635000D01*
X162995000Y-91905000D02*
X163000000Y-91900000D01*
X159475000Y-91905000D02*
X162995000Y-91905000D01*
X166900019Y-111704567D02*
X166900019Y-105939017D01*
X158094560Y-120510028D02*
X166900019Y-111704567D01*
X145999990Y-115500010D02*
X145999990Y-119331758D01*
X146325000Y-115175000D02*
X145999990Y-115500010D01*
X147178261Y-120510029D02*
X158094560Y-120510028D01*
X145999990Y-119331758D02*
X147178261Y-120510029D01*
X147350000Y-115175000D02*
X146325000Y-115175000D01*
X164980501Y-103938023D02*
X164980501Y-104019499D01*
X162030479Y-100988001D02*
X164980501Y-103938023D01*
X160261999Y-100988001D02*
X162030479Y-100988001D01*
X159500000Y-101750000D02*
X160261999Y-100988001D01*
X164980501Y-104019499D02*
X164961002Y-104000000D01*
X166900019Y-105939017D02*
X164980501Y-104019499D01*
X167350028Y-112498914D02*
X167350028Y-105752616D01*
X158888904Y-120960038D02*
X167350028Y-112498914D01*
X146991862Y-120960038D02*
X158888904Y-120960038D01*
X145549981Y-119518159D02*
X146991862Y-120960038D01*
X145549981Y-114680019D02*
X145549981Y-119518159D01*
X146325000Y-113905000D02*
X145549981Y-114680019D01*
X147350000Y-113905000D02*
X146325000Y-113905000D01*
X160928888Y-99250000D02*
X159500000Y-99250000D01*
X165430510Y-103751622D02*
X160928888Y-99250000D01*
X165430511Y-103833099D02*
X165430510Y-103751622D01*
X167350028Y-105752616D02*
X165430511Y-103833099D01*
X159500000Y-97461002D02*
X159500000Y-96750000D01*
X164813600Y-98450010D02*
X161200010Y-98450010D01*
X167800038Y-112685314D02*
X167800037Y-101436447D01*
X159075305Y-121410047D02*
X167800038Y-112685314D01*
X146805459Y-121410047D02*
X159075305Y-121410047D01*
X161200010Y-98450010D02*
X159500000Y-96750000D01*
X145099971Y-119704559D02*
X146805459Y-121410047D01*
X145099971Y-113860029D02*
X145099971Y-119704559D01*
X146325000Y-112635000D02*
X145099971Y-113860029D01*
X167800037Y-101436447D02*
X164813600Y-98450010D01*
X147350000Y-112635000D02*
X146325000Y-112635000D01*
X160211002Y-94250000D02*
X159500000Y-94250000D01*
X146493762Y-111365000D02*
X147350000Y-111365000D01*
X144649962Y-113208800D02*
X146493762Y-111365000D01*
X144649962Y-119890960D02*
X144649962Y-113208800D01*
X159261706Y-121860056D02*
X146619059Y-121860057D01*
X168250047Y-101250047D02*
X168250047Y-112871713D01*
X165000000Y-98000000D02*
X168250047Y-101250047D01*
X168250047Y-112871713D02*
X159261706Y-121860056D01*
X163250000Y-98000000D02*
X165000000Y-98000000D01*
X146619059Y-121860057D02*
X144649962Y-119890960D01*
X159500000Y-94250000D02*
X163250000Y-98000000D01*
X146155000Y-110095000D02*
X144500000Y-111750000D01*
X147350000Y-110095000D02*
X146155000Y-110095000D01*
X144925000Y-108825000D02*
X144500000Y-109250000D01*
X147350000Y-108825000D02*
X144925000Y-108825000D01*
X145305000Y-107555000D02*
X144500000Y-106750000D01*
X147350000Y-107555000D02*
X145305000Y-107555000D01*
X144535000Y-104285000D02*
X144500000Y-104250000D01*
X144500000Y-104460000D02*
X144500000Y-104250000D01*
X146325000Y-106285000D02*
X144500000Y-104460000D01*
X147350000Y-106285000D02*
X146325000Y-106285000D01*
X157650000Y-101350000D02*
X158500000Y-100500000D01*
X156950000Y-101350000D02*
X157650000Y-101350000D01*
X158120000Y-102620000D02*
X158500000Y-103000000D01*
X156950000Y-102620000D02*
X158120000Y-102620000D01*
X154901768Y-88095000D02*
X154525000Y-88095000D01*
X156275020Y-89468252D02*
X154901768Y-88095000D01*
X156275020Y-93641748D02*
X156275020Y-89468252D01*
X152376768Y-97540000D02*
X156275020Y-93641748D01*
X152000000Y-97540000D02*
X152376768Y-97540000D01*
X154901768Y-89365000D02*
X154525000Y-89365000D01*
X155825010Y-90288242D02*
X154901768Y-89365000D01*
X155825010Y-93419990D02*
X155825010Y-90288242D01*
X152975000Y-96270000D02*
X155825010Y-93419990D01*
X152000000Y-96270000D02*
X152975000Y-96270000D01*
X146800000Y-91800000D02*
X143000000Y-88000000D01*
X146800000Y-94100000D02*
X146800000Y-91800000D01*
X147290002Y-96000000D02*
X146800000Y-96000000D01*
X147694989Y-95595013D02*
X147290002Y-96000000D01*
X147694989Y-94214989D02*
X147694989Y-95595013D01*
X147580000Y-94100000D02*
X147694989Y-94214989D01*
X146800000Y-94100000D02*
X147580000Y-94100000D01*
X142540000Y-88000000D02*
X141000000Y-86460000D01*
X143000000Y-88000000D02*
X142540000Y-88000000D01*
X151100000Y-94100000D02*
X152000000Y-95000000D01*
X149000000Y-94100000D02*
X151100000Y-94100000D01*
X134325001Y-101825001D02*
X133000000Y-100500000D01*
X134325001Y-108674999D02*
X134325001Y-101825001D01*
X133000000Y-110000000D02*
X134325001Y-108674999D01*
X157076768Y-105015000D02*
X156650000Y-105015000D01*
X158000010Y-105938242D02*
X157076768Y-105015000D01*
X158000010Y-110441758D02*
X158000010Y-105938242D01*
X157721758Y-110720010D02*
X158000010Y-110441758D01*
X155578242Y-110720010D02*
X157721758Y-110720010D01*
X149873232Y-105015000D02*
X155578242Y-110720010D01*
X147350000Y-105015000D02*
X149873232Y-105015000D01*
X152748232Y-105015000D02*
X147000000Y-99266768D01*
X156650000Y-105015000D02*
X152748232Y-105015000D01*
X148144999Y-94955001D02*
X149000000Y-94100000D01*
X148144999Y-96855001D02*
X148144999Y-94955001D01*
X147000000Y-98000000D02*
X148144999Y-96855001D01*
X134325001Y-99174999D02*
X133000000Y-100500000D01*
X134325001Y-93800001D02*
X134325001Y-99174999D01*
X132525000Y-92000000D02*
X134325001Y-93800001D01*
X152000000Y-94430000D02*
X154525000Y-91905000D01*
X152000000Y-95000000D02*
X152000000Y-94430000D01*
X148000000Y-99000000D02*
X147000000Y-99000000D01*
X147000000Y-99000000D02*
X147000000Y-98000000D01*
X147000000Y-99266768D02*
X147000000Y-99000000D01*
X161635000Y-89365000D02*
X162000000Y-89000000D01*
X159475000Y-89365000D02*
X161635000Y-89365000D01*
M02*
