G04 #@! TF.GenerationSoftware,KiCad,Pcbnew,5.1.10*
G04 #@! TF.CreationDate,2021-12-21T05:37:38-06:00*
G04 #@! TF.ProjectId,notawatch,6e6f7461-7761-4746-9368-2e6b69636164,rev?*
G04 #@! TF.SameCoordinates,Original*
G04 #@! TF.FileFunction,Legend,Top*
G04 #@! TF.FilePolarity,Positive*
%FSLAX46Y46*%
G04 Gerber Fmt 4.6, Leading zero omitted, Abs format (unit mm)*
G04 Created by KiCad (PCBNEW 5.1.10) date 2021-12-21 05:37:38*
%MOMM*%
%LPD*%
G01*
G04 APERTURE LIST*
%ADD10C,0.120000*%
%ADD11C,0.150000*%
%ADD12C,0.100000*%
%ADD13O,1.350000X1.350000*%
%ADD14R,1.350000X1.350000*%
%ADD15C,1.000000*%
%ADD16C,1.524000*%
%ADD17C,2.000000*%
%ADD18R,1.060000X0.650000*%
%ADD19R,1.700000X1.700000*%
%ADD20O,1.700000X1.700000*%
G04 APERTURE END LIST*
D10*
X133288748Y-92910000D02*
X134711252Y-92910000D01*
X133288748Y-91090000D02*
X134711252Y-91090000D01*
X141000000Y-121000000D02*
X140000000Y-121000000D01*
X141000000Y-120000000D02*
X141000000Y-121000000D01*
X139117886Y-113690000D02*
X138560000Y-113690000D01*
X139117886Y-114310000D02*
X138560000Y-114310000D01*
X132740000Y-113690000D02*
X136940000Y-113690000D01*
X132740000Y-114310000D02*
X132740000Y-113690000D01*
X136940000Y-114310000D02*
X132740000Y-114310000D01*
X138560000Y-115000000D02*
X136940000Y-115000000D01*
X139117886Y-115690000D02*
X138560000Y-115690000D01*
X139117886Y-116310000D02*
X138560000Y-116310000D01*
X132740000Y-115690000D02*
X136940000Y-115690000D01*
X132740000Y-116310000D02*
X132740000Y-115690000D01*
X136940000Y-116310000D02*
X132740000Y-116310000D01*
X138560000Y-117000000D02*
X136940000Y-117000000D01*
X139117886Y-117690000D02*
X138560000Y-117690000D01*
X139117886Y-118310000D02*
X138560000Y-118310000D01*
X132740000Y-117690000D02*
X136940000Y-117690000D01*
X132740000Y-118310000D02*
X132740000Y-117690000D01*
X136940000Y-118310000D02*
X132740000Y-118310000D01*
X138560000Y-119000000D02*
X136940000Y-119000000D01*
X139065000Y-119690000D02*
X138560000Y-119690000D01*
X139065000Y-120310000D02*
X138560000Y-120310000D01*
X136940000Y-119770000D02*
X132740000Y-119770000D01*
X136940000Y-119890000D02*
X132740000Y-119890000D01*
X136940000Y-120010000D02*
X132740000Y-120010000D01*
X136940000Y-120130000D02*
X132740000Y-120130000D01*
X136940000Y-120250000D02*
X132740000Y-120250000D01*
X132740000Y-119690000D02*
X136940000Y-119690000D01*
X132740000Y-120310000D02*
X132740000Y-119690000D01*
X136940000Y-120310000D02*
X132740000Y-120310000D01*
X136940000Y-121060000D02*
X138560000Y-121060000D01*
X136940000Y-112940000D02*
X136940000Y-121060000D01*
X138560000Y-112940000D02*
X136940000Y-112940000D01*
X138560000Y-121060000D02*
X138560000Y-112940000D01*
X154475000Y-94375000D02*
X151025000Y-94375000D01*
X154475000Y-94375000D02*
X156425000Y-94375000D01*
X154475000Y-103245000D02*
X152525000Y-103245000D01*
X154475000Y-103245000D02*
X156425000Y-103245000D01*
X163732863Y-89999783D02*
G75*
G02*
X163733144Y-91900000I-732863J-950217D01*
G01*
X162267137Y-89999783D02*
G75*
G03*
X162266856Y-91900000I732863J-950217D01*
G01*
X142000000Y-113000000D02*
X162000000Y-113000000D01*
X162000000Y-113000000D02*
X162000000Y-93000000D01*
X162000000Y-93000000D02*
X142000000Y-93000000D01*
X142000000Y-93000000D02*
X142000000Y-113000000D01*
X148140000Y-104455000D02*
X146325000Y-104455000D01*
X148140000Y-104190000D02*
X148140000Y-104455000D01*
X152000000Y-104190000D02*
X148140000Y-104190000D01*
X155860000Y-104190000D02*
X155860000Y-104455000D01*
X152000000Y-104190000D02*
X155860000Y-104190000D01*
X148140000Y-119810000D02*
X148140000Y-119545000D01*
X152000000Y-119810000D02*
X148140000Y-119810000D01*
X155860000Y-119810000D02*
X155860000Y-119545000D01*
X152000000Y-119810000D02*
X155860000Y-119810000D01*
X157000000Y-87440000D02*
X155050000Y-87440000D01*
X157000000Y-87440000D02*
X158950000Y-87440000D01*
X157000000Y-92560000D02*
X155050000Y-92560000D01*
X157000000Y-92560000D02*
X160450000Y-92560000D01*
X171250000Y-108500000D02*
X171250000Y-107000000D01*
X170000000Y-104500000D02*
X165500000Y-104500000D01*
X164250000Y-107000000D02*
X164250000Y-108500000D01*
X165500000Y-111000000D02*
X170000000Y-111000000D01*
X171250000Y-99000000D02*
X171250000Y-97500000D01*
X170000000Y-95000000D02*
X165500000Y-95000000D01*
X164250000Y-97500000D02*
X164250000Y-99000000D01*
X165500000Y-101500000D02*
X170000000Y-101500000D01*
X139750000Y-108500000D02*
X139750000Y-107000000D01*
X138500000Y-104500000D02*
X134000000Y-104500000D01*
X132750000Y-107000000D02*
X132750000Y-108500000D01*
X134000000Y-111000000D02*
X138500000Y-111000000D01*
X139750000Y-99000000D02*
X139750000Y-97500000D01*
X138500000Y-95000000D02*
X134000000Y-95000000D01*
X132750000Y-97500000D02*
X132750000Y-99000000D01*
X134000000Y-101500000D02*
X138500000Y-101500000D01*
X148800000Y-93440000D02*
X146350000Y-93440000D01*
X147000000Y-96660000D02*
X148800000Y-96660000D01*
X139560000Y-90330000D02*
X139560000Y-85130000D01*
X139560000Y-85130000D02*
X136900000Y-85130000D01*
X136900000Y-85130000D02*
X136900000Y-90330000D01*
X136900000Y-90330000D02*
X139560000Y-90330000D01*
X136900000Y-89380000D02*
X130900000Y-89380000D01*
X130900000Y-89380000D02*
X130900000Y-88620000D01*
X130900000Y-88620000D02*
X136900000Y-88620000D01*
X136900000Y-89320000D02*
X130900000Y-89320000D01*
X136900000Y-89200000D02*
X130900000Y-89200000D01*
X136900000Y-89080000D02*
X130900000Y-89080000D01*
X136900000Y-88960000D02*
X130900000Y-88960000D01*
X136900000Y-88840000D02*
X130900000Y-88840000D01*
X136900000Y-88720000D02*
X130900000Y-88720000D01*
X139890000Y-89380000D02*
X139560000Y-89380000D01*
X139890000Y-88620000D02*
X139560000Y-88620000D01*
X139560000Y-87730000D02*
X136900000Y-87730000D01*
X136900000Y-86840000D02*
X130900000Y-86840000D01*
X130900000Y-86840000D02*
X130900000Y-86080000D01*
X130900000Y-86080000D02*
X136900000Y-86080000D01*
X139957071Y-86840000D02*
X139560000Y-86840000D01*
X139957071Y-86080000D02*
X139560000Y-86080000D01*
X142270000Y-89000000D02*
X142270000Y-90270000D01*
X142270000Y-90270000D02*
X141000000Y-90270000D01*
X136762742Y-103522500D02*
X137237258Y-103522500D01*
X136762742Y-102477500D02*
X137237258Y-102477500D01*
X138937742Y-93522500D02*
X139412258Y-93522500D01*
X138937742Y-92477500D02*
X139412258Y-92477500D01*
X167237258Y-94522500D02*
X166762742Y-94522500D01*
X167237258Y-93477500D02*
X166762742Y-93477500D01*
X171237258Y-103522500D02*
X170762742Y-103522500D01*
X171237258Y-102477500D02*
X170762742Y-102477500D01*
X141477500Y-95587742D02*
X141477500Y-96062258D01*
X142522500Y-95587742D02*
X142522500Y-96062258D01*
X141477500Y-101587742D02*
X141477500Y-102062258D01*
X142522500Y-101587742D02*
X142522500Y-102062258D01*
X142522500Y-92587742D02*
X142522500Y-93062258D01*
X141477500Y-92587742D02*
X141477500Y-93062258D01*
X142522500Y-98587742D02*
X142522500Y-99062258D01*
X141477500Y-98587742D02*
X141477500Y-99062258D01*
X162522500Y-105762742D02*
X162522500Y-106237258D01*
X161477500Y-105762742D02*
X161477500Y-106237258D01*
X162522500Y-111762742D02*
X162522500Y-112237258D01*
X161477500Y-111762742D02*
X161477500Y-112237258D01*
X162522500Y-103237258D02*
X162522500Y-102762742D01*
X161477500Y-103237258D02*
X161477500Y-102762742D01*
X161477500Y-108762742D02*
X161477500Y-109237258D01*
X162522500Y-108762742D02*
X162522500Y-109237258D01*
D11*
X147119047Y-95178571D02*
X147261904Y-95226190D01*
X147309523Y-95273809D01*
X147357142Y-95369047D01*
X147357142Y-95511904D01*
X147309523Y-95607142D01*
X147261904Y-95654761D01*
X147166666Y-95702380D01*
X146785714Y-95702380D01*
X146785714Y-94702380D01*
X147119047Y-94702380D01*
X147214285Y-94750000D01*
X147261904Y-94797619D01*
X147309523Y-94892857D01*
X147309523Y-94988095D01*
X147261904Y-95083333D01*
X147214285Y-95130952D01*
X147119047Y-95178571D01*
X146785714Y-95178571D01*
X147690476Y-94702380D02*
X148357142Y-94702380D01*
X147690476Y-95702380D01*
X148357142Y-95702380D01*
X149261904Y-95702380D02*
X148690476Y-95702380D01*
X148976190Y-95702380D02*
X148976190Y-94702380D01*
X148880952Y-94845238D01*
X148785714Y-94940476D01*
X148690476Y-94988095D01*
X133833333Y-90507142D02*
X133785714Y-90554761D01*
X133642857Y-90602380D01*
X133547619Y-90602380D01*
X133404761Y-90554761D01*
X133309523Y-90459523D01*
X133261904Y-90364285D01*
X133214285Y-90173809D01*
X133214285Y-90030952D01*
X133261904Y-89840476D01*
X133309523Y-89745238D01*
X133404761Y-89650000D01*
X133547619Y-89602380D01*
X133642857Y-89602380D01*
X133785714Y-89650000D01*
X133833333Y-89697619D01*
X134785714Y-90602380D02*
X134214285Y-90602380D01*
X134500000Y-90602380D02*
X134500000Y-89602380D01*
X134404761Y-89745238D01*
X134309523Y-89840476D01*
X134214285Y-89888095D01*
X153713095Y-92982380D02*
X153713095Y-93791904D01*
X153760714Y-93887142D01*
X153808333Y-93934761D01*
X153903571Y-93982380D01*
X154094047Y-93982380D01*
X154189285Y-93934761D01*
X154236904Y-93887142D01*
X154284523Y-93791904D01*
X154284523Y-92982380D01*
X155284523Y-93982380D02*
X154713095Y-93982380D01*
X154998809Y-93982380D02*
X154998809Y-92982380D01*
X154903571Y-93125238D01*
X154808333Y-93220476D01*
X154713095Y-93268095D01*
X160776190Y-91426190D02*
X161252380Y-91426190D01*
X160252380Y-91759523D02*
X160776190Y-91426190D01*
X160252380Y-91092857D01*
X161252380Y-90235714D02*
X161252380Y-90807142D01*
X161252380Y-90521428D02*
X160252380Y-90521428D01*
X160395238Y-90616666D01*
X160490476Y-90711904D01*
X160538095Y-90807142D01*
X151238095Y-115202380D02*
X151238095Y-116011904D01*
X151285714Y-116107142D01*
X151333333Y-116154761D01*
X151428571Y-116202380D01*
X151619047Y-116202380D01*
X151714285Y-116154761D01*
X151761904Y-116107142D01*
X151809523Y-116011904D01*
X151809523Y-115202380D01*
X152714285Y-115535714D02*
X152714285Y-116202380D01*
X152476190Y-115154761D02*
X152238095Y-115869047D01*
X152857142Y-115869047D01*
X151238095Y-102802380D02*
X151238095Y-103611904D01*
X151285714Y-103707142D01*
X151333333Y-103754761D01*
X151428571Y-103802380D01*
X151619047Y-103802380D01*
X151714285Y-103754761D01*
X151761904Y-103707142D01*
X151809523Y-103611904D01*
X151809523Y-102802380D01*
X152190476Y-102802380D02*
X152809523Y-102802380D01*
X152476190Y-103183333D01*
X152619047Y-103183333D01*
X152714285Y-103230952D01*
X152761904Y-103278571D01*
X152809523Y-103373809D01*
X152809523Y-103611904D01*
X152761904Y-103707142D01*
X152714285Y-103754761D01*
X152619047Y-103802380D01*
X152333333Y-103802380D01*
X152238095Y-103754761D01*
X152190476Y-103707142D01*
X156238095Y-92852380D02*
X156238095Y-93661904D01*
X156285714Y-93757142D01*
X156333333Y-93804761D01*
X156428571Y-93852380D01*
X156619047Y-93852380D01*
X156714285Y-93804761D01*
X156761904Y-93757142D01*
X156809523Y-93661904D01*
X156809523Y-92852380D01*
X157238095Y-92947619D02*
X157285714Y-92900000D01*
X157380952Y-92852380D01*
X157619047Y-92852380D01*
X157714285Y-92900000D01*
X157761904Y-92947619D01*
X157809523Y-93042857D01*
X157809523Y-93138095D01*
X157761904Y-93280952D01*
X157190476Y-93852380D01*
X157809523Y-93852380D01*
X166416666Y-103904761D02*
X166559523Y-103952380D01*
X166797619Y-103952380D01*
X166892857Y-103904761D01*
X166940476Y-103857142D01*
X166988095Y-103761904D01*
X166988095Y-103666666D01*
X166940476Y-103571428D01*
X166892857Y-103523809D01*
X166797619Y-103476190D01*
X166607142Y-103428571D01*
X166511904Y-103380952D01*
X166464285Y-103333333D01*
X166416666Y-103238095D01*
X166416666Y-103142857D01*
X166464285Y-103047619D01*
X166511904Y-103000000D01*
X166607142Y-102952380D01*
X166845238Y-102952380D01*
X166988095Y-103000000D01*
X167321428Y-102952380D02*
X167559523Y-103952380D01*
X167750000Y-103238095D01*
X167940476Y-103952380D01*
X168178571Y-102952380D01*
X168988095Y-103285714D02*
X168988095Y-103952380D01*
X168750000Y-102904761D02*
X168511904Y-103619047D01*
X169130952Y-103619047D01*
X166416666Y-94404761D02*
X166559523Y-94452380D01*
X166797619Y-94452380D01*
X166892857Y-94404761D01*
X166940476Y-94357142D01*
X166988095Y-94261904D01*
X166988095Y-94166666D01*
X166940476Y-94071428D01*
X166892857Y-94023809D01*
X166797619Y-93976190D01*
X166607142Y-93928571D01*
X166511904Y-93880952D01*
X166464285Y-93833333D01*
X166416666Y-93738095D01*
X166416666Y-93642857D01*
X166464285Y-93547619D01*
X166511904Y-93500000D01*
X166607142Y-93452380D01*
X166845238Y-93452380D01*
X166988095Y-93500000D01*
X167321428Y-93452380D02*
X167559523Y-94452380D01*
X167750000Y-93738095D01*
X167940476Y-94452380D01*
X168178571Y-93452380D01*
X168464285Y-93452380D02*
X169083333Y-93452380D01*
X168750000Y-93833333D01*
X168892857Y-93833333D01*
X168988095Y-93880952D01*
X169035714Y-93928571D01*
X169083333Y-94023809D01*
X169083333Y-94261904D01*
X169035714Y-94357142D01*
X168988095Y-94404761D01*
X168892857Y-94452380D01*
X168607142Y-94452380D01*
X168511904Y-94404761D01*
X168464285Y-94357142D01*
X134916666Y-103904761D02*
X135059523Y-103952380D01*
X135297619Y-103952380D01*
X135392857Y-103904761D01*
X135440476Y-103857142D01*
X135488095Y-103761904D01*
X135488095Y-103666666D01*
X135440476Y-103571428D01*
X135392857Y-103523809D01*
X135297619Y-103476190D01*
X135107142Y-103428571D01*
X135011904Y-103380952D01*
X134964285Y-103333333D01*
X134916666Y-103238095D01*
X134916666Y-103142857D01*
X134964285Y-103047619D01*
X135011904Y-103000000D01*
X135107142Y-102952380D01*
X135345238Y-102952380D01*
X135488095Y-103000000D01*
X135821428Y-102952380D02*
X136059523Y-103952380D01*
X136250000Y-103238095D01*
X136440476Y-103952380D01*
X136678571Y-102952380D01*
X137011904Y-103047619D02*
X137059523Y-103000000D01*
X137154761Y-102952380D01*
X137392857Y-102952380D01*
X137488095Y-103000000D01*
X137535714Y-103047619D01*
X137583333Y-103142857D01*
X137583333Y-103238095D01*
X137535714Y-103380952D01*
X136964285Y-103952380D01*
X137583333Y-103952380D01*
X134916666Y-94404761D02*
X135059523Y-94452380D01*
X135297619Y-94452380D01*
X135392857Y-94404761D01*
X135440476Y-94357142D01*
X135488095Y-94261904D01*
X135488095Y-94166666D01*
X135440476Y-94071428D01*
X135392857Y-94023809D01*
X135297619Y-93976190D01*
X135107142Y-93928571D01*
X135011904Y-93880952D01*
X134964285Y-93833333D01*
X134916666Y-93738095D01*
X134916666Y-93642857D01*
X134964285Y-93547619D01*
X135011904Y-93500000D01*
X135107142Y-93452380D01*
X135345238Y-93452380D01*
X135488095Y-93500000D01*
X135821428Y-93452380D02*
X136059523Y-94452380D01*
X136250000Y-93738095D01*
X136440476Y-94452380D01*
X136678571Y-93452380D01*
X137583333Y-94452380D02*
X137011904Y-94452380D01*
X137297619Y-94452380D02*
X137297619Y-93452380D01*
X137202380Y-93595238D01*
X137107142Y-93690476D01*
X137011904Y-93738095D01*
X147138095Y-91602380D02*
X147138095Y-92411904D01*
X147185714Y-92507142D01*
X147233333Y-92554761D01*
X147328571Y-92602380D01*
X147519047Y-92602380D01*
X147614285Y-92554761D01*
X147661904Y-92507142D01*
X147709523Y-92411904D01*
X147709523Y-91602380D01*
X148661904Y-91602380D02*
X148185714Y-91602380D01*
X148138095Y-92078571D01*
X148185714Y-92030952D01*
X148280952Y-91983333D01*
X148519047Y-91983333D01*
X148614285Y-92030952D01*
X148661904Y-92078571D01*
X148709523Y-92173809D01*
X148709523Y-92411904D01*
X148661904Y-92507142D01*
X148614285Y-92554761D01*
X148519047Y-92602380D01*
X148280952Y-92602380D01*
X148185714Y-92554761D01*
X148138095Y-92507142D01*
X135829285Y-91198571D02*
X135972142Y-91246190D01*
X136019761Y-91293809D01*
X136067380Y-91389047D01*
X136067380Y-91531904D01*
X136019761Y-91627142D01*
X135972142Y-91674761D01*
X135876904Y-91722380D01*
X135495952Y-91722380D01*
X135495952Y-90722380D01*
X135829285Y-90722380D01*
X135924523Y-90770000D01*
X135972142Y-90817619D01*
X136019761Y-90912857D01*
X136019761Y-91008095D01*
X135972142Y-91103333D01*
X135924523Y-91150952D01*
X135829285Y-91198571D01*
X135495952Y-91198571D01*
X136353095Y-90722380D02*
X136924523Y-90722380D01*
X136638809Y-91722380D02*
X136638809Y-90722380D01*
X137781666Y-91722380D02*
X137210238Y-91722380D01*
X137495952Y-91722380D02*
X137495952Y-90722380D01*
X137400714Y-90865238D01*
X137305476Y-90960476D01*
X137210238Y-91008095D01*
X136833333Y-102022380D02*
X136500000Y-101546190D01*
X136261904Y-102022380D02*
X136261904Y-101022380D01*
X136642857Y-101022380D01*
X136738095Y-101070000D01*
X136785714Y-101117619D01*
X136833333Y-101212857D01*
X136833333Y-101355714D01*
X136785714Y-101450952D01*
X136738095Y-101498571D01*
X136642857Y-101546190D01*
X136261904Y-101546190D01*
X137785714Y-102022380D02*
X137214285Y-102022380D01*
X137500000Y-102022380D02*
X137500000Y-101022380D01*
X137404761Y-101165238D01*
X137309523Y-101260476D01*
X137214285Y-101308095D01*
X139008333Y-92022380D02*
X138675000Y-91546190D01*
X138436904Y-92022380D02*
X138436904Y-91022380D01*
X138817857Y-91022380D01*
X138913095Y-91070000D01*
X138960714Y-91117619D01*
X139008333Y-91212857D01*
X139008333Y-91355714D01*
X138960714Y-91450952D01*
X138913095Y-91498571D01*
X138817857Y-91546190D01*
X138436904Y-91546190D01*
X139389285Y-91117619D02*
X139436904Y-91070000D01*
X139532142Y-91022380D01*
X139770238Y-91022380D01*
X139865476Y-91070000D01*
X139913095Y-91117619D01*
X139960714Y-91212857D01*
X139960714Y-91308095D01*
X139913095Y-91450952D01*
X139341666Y-92022380D01*
X139960714Y-92022380D01*
X166833333Y-95882380D02*
X166500000Y-95406190D01*
X166261904Y-95882380D02*
X166261904Y-94882380D01*
X166642857Y-94882380D01*
X166738095Y-94930000D01*
X166785714Y-94977619D01*
X166833333Y-95072857D01*
X166833333Y-95215714D01*
X166785714Y-95310952D01*
X166738095Y-95358571D01*
X166642857Y-95406190D01*
X166261904Y-95406190D01*
X167166666Y-94882380D02*
X167785714Y-94882380D01*
X167452380Y-95263333D01*
X167595238Y-95263333D01*
X167690476Y-95310952D01*
X167738095Y-95358571D01*
X167785714Y-95453809D01*
X167785714Y-95691904D01*
X167738095Y-95787142D01*
X167690476Y-95834761D01*
X167595238Y-95882380D01*
X167309523Y-95882380D01*
X167214285Y-95834761D01*
X167166666Y-95787142D01*
X170833333Y-104882380D02*
X170500000Y-104406190D01*
X170261904Y-104882380D02*
X170261904Y-103882380D01*
X170642857Y-103882380D01*
X170738095Y-103930000D01*
X170785714Y-103977619D01*
X170833333Y-104072857D01*
X170833333Y-104215714D01*
X170785714Y-104310952D01*
X170738095Y-104358571D01*
X170642857Y-104406190D01*
X170261904Y-104406190D01*
X171690476Y-104215714D02*
X171690476Y-104882380D01*
X171452380Y-103834761D02*
X171214285Y-104549047D01*
X171833333Y-104549047D01*
X143882380Y-95991666D02*
X143406190Y-96325000D01*
X143882380Y-96563095D02*
X142882380Y-96563095D01*
X142882380Y-96182142D01*
X142930000Y-96086904D01*
X142977619Y-96039285D01*
X143072857Y-95991666D01*
X143215714Y-95991666D01*
X143310952Y-96039285D01*
X143358571Y-96086904D01*
X143406190Y-96182142D01*
X143406190Y-96563095D01*
X142882380Y-95086904D02*
X142882380Y-95563095D01*
X143358571Y-95610714D01*
X143310952Y-95563095D01*
X143263333Y-95467857D01*
X143263333Y-95229761D01*
X143310952Y-95134523D01*
X143358571Y-95086904D01*
X143453809Y-95039285D01*
X143691904Y-95039285D01*
X143787142Y-95086904D01*
X143834761Y-95134523D01*
X143882380Y-95229761D01*
X143882380Y-95467857D01*
X143834761Y-95563095D01*
X143787142Y-95610714D01*
X143882380Y-101991666D02*
X143406190Y-102325000D01*
X143882380Y-102563095D02*
X142882380Y-102563095D01*
X142882380Y-102182142D01*
X142930000Y-102086904D01*
X142977619Y-102039285D01*
X143072857Y-101991666D01*
X143215714Y-101991666D01*
X143310952Y-102039285D01*
X143358571Y-102086904D01*
X143406190Y-102182142D01*
X143406190Y-102563095D01*
X142882380Y-101134523D02*
X142882380Y-101325000D01*
X142930000Y-101420238D01*
X142977619Y-101467857D01*
X143120476Y-101563095D01*
X143310952Y-101610714D01*
X143691904Y-101610714D01*
X143787142Y-101563095D01*
X143834761Y-101515476D01*
X143882380Y-101420238D01*
X143882380Y-101229761D01*
X143834761Y-101134523D01*
X143787142Y-101086904D01*
X143691904Y-101039285D01*
X143453809Y-101039285D01*
X143358571Y-101086904D01*
X143310952Y-101134523D01*
X143263333Y-101229761D01*
X143263333Y-101420238D01*
X143310952Y-101515476D01*
X143358571Y-101563095D01*
X143453809Y-101610714D01*
X143882380Y-92991666D02*
X143406190Y-93325000D01*
X143882380Y-93563095D02*
X142882380Y-93563095D01*
X142882380Y-93182142D01*
X142930000Y-93086904D01*
X142977619Y-93039285D01*
X143072857Y-92991666D01*
X143215714Y-92991666D01*
X143310952Y-93039285D01*
X143358571Y-93086904D01*
X143406190Y-93182142D01*
X143406190Y-93563095D01*
X142882380Y-92658333D02*
X142882380Y-91991666D01*
X143882380Y-92420238D01*
X143882380Y-98991666D02*
X143406190Y-99325000D01*
X143882380Y-99563095D02*
X142882380Y-99563095D01*
X142882380Y-99182142D01*
X142930000Y-99086904D01*
X142977619Y-99039285D01*
X143072857Y-98991666D01*
X143215714Y-98991666D01*
X143310952Y-99039285D01*
X143358571Y-99086904D01*
X143406190Y-99182142D01*
X143406190Y-99563095D01*
X143310952Y-98420238D02*
X143263333Y-98515476D01*
X143215714Y-98563095D01*
X143120476Y-98610714D01*
X143072857Y-98610714D01*
X142977619Y-98563095D01*
X142930000Y-98515476D01*
X142882380Y-98420238D01*
X142882380Y-98229761D01*
X142930000Y-98134523D01*
X142977619Y-98086904D01*
X143072857Y-98039285D01*
X143120476Y-98039285D01*
X143215714Y-98086904D01*
X143263333Y-98134523D01*
X143310952Y-98229761D01*
X143310952Y-98420238D01*
X143358571Y-98515476D01*
X143406190Y-98563095D01*
X143501428Y-98610714D01*
X143691904Y-98610714D01*
X143787142Y-98563095D01*
X143834761Y-98515476D01*
X143882380Y-98420238D01*
X143882380Y-98229761D01*
X143834761Y-98134523D01*
X143787142Y-98086904D01*
X143691904Y-98039285D01*
X143501428Y-98039285D01*
X143406190Y-98086904D01*
X143358571Y-98134523D01*
X143310952Y-98229761D01*
X163882380Y-106166666D02*
X163406190Y-106500000D01*
X163882380Y-106738095D02*
X162882380Y-106738095D01*
X162882380Y-106357142D01*
X162930000Y-106261904D01*
X162977619Y-106214285D01*
X163072857Y-106166666D01*
X163215714Y-106166666D01*
X163310952Y-106214285D01*
X163358571Y-106261904D01*
X163406190Y-106357142D01*
X163406190Y-106738095D01*
X163882380Y-105690476D02*
X163882380Y-105500000D01*
X163834761Y-105404761D01*
X163787142Y-105357142D01*
X163644285Y-105261904D01*
X163453809Y-105214285D01*
X163072857Y-105214285D01*
X162977619Y-105261904D01*
X162930000Y-105309523D01*
X162882380Y-105404761D01*
X162882380Y-105595238D01*
X162930000Y-105690476D01*
X162977619Y-105738095D01*
X163072857Y-105785714D01*
X163310952Y-105785714D01*
X163406190Y-105738095D01*
X163453809Y-105690476D01*
X163501428Y-105595238D01*
X163501428Y-105404761D01*
X163453809Y-105309523D01*
X163406190Y-105261904D01*
X163310952Y-105214285D01*
X163882380Y-112642857D02*
X163406190Y-112976190D01*
X163882380Y-113214285D02*
X162882380Y-113214285D01*
X162882380Y-112833333D01*
X162930000Y-112738095D01*
X162977619Y-112690476D01*
X163072857Y-112642857D01*
X163215714Y-112642857D01*
X163310952Y-112690476D01*
X163358571Y-112738095D01*
X163406190Y-112833333D01*
X163406190Y-113214285D01*
X163882380Y-111690476D02*
X163882380Y-112261904D01*
X163882380Y-111976190D02*
X162882380Y-111976190D01*
X163025238Y-112071428D01*
X163120476Y-112166666D01*
X163168095Y-112261904D01*
X162882380Y-111071428D02*
X162882380Y-110976190D01*
X162930000Y-110880952D01*
X162977619Y-110833333D01*
X163072857Y-110785714D01*
X163263333Y-110738095D01*
X163501428Y-110738095D01*
X163691904Y-110785714D01*
X163787142Y-110833333D01*
X163834761Y-110880952D01*
X163882380Y-110976190D01*
X163882380Y-111071428D01*
X163834761Y-111166666D01*
X163787142Y-111214285D01*
X163691904Y-111261904D01*
X163501428Y-111309523D01*
X163263333Y-111309523D01*
X163072857Y-111261904D01*
X162977619Y-111214285D01*
X162930000Y-111166666D01*
X162882380Y-111071428D01*
X161022380Y-103642857D02*
X160546190Y-103976190D01*
X161022380Y-104214285D02*
X160022380Y-104214285D01*
X160022380Y-103833333D01*
X160070000Y-103738095D01*
X160117619Y-103690476D01*
X160212857Y-103642857D01*
X160355714Y-103642857D01*
X160450952Y-103690476D01*
X160498571Y-103738095D01*
X160546190Y-103833333D01*
X160546190Y-104214285D01*
X161022380Y-102690476D02*
X161022380Y-103261904D01*
X161022380Y-102976190D02*
X160022380Y-102976190D01*
X160165238Y-103071428D01*
X160260476Y-103166666D01*
X160308095Y-103261904D01*
X161022380Y-101738095D02*
X161022380Y-102309523D01*
X161022380Y-102023809D02*
X160022380Y-102023809D01*
X160165238Y-102119047D01*
X160260476Y-102214285D01*
X160308095Y-102309523D01*
X163882380Y-109642857D02*
X163406190Y-109976190D01*
X163882380Y-110214285D02*
X162882380Y-110214285D01*
X162882380Y-109833333D01*
X162930000Y-109738095D01*
X162977619Y-109690476D01*
X163072857Y-109642857D01*
X163215714Y-109642857D01*
X163310952Y-109690476D01*
X163358571Y-109738095D01*
X163406190Y-109833333D01*
X163406190Y-110214285D01*
X163882380Y-108690476D02*
X163882380Y-109261904D01*
X163882380Y-108976190D02*
X162882380Y-108976190D01*
X163025238Y-109071428D01*
X163120476Y-109166666D01*
X163168095Y-109261904D01*
X162977619Y-108309523D02*
X162930000Y-108261904D01*
X162882380Y-108166666D01*
X162882380Y-107928571D01*
X162930000Y-107833333D01*
X162977619Y-107785714D01*
X163072857Y-107738095D01*
X163168095Y-107738095D01*
X163310952Y-107785714D01*
X163882380Y-108357142D01*
X163882380Y-107738095D01*
%LPC*%
D12*
G36*
X152689755Y-91350961D02*
G01*
X152699134Y-91353806D01*
X152707779Y-91358427D01*
X152715355Y-91364645D01*
X152721573Y-91372221D01*
X152726194Y-91380866D01*
X152729039Y-91390245D01*
X152730000Y-91400000D01*
X152730000Y-92550000D01*
X152729039Y-92559755D01*
X152726194Y-92569134D01*
X152721573Y-92577779D01*
X152715355Y-92585355D01*
X152707779Y-92591573D01*
X152699134Y-92596194D01*
X152689755Y-92599039D01*
X152680000Y-92600000D01*
X150900000Y-92600000D01*
X150890245Y-92599039D01*
X150880866Y-92596194D01*
X150872221Y-92591573D01*
X150864645Y-92585355D01*
X150858427Y-92577779D01*
X150853806Y-92569134D01*
X150850961Y-92559755D01*
X150850000Y-92550000D01*
X150850000Y-91400000D01*
X150850961Y-91390245D01*
X150853806Y-91380866D01*
X150858427Y-91372221D01*
X150864645Y-91364645D01*
X150872221Y-91358427D01*
X150880866Y-91353806D01*
X150890245Y-91350961D01*
X150900000Y-91350000D01*
X152680000Y-91350000D01*
X152689755Y-91350961D01*
G37*
G36*
X152689755Y-85400961D02*
G01*
X152699134Y-85403806D01*
X152707779Y-85408427D01*
X152715355Y-85414645D01*
X152721573Y-85422221D01*
X152726194Y-85430866D01*
X152729039Y-85440245D01*
X152730000Y-85450000D01*
X152730000Y-86600000D01*
X152729039Y-86609755D01*
X152726194Y-86619134D01*
X152721573Y-86627779D01*
X152715355Y-86635355D01*
X152707779Y-86641573D01*
X152699134Y-86646194D01*
X152689755Y-86649039D01*
X152680000Y-86650000D01*
X150900000Y-86650000D01*
X150890245Y-86649039D01*
X150880866Y-86646194D01*
X150872221Y-86641573D01*
X150864645Y-86635355D01*
X150858427Y-86627779D01*
X150853806Y-86619134D01*
X150850961Y-86609755D01*
X150850000Y-86600000D01*
X150850000Y-85450000D01*
X150850961Y-85440245D01*
X150853806Y-85430866D01*
X150858427Y-85422221D01*
X150864645Y-85414645D01*
X150872221Y-85408427D01*
X150880866Y-85403806D01*
X150890245Y-85400961D01*
X150900000Y-85400000D01*
X152680000Y-85400000D01*
X152689755Y-85400961D01*
G37*
G36*
X145109755Y-91350961D02*
G01*
X145119134Y-91353806D01*
X145127779Y-91358427D01*
X145135355Y-91364645D01*
X145141573Y-91372221D01*
X145146194Y-91380866D01*
X145149039Y-91390245D01*
X145150000Y-91400000D01*
X145150000Y-92550000D01*
X145149039Y-92559755D01*
X145146194Y-92569134D01*
X145141573Y-92577779D01*
X145135355Y-92585355D01*
X145127779Y-92591573D01*
X145119134Y-92596194D01*
X145109755Y-92599039D01*
X145100000Y-92600000D01*
X143320000Y-92600000D01*
X143310245Y-92599039D01*
X143300866Y-92596194D01*
X143292221Y-92591573D01*
X143284645Y-92585355D01*
X143278427Y-92577779D01*
X143273806Y-92569134D01*
X143270961Y-92559755D01*
X143270000Y-92550000D01*
X143270000Y-91400000D01*
X143270961Y-91390245D01*
X143273806Y-91380866D01*
X143278427Y-91372221D01*
X143284645Y-91364645D01*
X143292221Y-91358427D01*
X143300866Y-91353806D01*
X143310245Y-91350961D01*
X143320000Y-91350000D01*
X145100000Y-91350000D01*
X145109755Y-91350961D01*
G37*
G36*
X145109755Y-85400961D02*
G01*
X145119134Y-85403806D01*
X145127779Y-85408427D01*
X145135355Y-85414645D01*
X145141573Y-85422221D01*
X145146194Y-85430866D01*
X145149039Y-85440245D01*
X145150000Y-85450000D01*
X145150000Y-86600000D01*
X145149039Y-86609755D01*
X145146194Y-86619134D01*
X145141573Y-86627779D01*
X145135355Y-86635355D01*
X145127779Y-86641573D01*
X145119134Y-86646194D01*
X145109755Y-86649039D01*
X145100000Y-86650000D01*
X143320000Y-86650000D01*
X143310245Y-86649039D01*
X143300866Y-86646194D01*
X143292221Y-86641573D01*
X143284645Y-86635355D01*
X143278427Y-86627779D01*
X143273806Y-86619134D01*
X143270961Y-86609755D01*
X143270000Y-86600000D01*
X143270000Y-85450000D01*
X143270961Y-85440245D01*
X143273806Y-85430866D01*
X143278427Y-85422221D01*
X143284645Y-85414645D01*
X143292221Y-85408427D01*
X143300866Y-85403806D01*
X143310245Y-85400961D01*
X143320000Y-85400000D01*
X145100000Y-85400000D01*
X145109755Y-85400961D01*
G37*
G36*
G01*
X131950000Y-92650001D02*
X131950000Y-91349999D01*
G75*
G02*
X132199999Y-91100000I249999J0D01*
G01*
X132850001Y-91100000D01*
G75*
G02*
X133100000Y-91349999I0J-249999D01*
G01*
X133100000Y-92650001D01*
G75*
G02*
X132850001Y-92900000I-249999J0D01*
G01*
X132199999Y-92900000D01*
G75*
G02*
X131950000Y-92650001I0J249999D01*
G01*
G37*
G36*
G01*
X134900000Y-92650001D02*
X134900000Y-91349999D01*
G75*
G02*
X135149999Y-91100000I249999J0D01*
G01*
X135800001Y-91100000D01*
G75*
G02*
X136050000Y-91349999I0J-249999D01*
G01*
X136050000Y-92650001D01*
G75*
G02*
X135800001Y-92900000I-249999J0D01*
G01*
X135149999Y-92900000D01*
G75*
G02*
X134900000Y-92650001I0J249999D01*
G01*
G37*
D13*
X140000000Y-114000000D03*
X140000000Y-116000000D03*
X140000000Y-118000000D03*
D14*
X140000000Y-120000000D03*
G36*
G01*
X155975000Y-95150000D02*
X155975000Y-94850000D01*
G75*
G02*
X156125000Y-94700000I150000J0D01*
G01*
X157775000Y-94700000D01*
G75*
G02*
X157925000Y-94850000I0J-150000D01*
G01*
X157925000Y-95150000D01*
G75*
G02*
X157775000Y-95300000I-150000J0D01*
G01*
X156125000Y-95300000D01*
G75*
G02*
X155975000Y-95150000I0J150000D01*
G01*
G37*
G36*
G01*
X155975000Y-96420000D02*
X155975000Y-96120000D01*
G75*
G02*
X156125000Y-95970000I150000J0D01*
G01*
X157775000Y-95970000D01*
G75*
G02*
X157925000Y-96120000I0J-150000D01*
G01*
X157925000Y-96420000D01*
G75*
G02*
X157775000Y-96570000I-150000J0D01*
G01*
X156125000Y-96570000D01*
G75*
G02*
X155975000Y-96420000I0J150000D01*
G01*
G37*
G36*
G01*
X155975000Y-97690000D02*
X155975000Y-97390000D01*
G75*
G02*
X156125000Y-97240000I150000J0D01*
G01*
X157775000Y-97240000D01*
G75*
G02*
X157925000Y-97390000I0J-150000D01*
G01*
X157925000Y-97690000D01*
G75*
G02*
X157775000Y-97840000I-150000J0D01*
G01*
X156125000Y-97840000D01*
G75*
G02*
X155975000Y-97690000I0J150000D01*
G01*
G37*
G36*
G01*
X155975000Y-98960000D02*
X155975000Y-98660000D01*
G75*
G02*
X156125000Y-98510000I150000J0D01*
G01*
X157775000Y-98510000D01*
G75*
G02*
X157925000Y-98660000I0J-150000D01*
G01*
X157925000Y-98960000D01*
G75*
G02*
X157775000Y-99110000I-150000J0D01*
G01*
X156125000Y-99110000D01*
G75*
G02*
X155975000Y-98960000I0J150000D01*
G01*
G37*
G36*
G01*
X155975000Y-100230000D02*
X155975000Y-99930000D01*
G75*
G02*
X156125000Y-99780000I150000J0D01*
G01*
X157775000Y-99780000D01*
G75*
G02*
X157925000Y-99930000I0J-150000D01*
G01*
X157925000Y-100230000D01*
G75*
G02*
X157775000Y-100380000I-150000J0D01*
G01*
X156125000Y-100380000D01*
G75*
G02*
X155975000Y-100230000I0J150000D01*
G01*
G37*
G36*
G01*
X155975000Y-101500000D02*
X155975000Y-101200000D01*
G75*
G02*
X156125000Y-101050000I150000J0D01*
G01*
X157775000Y-101050000D01*
G75*
G02*
X157925000Y-101200000I0J-150000D01*
G01*
X157925000Y-101500000D01*
G75*
G02*
X157775000Y-101650000I-150000J0D01*
G01*
X156125000Y-101650000D01*
G75*
G02*
X155975000Y-101500000I0J150000D01*
G01*
G37*
G36*
G01*
X155975000Y-102770000D02*
X155975000Y-102470000D01*
G75*
G02*
X156125000Y-102320000I150000J0D01*
G01*
X157775000Y-102320000D01*
G75*
G02*
X157925000Y-102470000I0J-150000D01*
G01*
X157925000Y-102770000D01*
G75*
G02*
X157775000Y-102920000I-150000J0D01*
G01*
X156125000Y-102920000D01*
G75*
G02*
X155975000Y-102770000I0J150000D01*
G01*
G37*
G36*
G01*
X151025000Y-102770000D02*
X151025000Y-102470000D01*
G75*
G02*
X151175000Y-102320000I150000J0D01*
G01*
X152825000Y-102320000D01*
G75*
G02*
X152975000Y-102470000I0J-150000D01*
G01*
X152975000Y-102770000D01*
G75*
G02*
X152825000Y-102920000I-150000J0D01*
G01*
X151175000Y-102920000D01*
G75*
G02*
X151025000Y-102770000I0J150000D01*
G01*
G37*
G36*
G01*
X151025000Y-101500000D02*
X151025000Y-101200000D01*
G75*
G02*
X151175000Y-101050000I150000J0D01*
G01*
X152825000Y-101050000D01*
G75*
G02*
X152975000Y-101200000I0J-150000D01*
G01*
X152975000Y-101500000D01*
G75*
G02*
X152825000Y-101650000I-150000J0D01*
G01*
X151175000Y-101650000D01*
G75*
G02*
X151025000Y-101500000I0J150000D01*
G01*
G37*
G36*
G01*
X151025000Y-100230000D02*
X151025000Y-99930000D01*
G75*
G02*
X151175000Y-99780000I150000J0D01*
G01*
X152825000Y-99780000D01*
G75*
G02*
X152975000Y-99930000I0J-150000D01*
G01*
X152975000Y-100230000D01*
G75*
G02*
X152825000Y-100380000I-150000J0D01*
G01*
X151175000Y-100380000D01*
G75*
G02*
X151025000Y-100230000I0J150000D01*
G01*
G37*
G36*
G01*
X151025000Y-98960000D02*
X151025000Y-98660000D01*
G75*
G02*
X151175000Y-98510000I150000J0D01*
G01*
X152825000Y-98510000D01*
G75*
G02*
X152975000Y-98660000I0J-150000D01*
G01*
X152975000Y-98960000D01*
G75*
G02*
X152825000Y-99110000I-150000J0D01*
G01*
X151175000Y-99110000D01*
G75*
G02*
X151025000Y-98960000I0J150000D01*
G01*
G37*
G36*
G01*
X151025000Y-97690000D02*
X151025000Y-97390000D01*
G75*
G02*
X151175000Y-97240000I150000J0D01*
G01*
X152825000Y-97240000D01*
G75*
G02*
X152975000Y-97390000I0J-150000D01*
G01*
X152975000Y-97690000D01*
G75*
G02*
X152825000Y-97840000I-150000J0D01*
G01*
X151175000Y-97840000D01*
G75*
G02*
X151025000Y-97690000I0J150000D01*
G01*
G37*
G36*
G01*
X151025000Y-96420000D02*
X151025000Y-96120000D01*
G75*
G02*
X151175000Y-95970000I150000J0D01*
G01*
X152825000Y-95970000D01*
G75*
G02*
X152975000Y-96120000I0J-150000D01*
G01*
X152975000Y-96420000D01*
G75*
G02*
X152825000Y-96570000I-150000J0D01*
G01*
X151175000Y-96570000D01*
G75*
G02*
X151025000Y-96420000I0J150000D01*
G01*
G37*
G36*
G01*
X151025000Y-95150000D02*
X151025000Y-94850000D01*
G75*
G02*
X151175000Y-94700000I150000J0D01*
G01*
X152825000Y-94700000D01*
G75*
G02*
X152975000Y-94850000I0J-150000D01*
G01*
X152975000Y-95150000D01*
G75*
G02*
X152825000Y-95300000I-150000J0D01*
G01*
X151175000Y-95300000D01*
G75*
G02*
X151025000Y-95150000I0J150000D01*
G01*
G37*
D15*
X163000000Y-90000000D03*
X163000000Y-91900000D03*
D16*
X159500000Y-111750000D03*
X159500000Y-109250000D03*
X159500000Y-106750000D03*
X159500000Y-104250000D03*
X159500000Y-94250000D03*
X159500000Y-96750000D03*
X159500000Y-99250000D03*
X159500000Y-101750000D03*
X144500000Y-111750000D03*
X144500000Y-109250000D03*
X144500000Y-106750000D03*
X144500000Y-94250000D03*
X144500000Y-96750000D03*
X144500000Y-99250000D03*
X144500000Y-104250000D03*
X144500000Y-101750000D03*
G36*
G01*
X155625000Y-105165000D02*
X155625000Y-104865000D01*
G75*
G02*
X155775000Y-104715000I150000J0D01*
G01*
X157525000Y-104715000D01*
G75*
G02*
X157675000Y-104865000I0J-150000D01*
G01*
X157675000Y-105165000D01*
G75*
G02*
X157525000Y-105315000I-150000J0D01*
G01*
X155775000Y-105315000D01*
G75*
G02*
X155625000Y-105165000I0J150000D01*
G01*
G37*
G36*
G01*
X155625000Y-106435000D02*
X155625000Y-106135000D01*
G75*
G02*
X155775000Y-105985000I150000J0D01*
G01*
X157525000Y-105985000D01*
G75*
G02*
X157675000Y-106135000I0J-150000D01*
G01*
X157675000Y-106435000D01*
G75*
G02*
X157525000Y-106585000I-150000J0D01*
G01*
X155775000Y-106585000D01*
G75*
G02*
X155625000Y-106435000I0J150000D01*
G01*
G37*
G36*
G01*
X155625000Y-107705000D02*
X155625000Y-107405000D01*
G75*
G02*
X155775000Y-107255000I150000J0D01*
G01*
X157525000Y-107255000D01*
G75*
G02*
X157675000Y-107405000I0J-150000D01*
G01*
X157675000Y-107705000D01*
G75*
G02*
X157525000Y-107855000I-150000J0D01*
G01*
X155775000Y-107855000D01*
G75*
G02*
X155625000Y-107705000I0J150000D01*
G01*
G37*
G36*
G01*
X155625000Y-108975000D02*
X155625000Y-108675000D01*
G75*
G02*
X155775000Y-108525000I150000J0D01*
G01*
X157525000Y-108525000D01*
G75*
G02*
X157675000Y-108675000I0J-150000D01*
G01*
X157675000Y-108975000D01*
G75*
G02*
X157525000Y-109125000I-150000J0D01*
G01*
X155775000Y-109125000D01*
G75*
G02*
X155625000Y-108975000I0J150000D01*
G01*
G37*
G36*
G01*
X155625000Y-110245000D02*
X155625000Y-109945000D01*
G75*
G02*
X155775000Y-109795000I150000J0D01*
G01*
X157525000Y-109795000D01*
G75*
G02*
X157675000Y-109945000I0J-150000D01*
G01*
X157675000Y-110245000D01*
G75*
G02*
X157525000Y-110395000I-150000J0D01*
G01*
X155775000Y-110395000D01*
G75*
G02*
X155625000Y-110245000I0J150000D01*
G01*
G37*
G36*
G01*
X155625000Y-111515000D02*
X155625000Y-111215000D01*
G75*
G02*
X155775000Y-111065000I150000J0D01*
G01*
X157525000Y-111065000D01*
G75*
G02*
X157675000Y-111215000I0J-150000D01*
G01*
X157675000Y-111515000D01*
G75*
G02*
X157525000Y-111665000I-150000J0D01*
G01*
X155775000Y-111665000D01*
G75*
G02*
X155625000Y-111515000I0J150000D01*
G01*
G37*
G36*
G01*
X155625000Y-112785000D02*
X155625000Y-112485000D01*
G75*
G02*
X155775000Y-112335000I150000J0D01*
G01*
X157525000Y-112335000D01*
G75*
G02*
X157675000Y-112485000I0J-150000D01*
G01*
X157675000Y-112785000D01*
G75*
G02*
X157525000Y-112935000I-150000J0D01*
G01*
X155775000Y-112935000D01*
G75*
G02*
X155625000Y-112785000I0J150000D01*
G01*
G37*
G36*
G01*
X155625000Y-114055000D02*
X155625000Y-113755000D01*
G75*
G02*
X155775000Y-113605000I150000J0D01*
G01*
X157525000Y-113605000D01*
G75*
G02*
X157675000Y-113755000I0J-150000D01*
G01*
X157675000Y-114055000D01*
G75*
G02*
X157525000Y-114205000I-150000J0D01*
G01*
X155775000Y-114205000D01*
G75*
G02*
X155625000Y-114055000I0J150000D01*
G01*
G37*
G36*
G01*
X155625000Y-115325000D02*
X155625000Y-115025000D01*
G75*
G02*
X155775000Y-114875000I150000J0D01*
G01*
X157525000Y-114875000D01*
G75*
G02*
X157675000Y-115025000I0J-150000D01*
G01*
X157675000Y-115325000D01*
G75*
G02*
X157525000Y-115475000I-150000J0D01*
G01*
X155775000Y-115475000D01*
G75*
G02*
X155625000Y-115325000I0J150000D01*
G01*
G37*
G36*
G01*
X155625000Y-116595000D02*
X155625000Y-116295000D01*
G75*
G02*
X155775000Y-116145000I150000J0D01*
G01*
X157525000Y-116145000D01*
G75*
G02*
X157675000Y-116295000I0J-150000D01*
G01*
X157675000Y-116595000D01*
G75*
G02*
X157525000Y-116745000I-150000J0D01*
G01*
X155775000Y-116745000D01*
G75*
G02*
X155625000Y-116595000I0J150000D01*
G01*
G37*
G36*
G01*
X155625000Y-117865000D02*
X155625000Y-117565000D01*
G75*
G02*
X155775000Y-117415000I150000J0D01*
G01*
X157525000Y-117415000D01*
G75*
G02*
X157675000Y-117565000I0J-150000D01*
G01*
X157675000Y-117865000D01*
G75*
G02*
X157525000Y-118015000I-150000J0D01*
G01*
X155775000Y-118015000D01*
G75*
G02*
X155625000Y-117865000I0J150000D01*
G01*
G37*
G36*
G01*
X155625000Y-119135000D02*
X155625000Y-118835000D01*
G75*
G02*
X155775000Y-118685000I150000J0D01*
G01*
X157525000Y-118685000D01*
G75*
G02*
X157675000Y-118835000I0J-150000D01*
G01*
X157675000Y-119135000D01*
G75*
G02*
X157525000Y-119285000I-150000J0D01*
G01*
X155775000Y-119285000D01*
G75*
G02*
X155625000Y-119135000I0J150000D01*
G01*
G37*
G36*
G01*
X146325000Y-119135000D02*
X146325000Y-118835000D01*
G75*
G02*
X146475000Y-118685000I150000J0D01*
G01*
X148225000Y-118685000D01*
G75*
G02*
X148375000Y-118835000I0J-150000D01*
G01*
X148375000Y-119135000D01*
G75*
G02*
X148225000Y-119285000I-150000J0D01*
G01*
X146475000Y-119285000D01*
G75*
G02*
X146325000Y-119135000I0J150000D01*
G01*
G37*
G36*
G01*
X146325000Y-117865000D02*
X146325000Y-117565000D01*
G75*
G02*
X146475000Y-117415000I150000J0D01*
G01*
X148225000Y-117415000D01*
G75*
G02*
X148375000Y-117565000I0J-150000D01*
G01*
X148375000Y-117865000D01*
G75*
G02*
X148225000Y-118015000I-150000J0D01*
G01*
X146475000Y-118015000D01*
G75*
G02*
X146325000Y-117865000I0J150000D01*
G01*
G37*
G36*
G01*
X146325000Y-116595000D02*
X146325000Y-116295000D01*
G75*
G02*
X146475000Y-116145000I150000J0D01*
G01*
X148225000Y-116145000D01*
G75*
G02*
X148375000Y-116295000I0J-150000D01*
G01*
X148375000Y-116595000D01*
G75*
G02*
X148225000Y-116745000I-150000J0D01*
G01*
X146475000Y-116745000D01*
G75*
G02*
X146325000Y-116595000I0J150000D01*
G01*
G37*
G36*
G01*
X146325000Y-115325000D02*
X146325000Y-115025000D01*
G75*
G02*
X146475000Y-114875000I150000J0D01*
G01*
X148225000Y-114875000D01*
G75*
G02*
X148375000Y-115025000I0J-150000D01*
G01*
X148375000Y-115325000D01*
G75*
G02*
X148225000Y-115475000I-150000J0D01*
G01*
X146475000Y-115475000D01*
G75*
G02*
X146325000Y-115325000I0J150000D01*
G01*
G37*
G36*
G01*
X146325000Y-114055000D02*
X146325000Y-113755000D01*
G75*
G02*
X146475000Y-113605000I150000J0D01*
G01*
X148225000Y-113605000D01*
G75*
G02*
X148375000Y-113755000I0J-150000D01*
G01*
X148375000Y-114055000D01*
G75*
G02*
X148225000Y-114205000I-150000J0D01*
G01*
X146475000Y-114205000D01*
G75*
G02*
X146325000Y-114055000I0J150000D01*
G01*
G37*
G36*
G01*
X146325000Y-112785000D02*
X146325000Y-112485000D01*
G75*
G02*
X146475000Y-112335000I150000J0D01*
G01*
X148225000Y-112335000D01*
G75*
G02*
X148375000Y-112485000I0J-150000D01*
G01*
X148375000Y-112785000D01*
G75*
G02*
X148225000Y-112935000I-150000J0D01*
G01*
X146475000Y-112935000D01*
G75*
G02*
X146325000Y-112785000I0J150000D01*
G01*
G37*
G36*
G01*
X146325000Y-111515000D02*
X146325000Y-111215000D01*
G75*
G02*
X146475000Y-111065000I150000J0D01*
G01*
X148225000Y-111065000D01*
G75*
G02*
X148375000Y-111215000I0J-150000D01*
G01*
X148375000Y-111515000D01*
G75*
G02*
X148225000Y-111665000I-150000J0D01*
G01*
X146475000Y-111665000D01*
G75*
G02*
X146325000Y-111515000I0J150000D01*
G01*
G37*
G36*
G01*
X146325000Y-110245000D02*
X146325000Y-109945000D01*
G75*
G02*
X146475000Y-109795000I150000J0D01*
G01*
X148225000Y-109795000D01*
G75*
G02*
X148375000Y-109945000I0J-150000D01*
G01*
X148375000Y-110245000D01*
G75*
G02*
X148225000Y-110395000I-150000J0D01*
G01*
X146475000Y-110395000D01*
G75*
G02*
X146325000Y-110245000I0J150000D01*
G01*
G37*
G36*
G01*
X146325000Y-108975000D02*
X146325000Y-108675000D01*
G75*
G02*
X146475000Y-108525000I150000J0D01*
G01*
X148225000Y-108525000D01*
G75*
G02*
X148375000Y-108675000I0J-150000D01*
G01*
X148375000Y-108975000D01*
G75*
G02*
X148225000Y-109125000I-150000J0D01*
G01*
X146475000Y-109125000D01*
G75*
G02*
X146325000Y-108975000I0J150000D01*
G01*
G37*
G36*
G01*
X146325000Y-107705000D02*
X146325000Y-107405000D01*
G75*
G02*
X146475000Y-107255000I150000J0D01*
G01*
X148225000Y-107255000D01*
G75*
G02*
X148375000Y-107405000I0J-150000D01*
G01*
X148375000Y-107705000D01*
G75*
G02*
X148225000Y-107855000I-150000J0D01*
G01*
X146475000Y-107855000D01*
G75*
G02*
X146325000Y-107705000I0J150000D01*
G01*
G37*
G36*
G01*
X146325000Y-106435000D02*
X146325000Y-106135000D01*
G75*
G02*
X146475000Y-105985000I150000J0D01*
G01*
X148225000Y-105985000D01*
G75*
G02*
X148375000Y-106135000I0J-150000D01*
G01*
X148375000Y-106435000D01*
G75*
G02*
X148225000Y-106585000I-150000J0D01*
G01*
X146475000Y-106585000D01*
G75*
G02*
X146325000Y-106435000I0J150000D01*
G01*
G37*
G36*
G01*
X146325000Y-105165000D02*
X146325000Y-104865000D01*
G75*
G02*
X146475000Y-104715000I150000J0D01*
G01*
X148225000Y-104715000D01*
G75*
G02*
X148375000Y-104865000I0J-150000D01*
G01*
X148375000Y-105165000D01*
G75*
G02*
X148225000Y-105315000I-150000J0D01*
G01*
X146475000Y-105315000D01*
G75*
G02*
X146325000Y-105165000I0J150000D01*
G01*
G37*
G36*
G01*
X160450000Y-91755000D02*
X160450000Y-92055000D01*
G75*
G02*
X160300000Y-92205000I-150000J0D01*
G01*
X158650000Y-92205000D01*
G75*
G02*
X158500000Y-92055000I0J150000D01*
G01*
X158500000Y-91755000D01*
G75*
G02*
X158650000Y-91605000I150000J0D01*
G01*
X160300000Y-91605000D01*
G75*
G02*
X160450000Y-91755000I0J-150000D01*
G01*
G37*
G36*
G01*
X160450000Y-90485000D02*
X160450000Y-90785000D01*
G75*
G02*
X160300000Y-90935000I-150000J0D01*
G01*
X158650000Y-90935000D01*
G75*
G02*
X158500000Y-90785000I0J150000D01*
G01*
X158500000Y-90485000D01*
G75*
G02*
X158650000Y-90335000I150000J0D01*
G01*
X160300000Y-90335000D01*
G75*
G02*
X160450000Y-90485000I0J-150000D01*
G01*
G37*
G36*
G01*
X160450000Y-89215000D02*
X160450000Y-89515000D01*
G75*
G02*
X160300000Y-89665000I-150000J0D01*
G01*
X158650000Y-89665000D01*
G75*
G02*
X158500000Y-89515000I0J150000D01*
G01*
X158500000Y-89215000D01*
G75*
G02*
X158650000Y-89065000I150000J0D01*
G01*
X160300000Y-89065000D01*
G75*
G02*
X160450000Y-89215000I0J-150000D01*
G01*
G37*
G36*
G01*
X160450000Y-87945000D02*
X160450000Y-88245000D01*
G75*
G02*
X160300000Y-88395000I-150000J0D01*
G01*
X158650000Y-88395000D01*
G75*
G02*
X158500000Y-88245000I0J150000D01*
G01*
X158500000Y-87945000D01*
G75*
G02*
X158650000Y-87795000I150000J0D01*
G01*
X160300000Y-87795000D01*
G75*
G02*
X160450000Y-87945000I0J-150000D01*
G01*
G37*
G36*
G01*
X155500000Y-87945000D02*
X155500000Y-88245000D01*
G75*
G02*
X155350000Y-88395000I-150000J0D01*
G01*
X153700000Y-88395000D01*
G75*
G02*
X153550000Y-88245000I0J150000D01*
G01*
X153550000Y-87945000D01*
G75*
G02*
X153700000Y-87795000I150000J0D01*
G01*
X155350000Y-87795000D01*
G75*
G02*
X155500000Y-87945000I0J-150000D01*
G01*
G37*
G36*
G01*
X155500000Y-89215000D02*
X155500000Y-89515000D01*
G75*
G02*
X155350000Y-89665000I-150000J0D01*
G01*
X153700000Y-89665000D01*
G75*
G02*
X153550000Y-89515000I0J150000D01*
G01*
X153550000Y-89215000D01*
G75*
G02*
X153700000Y-89065000I150000J0D01*
G01*
X155350000Y-89065000D01*
G75*
G02*
X155500000Y-89215000I0J-150000D01*
G01*
G37*
G36*
G01*
X155500000Y-90485000D02*
X155500000Y-90785000D01*
G75*
G02*
X155350000Y-90935000I-150000J0D01*
G01*
X153700000Y-90935000D01*
G75*
G02*
X153550000Y-90785000I0J150000D01*
G01*
X153550000Y-90485000D01*
G75*
G02*
X153700000Y-90335000I150000J0D01*
G01*
X155350000Y-90335000D01*
G75*
G02*
X155500000Y-90485000I0J-150000D01*
G01*
G37*
G36*
G01*
X155500000Y-91755000D02*
X155500000Y-92055000D01*
G75*
G02*
X155350000Y-92205000I-150000J0D01*
G01*
X153700000Y-92205000D01*
G75*
G02*
X153550000Y-92055000I0J150000D01*
G01*
X153550000Y-91755000D01*
G75*
G02*
X153700000Y-91605000I150000J0D01*
G01*
X155350000Y-91605000D01*
G75*
G02*
X155500000Y-91755000I0J-150000D01*
G01*
G37*
D17*
X171000000Y-105500000D03*
X171000000Y-110000000D03*
X164500000Y-105500000D03*
X164500000Y-110000000D03*
X171000000Y-96000000D03*
X171000000Y-100500000D03*
X164500000Y-96000000D03*
X164500000Y-100500000D03*
X139500000Y-105500000D03*
X139500000Y-110000000D03*
X133000000Y-105500000D03*
X133000000Y-110000000D03*
X139500000Y-96000000D03*
X139500000Y-100500000D03*
X133000000Y-96000000D03*
X133000000Y-100500000D03*
D18*
X146800000Y-94100000D03*
X146800000Y-95050000D03*
X146800000Y-96000000D03*
X149000000Y-96000000D03*
X149000000Y-94100000D03*
D19*
X141000000Y-89000000D03*
D20*
X141000000Y-86460000D03*
G36*
G01*
X135775000Y-103275000D02*
X135775000Y-102725000D01*
G75*
G02*
X135975000Y-102525000I200000J0D01*
G01*
X136375000Y-102525000D01*
G75*
G02*
X136575000Y-102725000I0J-200000D01*
G01*
X136575000Y-103275000D01*
G75*
G02*
X136375000Y-103475000I-200000J0D01*
G01*
X135975000Y-103475000D01*
G75*
G02*
X135775000Y-103275000I0J200000D01*
G01*
G37*
G36*
G01*
X137425000Y-103275000D02*
X137425000Y-102725000D01*
G75*
G02*
X137625000Y-102525000I200000J0D01*
G01*
X138025000Y-102525000D01*
G75*
G02*
X138225000Y-102725000I0J-200000D01*
G01*
X138225000Y-103275000D01*
G75*
G02*
X138025000Y-103475000I-200000J0D01*
G01*
X137625000Y-103475000D01*
G75*
G02*
X137425000Y-103275000I0J200000D01*
G01*
G37*
G36*
G01*
X137950000Y-93275000D02*
X137950000Y-92725000D01*
G75*
G02*
X138150000Y-92525000I200000J0D01*
G01*
X138550000Y-92525000D01*
G75*
G02*
X138750000Y-92725000I0J-200000D01*
G01*
X138750000Y-93275000D01*
G75*
G02*
X138550000Y-93475000I-200000J0D01*
G01*
X138150000Y-93475000D01*
G75*
G02*
X137950000Y-93275000I0J200000D01*
G01*
G37*
G36*
G01*
X139600000Y-93275000D02*
X139600000Y-92725000D01*
G75*
G02*
X139800000Y-92525000I200000J0D01*
G01*
X140200000Y-92525000D01*
G75*
G02*
X140400000Y-92725000I0J-200000D01*
G01*
X140400000Y-93275000D01*
G75*
G02*
X140200000Y-93475000I-200000J0D01*
G01*
X139800000Y-93475000D01*
G75*
G02*
X139600000Y-93275000I0J200000D01*
G01*
G37*
G36*
G01*
X166575000Y-93725000D02*
X166575000Y-94275000D01*
G75*
G02*
X166375000Y-94475000I-200000J0D01*
G01*
X165975000Y-94475000D01*
G75*
G02*
X165775000Y-94275000I0J200000D01*
G01*
X165775000Y-93725000D01*
G75*
G02*
X165975000Y-93525000I200000J0D01*
G01*
X166375000Y-93525000D01*
G75*
G02*
X166575000Y-93725000I0J-200000D01*
G01*
G37*
G36*
G01*
X168225000Y-93725000D02*
X168225000Y-94275000D01*
G75*
G02*
X168025000Y-94475000I-200000J0D01*
G01*
X167625000Y-94475000D01*
G75*
G02*
X167425000Y-94275000I0J200000D01*
G01*
X167425000Y-93725000D01*
G75*
G02*
X167625000Y-93525000I200000J0D01*
G01*
X168025000Y-93525000D01*
G75*
G02*
X168225000Y-93725000I0J-200000D01*
G01*
G37*
G36*
G01*
X170575000Y-102725000D02*
X170575000Y-103275000D01*
G75*
G02*
X170375000Y-103475000I-200000J0D01*
G01*
X169975000Y-103475000D01*
G75*
G02*
X169775000Y-103275000I0J200000D01*
G01*
X169775000Y-102725000D01*
G75*
G02*
X169975000Y-102525000I200000J0D01*
G01*
X170375000Y-102525000D01*
G75*
G02*
X170575000Y-102725000I0J-200000D01*
G01*
G37*
G36*
G01*
X172225000Y-102725000D02*
X172225000Y-103275000D01*
G75*
G02*
X172025000Y-103475000I-200000J0D01*
G01*
X171625000Y-103475000D01*
G75*
G02*
X171425000Y-103275000I0J200000D01*
G01*
X171425000Y-102725000D01*
G75*
G02*
X171625000Y-102525000I200000J0D01*
G01*
X172025000Y-102525000D01*
G75*
G02*
X172225000Y-102725000I0J-200000D01*
G01*
G37*
G36*
G01*
X141725000Y-94600000D02*
X142275000Y-94600000D01*
G75*
G02*
X142475000Y-94800000I0J-200000D01*
G01*
X142475000Y-95200000D01*
G75*
G02*
X142275000Y-95400000I-200000J0D01*
G01*
X141725000Y-95400000D01*
G75*
G02*
X141525000Y-95200000I0J200000D01*
G01*
X141525000Y-94800000D01*
G75*
G02*
X141725000Y-94600000I200000J0D01*
G01*
G37*
G36*
G01*
X141725000Y-96250000D02*
X142275000Y-96250000D01*
G75*
G02*
X142475000Y-96450000I0J-200000D01*
G01*
X142475000Y-96850000D01*
G75*
G02*
X142275000Y-97050000I-200000J0D01*
G01*
X141725000Y-97050000D01*
G75*
G02*
X141525000Y-96850000I0J200000D01*
G01*
X141525000Y-96450000D01*
G75*
G02*
X141725000Y-96250000I200000J0D01*
G01*
G37*
G36*
G01*
X141725000Y-100600000D02*
X142275000Y-100600000D01*
G75*
G02*
X142475000Y-100800000I0J-200000D01*
G01*
X142475000Y-101200000D01*
G75*
G02*
X142275000Y-101400000I-200000J0D01*
G01*
X141725000Y-101400000D01*
G75*
G02*
X141525000Y-101200000I0J200000D01*
G01*
X141525000Y-100800000D01*
G75*
G02*
X141725000Y-100600000I200000J0D01*
G01*
G37*
G36*
G01*
X141725000Y-102250000D02*
X142275000Y-102250000D01*
G75*
G02*
X142475000Y-102450000I0J-200000D01*
G01*
X142475000Y-102850000D01*
G75*
G02*
X142275000Y-103050000I-200000J0D01*
G01*
X141725000Y-103050000D01*
G75*
G02*
X141525000Y-102850000I0J200000D01*
G01*
X141525000Y-102450000D01*
G75*
G02*
X141725000Y-102250000I200000J0D01*
G01*
G37*
G36*
G01*
X141725000Y-93250000D02*
X142275000Y-93250000D01*
G75*
G02*
X142475000Y-93450000I0J-200000D01*
G01*
X142475000Y-93850000D01*
G75*
G02*
X142275000Y-94050000I-200000J0D01*
G01*
X141725000Y-94050000D01*
G75*
G02*
X141525000Y-93850000I0J200000D01*
G01*
X141525000Y-93450000D01*
G75*
G02*
X141725000Y-93250000I200000J0D01*
G01*
G37*
G36*
G01*
X141725000Y-91600000D02*
X142275000Y-91600000D01*
G75*
G02*
X142475000Y-91800000I0J-200000D01*
G01*
X142475000Y-92200000D01*
G75*
G02*
X142275000Y-92400000I-200000J0D01*
G01*
X141725000Y-92400000D01*
G75*
G02*
X141525000Y-92200000I0J200000D01*
G01*
X141525000Y-91800000D01*
G75*
G02*
X141725000Y-91600000I200000J0D01*
G01*
G37*
G36*
G01*
X141725000Y-99250000D02*
X142275000Y-99250000D01*
G75*
G02*
X142475000Y-99450000I0J-200000D01*
G01*
X142475000Y-99850000D01*
G75*
G02*
X142275000Y-100050000I-200000J0D01*
G01*
X141725000Y-100050000D01*
G75*
G02*
X141525000Y-99850000I0J200000D01*
G01*
X141525000Y-99450000D01*
G75*
G02*
X141725000Y-99250000I200000J0D01*
G01*
G37*
G36*
G01*
X141725000Y-97600000D02*
X142275000Y-97600000D01*
G75*
G02*
X142475000Y-97800000I0J-200000D01*
G01*
X142475000Y-98200000D01*
G75*
G02*
X142275000Y-98400000I-200000J0D01*
G01*
X141725000Y-98400000D01*
G75*
G02*
X141525000Y-98200000I0J200000D01*
G01*
X141525000Y-97800000D01*
G75*
G02*
X141725000Y-97600000I200000J0D01*
G01*
G37*
G36*
G01*
X161725000Y-106425000D02*
X162275000Y-106425000D01*
G75*
G02*
X162475000Y-106625000I0J-200000D01*
G01*
X162475000Y-107025000D01*
G75*
G02*
X162275000Y-107225000I-200000J0D01*
G01*
X161725000Y-107225000D01*
G75*
G02*
X161525000Y-107025000I0J200000D01*
G01*
X161525000Y-106625000D01*
G75*
G02*
X161725000Y-106425000I200000J0D01*
G01*
G37*
G36*
G01*
X161725000Y-104775000D02*
X162275000Y-104775000D01*
G75*
G02*
X162475000Y-104975000I0J-200000D01*
G01*
X162475000Y-105375000D01*
G75*
G02*
X162275000Y-105575000I-200000J0D01*
G01*
X161725000Y-105575000D01*
G75*
G02*
X161525000Y-105375000I0J200000D01*
G01*
X161525000Y-104975000D01*
G75*
G02*
X161725000Y-104775000I200000J0D01*
G01*
G37*
G36*
G01*
X161725000Y-112425000D02*
X162275000Y-112425000D01*
G75*
G02*
X162475000Y-112625000I0J-200000D01*
G01*
X162475000Y-113025000D01*
G75*
G02*
X162275000Y-113225000I-200000J0D01*
G01*
X161725000Y-113225000D01*
G75*
G02*
X161525000Y-113025000I0J200000D01*
G01*
X161525000Y-112625000D01*
G75*
G02*
X161725000Y-112425000I200000J0D01*
G01*
G37*
G36*
G01*
X161725000Y-110775000D02*
X162275000Y-110775000D01*
G75*
G02*
X162475000Y-110975000I0J-200000D01*
G01*
X162475000Y-111375000D01*
G75*
G02*
X162275000Y-111575000I-200000J0D01*
G01*
X161725000Y-111575000D01*
G75*
G02*
X161525000Y-111375000I0J200000D01*
G01*
X161525000Y-110975000D01*
G75*
G02*
X161725000Y-110775000I200000J0D01*
G01*
G37*
G36*
G01*
X162275000Y-104225000D02*
X161725000Y-104225000D01*
G75*
G02*
X161525000Y-104025000I0J200000D01*
G01*
X161525000Y-103625000D01*
G75*
G02*
X161725000Y-103425000I200000J0D01*
G01*
X162275000Y-103425000D01*
G75*
G02*
X162475000Y-103625000I0J-200000D01*
G01*
X162475000Y-104025000D01*
G75*
G02*
X162275000Y-104225000I-200000J0D01*
G01*
G37*
G36*
G01*
X162275000Y-102575000D02*
X161725000Y-102575000D01*
G75*
G02*
X161525000Y-102375000I0J200000D01*
G01*
X161525000Y-101975000D01*
G75*
G02*
X161725000Y-101775000I200000J0D01*
G01*
X162275000Y-101775000D01*
G75*
G02*
X162475000Y-101975000I0J-200000D01*
G01*
X162475000Y-102375000D01*
G75*
G02*
X162275000Y-102575000I-200000J0D01*
G01*
G37*
G36*
G01*
X161725000Y-107775000D02*
X162275000Y-107775000D01*
G75*
G02*
X162475000Y-107975000I0J-200000D01*
G01*
X162475000Y-108375000D01*
G75*
G02*
X162275000Y-108575000I-200000J0D01*
G01*
X161725000Y-108575000D01*
G75*
G02*
X161525000Y-108375000I0J200000D01*
G01*
X161525000Y-107975000D01*
G75*
G02*
X161725000Y-107775000I200000J0D01*
G01*
G37*
G36*
G01*
X161725000Y-109425000D02*
X162275000Y-109425000D01*
G75*
G02*
X162475000Y-109625000I0J-200000D01*
G01*
X162475000Y-110025000D01*
G75*
G02*
X162275000Y-110225000I-200000J0D01*
G01*
X161725000Y-110225000D01*
G75*
G02*
X161525000Y-110025000I0J200000D01*
G01*
X161525000Y-109625000D01*
G75*
G02*
X161725000Y-109425000I200000J0D01*
G01*
G37*
M02*
