M48
; DRILL file {KiCad 5.1.10} date Tue Dec 21 05:38:02 2021
; FORMAT={-:-/ absolute / metric / decimal}
; #@! TF.CreationDate,2021-12-21T05:38:02-06:00
; #@! TF.GenerationSoftware,Kicad,Pcbnew,5.1.10
; #@! TF.FileFunction,Plated,1,2,PTH
FMAT,2
METRIC
T1C0.400
T2C0.500
T3C0.762
T4C0.800
T5C1.000
T6C1.100
%
G90
G05
T1
X148.0Y-99.0
X150.0Y-99.0
X150.0Y-100.0
X150.0Y-101.0
X153.0Y-104.0
X155.0Y-96.0
X155.0Y-97.0
X155.0Y-106.0
X155.0Y-107.0
X158.0Y-86.0
X158.0Y-104.0
X158.5Y-100.5
X158.5Y-103.0
X162.0Y-89.0
T2
X163.0Y-90.0
X163.0Y-91.9
T3
X144.5Y-94.25
X144.5Y-96.75
X144.5Y-99.25
X144.5Y-101.75
X144.5Y-104.25
X144.5Y-106.75
X144.5Y-109.25
X144.5Y-111.75
X159.5Y-94.25
X159.5Y-96.75
X159.5Y-99.25
X159.5Y-101.75
X159.5Y-104.25
X159.5Y-106.75
X159.5Y-109.25
X159.5Y-111.75
T4
X140.0Y-114.0
X140.0Y-116.0
X140.0Y-118.0
X140.0Y-120.0
T5
X141.0Y-86.46
X141.0Y-89.0
T6
X133.0Y-96.0
X133.0Y-100.5
X133.0Y-105.5
X133.0Y-110.0
X139.5Y-96.0
X139.5Y-100.5
X139.5Y-105.5
X139.5Y-110.0
X164.5Y-96.0
X164.5Y-100.5
X164.5Y-105.5
X164.5Y-110.0
X171.0Y-96.0
X171.0Y-100.5
X171.0Y-105.5
X171.0Y-110.0
T0
M30
