%TF.GenerationSoftware,KiCad,Pcbnew,5.1.10*%
%TF.CreationDate,2021-12-20T15:46:02-06:00*%
%TF.ProjectId,notawatch,6e6f7461-7761-4746-9368-2e6b69636164,rev?*%
%TF.SameCoordinates,Original*%
%TF.FileFunction,Legend,Top*%
%TF.FilePolarity,Positive*%
%FSLAX46Y46*%
G04 Gerber Fmt 4.6, Leading zero omitted, Abs format (unit mm)*
G04 Created by KiCad (PCBNEW 5.1.10) date 2021-12-20 15:46:02*
%MOMM*%
%LPD*%
G01*
G04 APERTURE LIST*
%ADD10C,0.120000*%
%ADD11C,0.150000*%
G04 APERTURE END LIST*
D10*
%TO.C,C1*%
X133288748Y-91090000D02*
X134711252Y-91090000D01*
X133288748Y-92910000D02*
X134711252Y-92910000D01*
%TO.C,REF\u002A\u002A*%
X138560000Y-121060000D02*
X138560000Y-112940000D01*
X138560000Y-112940000D02*
X136940000Y-112940000D01*
X136940000Y-112940000D02*
X136940000Y-121060000D01*
X136940000Y-121060000D02*
X138560000Y-121060000D01*
X136940000Y-120310000D02*
X132740000Y-120310000D01*
X132740000Y-120310000D02*
X132740000Y-119690000D01*
X132740000Y-119690000D02*
X136940000Y-119690000D01*
X136940000Y-120250000D02*
X132740000Y-120250000D01*
X136940000Y-120130000D02*
X132740000Y-120130000D01*
X136940000Y-120010000D02*
X132740000Y-120010000D01*
X136940000Y-119890000D02*
X132740000Y-119890000D01*
X136940000Y-119770000D02*
X132740000Y-119770000D01*
X139065000Y-120310000D02*
X138560000Y-120310000D01*
X139065000Y-119690000D02*
X138560000Y-119690000D01*
X138560000Y-119000000D02*
X136940000Y-119000000D01*
X136940000Y-118310000D02*
X132740000Y-118310000D01*
X132740000Y-118310000D02*
X132740000Y-117690000D01*
X132740000Y-117690000D02*
X136940000Y-117690000D01*
X139117886Y-118310000D02*
X138560000Y-118310000D01*
X139117886Y-117690000D02*
X138560000Y-117690000D01*
X138560000Y-117000000D02*
X136940000Y-117000000D01*
X136940000Y-116310000D02*
X132740000Y-116310000D01*
X132740000Y-116310000D02*
X132740000Y-115690000D01*
X132740000Y-115690000D02*
X136940000Y-115690000D01*
X139117886Y-116310000D02*
X138560000Y-116310000D01*
X139117886Y-115690000D02*
X138560000Y-115690000D01*
X138560000Y-115000000D02*
X136940000Y-115000000D01*
X136940000Y-114310000D02*
X132740000Y-114310000D01*
X132740000Y-114310000D02*
X132740000Y-113690000D01*
X132740000Y-113690000D02*
X136940000Y-113690000D01*
X139117886Y-114310000D02*
X138560000Y-114310000D01*
X139117886Y-113690000D02*
X138560000Y-113690000D01*
X141000000Y-120000000D02*
X141000000Y-121000000D01*
X141000000Y-121000000D02*
X140000000Y-121000000D01*
%TO.C,U1*%
X154475000Y-103245000D02*
X156425000Y-103245000D01*
X154475000Y-103245000D02*
X152525000Y-103245000D01*
X154475000Y-94375000D02*
X156425000Y-94375000D01*
X154475000Y-94375000D02*
X151025000Y-94375000D01*
%TO.C,Y1*%
X163732863Y-89999783D02*
G75*
G02*
X163733144Y-91900000I-732863J-950217D01*
G01*
X162267137Y-89999783D02*
G75*
G03*
X162266856Y-91900000I732863J-950217D01*
G01*
%TO.C,U4*%
X142000000Y-93000000D02*
X142000000Y-113000000D01*
X162000000Y-93000000D02*
X142000000Y-93000000D01*
X162000000Y-113000000D02*
X162000000Y-93000000D01*
X142000000Y-113000000D02*
X162000000Y-113000000D01*
%TO.C,U3*%
X152000000Y-119810000D02*
X155860000Y-119810000D01*
X155860000Y-119810000D02*
X155860000Y-119545000D01*
X152000000Y-119810000D02*
X148140000Y-119810000D01*
X148140000Y-119810000D02*
X148140000Y-119545000D01*
X152000000Y-104190000D02*
X155860000Y-104190000D01*
X155860000Y-104190000D02*
X155860000Y-104455000D01*
X152000000Y-104190000D02*
X148140000Y-104190000D01*
X148140000Y-104190000D02*
X148140000Y-104455000D01*
X148140000Y-104455000D02*
X146325000Y-104455000D01*
%TO.C,U2*%
X157000000Y-92560000D02*
X160450000Y-92560000D01*
X157000000Y-92560000D02*
X155050000Y-92560000D01*
X157000000Y-87440000D02*
X158950000Y-87440000D01*
X157000000Y-87440000D02*
X155050000Y-87440000D01*
%TO.C,SW4*%
X165500000Y-111000000D02*
X170000000Y-111000000D01*
X164250000Y-107000000D02*
X164250000Y-108500000D01*
X170000000Y-104500000D02*
X165500000Y-104500000D01*
X171250000Y-108500000D02*
X171250000Y-107000000D01*
%TO.C,SW3*%
X165500000Y-101500000D02*
X170000000Y-101500000D01*
X164250000Y-97500000D02*
X164250000Y-99000000D01*
X170000000Y-95000000D02*
X165500000Y-95000000D01*
X171250000Y-99000000D02*
X171250000Y-97500000D01*
%TO.C,SW2*%
X134000000Y-111000000D02*
X138500000Y-111000000D01*
X132750000Y-107000000D02*
X132750000Y-108500000D01*
X138500000Y-104500000D02*
X134000000Y-104500000D01*
X139750000Y-108500000D02*
X139750000Y-107000000D01*
%TO.C,SW1*%
X134000000Y-101500000D02*
X138500000Y-101500000D01*
X132750000Y-97500000D02*
X132750000Y-99000000D01*
X138500000Y-95000000D02*
X134000000Y-95000000D01*
X139750000Y-99000000D02*
X139750000Y-97500000D01*
%TO.C,U5*%
X147000000Y-96660000D02*
X148800000Y-96660000D01*
X148800000Y-93440000D02*
X146350000Y-93440000D01*
%TO.C,BT1*%
X142270000Y-90270000D02*
X141000000Y-90270000D01*
X142270000Y-89000000D02*
X142270000Y-90270000D01*
X139957071Y-86080000D02*
X139560000Y-86080000D01*
X139957071Y-86840000D02*
X139560000Y-86840000D01*
X130900000Y-86080000D02*
X136900000Y-86080000D01*
X130900000Y-86840000D02*
X130900000Y-86080000D01*
X136900000Y-86840000D02*
X130900000Y-86840000D01*
X139560000Y-87730000D02*
X136900000Y-87730000D01*
X139890000Y-88620000D02*
X139560000Y-88620000D01*
X139890000Y-89380000D02*
X139560000Y-89380000D01*
X136900000Y-88720000D02*
X130900000Y-88720000D01*
X136900000Y-88840000D02*
X130900000Y-88840000D01*
X136900000Y-88960000D02*
X130900000Y-88960000D01*
X136900000Y-89080000D02*
X130900000Y-89080000D01*
X136900000Y-89200000D02*
X130900000Y-89200000D01*
X136900000Y-89320000D02*
X130900000Y-89320000D01*
X130900000Y-88620000D02*
X136900000Y-88620000D01*
X130900000Y-89380000D02*
X130900000Y-88620000D01*
X136900000Y-89380000D02*
X130900000Y-89380000D01*
X136900000Y-90330000D02*
X139560000Y-90330000D01*
X136900000Y-85130000D02*
X136900000Y-90330000D01*
X139560000Y-85130000D02*
X136900000Y-85130000D01*
X139560000Y-90330000D02*
X139560000Y-85130000D01*
%TO.C,C1*%
D11*
X133833333Y-90507142D02*
X133785714Y-90554761D01*
X133642857Y-90602380D01*
X133547619Y-90602380D01*
X133404761Y-90554761D01*
X133309523Y-90459523D01*
X133261904Y-90364285D01*
X133214285Y-90173809D01*
X133214285Y-90030952D01*
X133261904Y-89840476D01*
X133309523Y-89745238D01*
X133404761Y-89650000D01*
X133547619Y-89602380D01*
X133642857Y-89602380D01*
X133785714Y-89650000D01*
X133833333Y-89697619D01*
X134785714Y-90602380D02*
X134214285Y-90602380D01*
X134500000Y-90602380D02*
X134500000Y-89602380D01*
X134404761Y-89745238D01*
X134309523Y-89840476D01*
X134214285Y-89888095D01*
%TO.C,U1*%
X153713095Y-92982380D02*
X153713095Y-93791904D01*
X153760714Y-93887142D01*
X153808333Y-93934761D01*
X153903571Y-93982380D01*
X154094047Y-93982380D01*
X154189285Y-93934761D01*
X154236904Y-93887142D01*
X154284523Y-93791904D01*
X154284523Y-92982380D01*
X155284523Y-93982380D02*
X154713095Y-93982380D01*
X154998809Y-93982380D02*
X154998809Y-92982380D01*
X154903571Y-93125238D01*
X154808333Y-93220476D01*
X154713095Y-93268095D01*
%TO.C,Y1*%
X160776190Y-91426190D02*
X161252380Y-91426190D01*
X160252380Y-91759523D02*
X160776190Y-91426190D01*
X160252380Y-91092857D01*
X161252380Y-90235714D02*
X161252380Y-90807142D01*
X161252380Y-90521428D02*
X160252380Y-90521428D01*
X160395238Y-90616666D01*
X160490476Y-90711904D01*
X160538095Y-90807142D01*
%TO.C,U4*%
X151238095Y-115202380D02*
X151238095Y-116011904D01*
X151285714Y-116107142D01*
X151333333Y-116154761D01*
X151428571Y-116202380D01*
X151619047Y-116202380D01*
X151714285Y-116154761D01*
X151761904Y-116107142D01*
X151809523Y-116011904D01*
X151809523Y-115202380D01*
X152714285Y-115535714D02*
X152714285Y-116202380D01*
X152476190Y-115154761D02*
X152238095Y-115869047D01*
X152857142Y-115869047D01*
%TO.C,U3*%
X151238095Y-102802380D02*
X151238095Y-103611904D01*
X151285714Y-103707142D01*
X151333333Y-103754761D01*
X151428571Y-103802380D01*
X151619047Y-103802380D01*
X151714285Y-103754761D01*
X151761904Y-103707142D01*
X151809523Y-103611904D01*
X151809523Y-102802380D01*
X152190476Y-102802380D02*
X152809523Y-102802380D01*
X152476190Y-103183333D01*
X152619047Y-103183333D01*
X152714285Y-103230952D01*
X152761904Y-103278571D01*
X152809523Y-103373809D01*
X152809523Y-103611904D01*
X152761904Y-103707142D01*
X152714285Y-103754761D01*
X152619047Y-103802380D01*
X152333333Y-103802380D01*
X152238095Y-103754761D01*
X152190476Y-103707142D01*
%TO.C,U2*%
X156238095Y-92852380D02*
X156238095Y-93661904D01*
X156285714Y-93757142D01*
X156333333Y-93804761D01*
X156428571Y-93852380D01*
X156619047Y-93852380D01*
X156714285Y-93804761D01*
X156761904Y-93757142D01*
X156809523Y-93661904D01*
X156809523Y-92852380D01*
X157238095Y-92947619D02*
X157285714Y-92900000D01*
X157380952Y-92852380D01*
X157619047Y-92852380D01*
X157714285Y-92900000D01*
X157761904Y-92947619D01*
X157809523Y-93042857D01*
X157809523Y-93138095D01*
X157761904Y-93280952D01*
X157190476Y-93852380D01*
X157809523Y-93852380D01*
%TO.C,SW4*%
X166416666Y-103904761D02*
X166559523Y-103952380D01*
X166797619Y-103952380D01*
X166892857Y-103904761D01*
X166940476Y-103857142D01*
X166988095Y-103761904D01*
X166988095Y-103666666D01*
X166940476Y-103571428D01*
X166892857Y-103523809D01*
X166797619Y-103476190D01*
X166607142Y-103428571D01*
X166511904Y-103380952D01*
X166464285Y-103333333D01*
X166416666Y-103238095D01*
X166416666Y-103142857D01*
X166464285Y-103047619D01*
X166511904Y-103000000D01*
X166607142Y-102952380D01*
X166845238Y-102952380D01*
X166988095Y-103000000D01*
X167321428Y-102952380D02*
X167559523Y-103952380D01*
X167750000Y-103238095D01*
X167940476Y-103952380D01*
X168178571Y-102952380D01*
X168988095Y-103285714D02*
X168988095Y-103952380D01*
X168750000Y-102904761D02*
X168511904Y-103619047D01*
X169130952Y-103619047D01*
%TO.C,SW3*%
X166416666Y-94404761D02*
X166559523Y-94452380D01*
X166797619Y-94452380D01*
X166892857Y-94404761D01*
X166940476Y-94357142D01*
X166988095Y-94261904D01*
X166988095Y-94166666D01*
X166940476Y-94071428D01*
X166892857Y-94023809D01*
X166797619Y-93976190D01*
X166607142Y-93928571D01*
X166511904Y-93880952D01*
X166464285Y-93833333D01*
X166416666Y-93738095D01*
X166416666Y-93642857D01*
X166464285Y-93547619D01*
X166511904Y-93500000D01*
X166607142Y-93452380D01*
X166845238Y-93452380D01*
X166988095Y-93500000D01*
X167321428Y-93452380D02*
X167559523Y-94452380D01*
X167750000Y-93738095D01*
X167940476Y-94452380D01*
X168178571Y-93452380D01*
X168464285Y-93452380D02*
X169083333Y-93452380D01*
X168750000Y-93833333D01*
X168892857Y-93833333D01*
X168988095Y-93880952D01*
X169035714Y-93928571D01*
X169083333Y-94023809D01*
X169083333Y-94261904D01*
X169035714Y-94357142D01*
X168988095Y-94404761D01*
X168892857Y-94452380D01*
X168607142Y-94452380D01*
X168511904Y-94404761D01*
X168464285Y-94357142D01*
%TO.C,SW2*%
X134916666Y-103904761D02*
X135059523Y-103952380D01*
X135297619Y-103952380D01*
X135392857Y-103904761D01*
X135440476Y-103857142D01*
X135488095Y-103761904D01*
X135488095Y-103666666D01*
X135440476Y-103571428D01*
X135392857Y-103523809D01*
X135297619Y-103476190D01*
X135107142Y-103428571D01*
X135011904Y-103380952D01*
X134964285Y-103333333D01*
X134916666Y-103238095D01*
X134916666Y-103142857D01*
X134964285Y-103047619D01*
X135011904Y-103000000D01*
X135107142Y-102952380D01*
X135345238Y-102952380D01*
X135488095Y-103000000D01*
X135821428Y-102952380D02*
X136059523Y-103952380D01*
X136250000Y-103238095D01*
X136440476Y-103952380D01*
X136678571Y-102952380D01*
X137011904Y-103047619D02*
X137059523Y-103000000D01*
X137154761Y-102952380D01*
X137392857Y-102952380D01*
X137488095Y-103000000D01*
X137535714Y-103047619D01*
X137583333Y-103142857D01*
X137583333Y-103238095D01*
X137535714Y-103380952D01*
X136964285Y-103952380D01*
X137583333Y-103952380D01*
%TO.C,SW1*%
X134916666Y-94404761D02*
X135059523Y-94452380D01*
X135297619Y-94452380D01*
X135392857Y-94404761D01*
X135440476Y-94357142D01*
X135488095Y-94261904D01*
X135488095Y-94166666D01*
X135440476Y-94071428D01*
X135392857Y-94023809D01*
X135297619Y-93976190D01*
X135107142Y-93928571D01*
X135011904Y-93880952D01*
X134964285Y-93833333D01*
X134916666Y-93738095D01*
X134916666Y-93642857D01*
X134964285Y-93547619D01*
X135011904Y-93500000D01*
X135107142Y-93452380D01*
X135345238Y-93452380D01*
X135488095Y-93500000D01*
X135821428Y-93452380D02*
X136059523Y-94452380D01*
X136250000Y-93738095D01*
X136440476Y-94452380D01*
X136678571Y-93452380D01*
X137583333Y-94452380D02*
X137011904Y-94452380D01*
X137297619Y-94452380D02*
X137297619Y-93452380D01*
X137202380Y-93595238D01*
X137107142Y-93690476D01*
X137011904Y-93738095D01*
%TO.C,R12*%
X163502380Y-109642857D02*
X163026190Y-109976190D01*
X163502380Y-110214285D02*
X162502380Y-110214285D01*
X162502380Y-109833333D01*
X162550000Y-109738095D01*
X162597619Y-109690476D01*
X162692857Y-109642857D01*
X162835714Y-109642857D01*
X162930952Y-109690476D01*
X162978571Y-109738095D01*
X163026190Y-109833333D01*
X163026190Y-110214285D01*
X163502380Y-108690476D02*
X163502380Y-109261904D01*
X163502380Y-108976190D02*
X162502380Y-108976190D01*
X162645238Y-109071428D01*
X162740476Y-109166666D01*
X162788095Y-109261904D01*
X162597619Y-108309523D02*
X162550000Y-108261904D01*
X162502380Y-108166666D01*
X162502380Y-107928571D01*
X162550000Y-107833333D01*
X162597619Y-107785714D01*
X162692857Y-107738095D01*
X162788095Y-107738095D01*
X162930952Y-107785714D01*
X163502380Y-108357142D01*
X163502380Y-107738095D01*
%TO.C,R11*%
X161402380Y-104962857D02*
X160926190Y-105296190D01*
X161402380Y-105534285D02*
X160402380Y-105534285D01*
X160402380Y-105153333D01*
X160450000Y-105058095D01*
X160497619Y-105010476D01*
X160592857Y-104962857D01*
X160735714Y-104962857D01*
X160830952Y-105010476D01*
X160878571Y-105058095D01*
X160926190Y-105153333D01*
X160926190Y-105534285D01*
X161402380Y-104010476D02*
X161402380Y-104581904D01*
X161402380Y-104296190D02*
X160402380Y-104296190D01*
X160545238Y-104391428D01*
X160640476Y-104486666D01*
X160688095Y-104581904D01*
X161402380Y-103058095D02*
X161402380Y-103629523D01*
X161402380Y-103343809D02*
X160402380Y-103343809D01*
X160545238Y-103439047D01*
X160640476Y-103534285D01*
X160688095Y-103629523D01*
%TO.C,R10*%
X163502380Y-112322857D02*
X163026190Y-112656190D01*
X163502380Y-112894285D02*
X162502380Y-112894285D01*
X162502380Y-112513333D01*
X162550000Y-112418095D01*
X162597619Y-112370476D01*
X162692857Y-112322857D01*
X162835714Y-112322857D01*
X162930952Y-112370476D01*
X162978571Y-112418095D01*
X163026190Y-112513333D01*
X163026190Y-112894285D01*
X163502380Y-111370476D02*
X163502380Y-111941904D01*
X163502380Y-111656190D02*
X162502380Y-111656190D01*
X162645238Y-111751428D01*
X162740476Y-111846666D01*
X162788095Y-111941904D01*
X162502380Y-110751428D02*
X162502380Y-110656190D01*
X162550000Y-110560952D01*
X162597619Y-110513333D01*
X162692857Y-110465714D01*
X162883333Y-110418095D01*
X163121428Y-110418095D01*
X163311904Y-110465714D01*
X163407142Y-110513333D01*
X163454761Y-110560952D01*
X163502380Y-110656190D01*
X163502380Y-110751428D01*
X163454761Y-110846666D01*
X163407142Y-110894285D01*
X163311904Y-110941904D01*
X163121428Y-110989523D01*
X162883333Y-110989523D01*
X162692857Y-110941904D01*
X162597619Y-110894285D01*
X162550000Y-110846666D01*
X162502380Y-110751428D01*
%TO.C,R9*%
X163502380Y-106846666D02*
X163026190Y-107180000D01*
X163502380Y-107418095D02*
X162502380Y-107418095D01*
X162502380Y-107037142D01*
X162550000Y-106941904D01*
X162597619Y-106894285D01*
X162692857Y-106846666D01*
X162835714Y-106846666D01*
X162930952Y-106894285D01*
X162978571Y-106941904D01*
X163026190Y-107037142D01*
X163026190Y-107418095D01*
X163502380Y-106370476D02*
X163502380Y-106180000D01*
X163454761Y-106084761D01*
X163407142Y-106037142D01*
X163264285Y-105941904D01*
X163073809Y-105894285D01*
X162692857Y-105894285D01*
X162597619Y-105941904D01*
X162550000Y-105989523D01*
X162502380Y-106084761D01*
X162502380Y-106275238D01*
X162550000Y-106370476D01*
X162597619Y-106418095D01*
X162692857Y-106465714D01*
X162930952Y-106465714D01*
X163026190Y-106418095D01*
X163073809Y-106370476D01*
X163121428Y-106275238D01*
X163121428Y-106084761D01*
X163073809Y-105989523D01*
X163026190Y-105941904D01*
X162930952Y-105894285D01*
%TO.C,R8*%
X143502380Y-99166666D02*
X143026190Y-99500000D01*
X143502380Y-99738095D02*
X142502380Y-99738095D01*
X142502380Y-99357142D01*
X142550000Y-99261904D01*
X142597619Y-99214285D01*
X142692857Y-99166666D01*
X142835714Y-99166666D01*
X142930952Y-99214285D01*
X142978571Y-99261904D01*
X143026190Y-99357142D01*
X143026190Y-99738095D01*
X142930952Y-98595238D02*
X142883333Y-98690476D01*
X142835714Y-98738095D01*
X142740476Y-98785714D01*
X142692857Y-98785714D01*
X142597619Y-98738095D01*
X142550000Y-98690476D01*
X142502380Y-98595238D01*
X142502380Y-98404761D01*
X142550000Y-98309523D01*
X142597619Y-98261904D01*
X142692857Y-98214285D01*
X142740476Y-98214285D01*
X142835714Y-98261904D01*
X142883333Y-98309523D01*
X142930952Y-98404761D01*
X142930952Y-98595238D01*
X142978571Y-98690476D01*
X143026190Y-98738095D01*
X143121428Y-98785714D01*
X143311904Y-98785714D01*
X143407142Y-98738095D01*
X143454761Y-98690476D01*
X143502380Y-98595238D01*
X143502380Y-98404761D01*
X143454761Y-98309523D01*
X143407142Y-98261904D01*
X143311904Y-98214285D01*
X143121428Y-98214285D01*
X143026190Y-98261904D01*
X142978571Y-98309523D01*
X142930952Y-98404761D01*
%TO.C,R7*%
X143502380Y-94486666D02*
X143026190Y-94820000D01*
X143502380Y-95058095D02*
X142502380Y-95058095D01*
X142502380Y-94677142D01*
X142550000Y-94581904D01*
X142597619Y-94534285D01*
X142692857Y-94486666D01*
X142835714Y-94486666D01*
X142930952Y-94534285D01*
X142978571Y-94581904D01*
X143026190Y-94677142D01*
X143026190Y-95058095D01*
X142502380Y-94153333D02*
X142502380Y-93486666D01*
X143502380Y-93915238D01*
%TO.C,R6*%
X143502380Y-102166666D02*
X143026190Y-102500000D01*
X143502380Y-102738095D02*
X142502380Y-102738095D01*
X142502380Y-102357142D01*
X142550000Y-102261904D01*
X142597619Y-102214285D01*
X142692857Y-102166666D01*
X142835714Y-102166666D01*
X142930952Y-102214285D01*
X142978571Y-102261904D01*
X143026190Y-102357142D01*
X143026190Y-102738095D01*
X142502380Y-101309523D02*
X142502380Y-101500000D01*
X142550000Y-101595238D01*
X142597619Y-101642857D01*
X142740476Y-101738095D01*
X142930952Y-101785714D01*
X143311904Y-101785714D01*
X143407142Y-101738095D01*
X143454761Y-101690476D01*
X143502380Y-101595238D01*
X143502380Y-101404761D01*
X143454761Y-101309523D01*
X143407142Y-101261904D01*
X143311904Y-101214285D01*
X143073809Y-101214285D01*
X142978571Y-101261904D01*
X142930952Y-101309523D01*
X142883333Y-101404761D01*
X142883333Y-101595238D01*
X142930952Y-101690476D01*
X142978571Y-101738095D01*
X143073809Y-101785714D01*
%TO.C,R5*%
X143502380Y-97166666D02*
X143026190Y-97500000D01*
X143502380Y-97738095D02*
X142502380Y-97738095D01*
X142502380Y-97357142D01*
X142550000Y-97261904D01*
X142597619Y-97214285D01*
X142692857Y-97166666D01*
X142835714Y-97166666D01*
X142930952Y-97214285D01*
X142978571Y-97261904D01*
X143026190Y-97357142D01*
X143026190Y-97738095D01*
X142502380Y-96261904D02*
X142502380Y-96738095D01*
X142978571Y-96785714D01*
X142930952Y-96738095D01*
X142883333Y-96642857D01*
X142883333Y-96404761D01*
X142930952Y-96309523D01*
X142978571Y-96261904D01*
X143073809Y-96214285D01*
X143311904Y-96214285D01*
X143407142Y-96261904D01*
X143454761Y-96309523D01*
X143502380Y-96404761D01*
X143502380Y-96642857D01*
X143454761Y-96738095D01*
X143407142Y-96785714D01*
%TO.C,R4*%
X170833333Y-102402380D02*
X170500000Y-101926190D01*
X170261904Y-102402380D02*
X170261904Y-101402380D01*
X170642857Y-101402380D01*
X170738095Y-101450000D01*
X170785714Y-101497619D01*
X170833333Y-101592857D01*
X170833333Y-101735714D01*
X170785714Y-101830952D01*
X170738095Y-101878571D01*
X170642857Y-101926190D01*
X170261904Y-101926190D01*
X171690476Y-101735714D02*
X171690476Y-102402380D01*
X171452380Y-101354761D02*
X171214285Y-102069047D01*
X171833333Y-102069047D01*
%TO.C,R3*%
X166833333Y-95502380D02*
X166500000Y-95026190D01*
X166261904Y-95502380D02*
X166261904Y-94502380D01*
X166642857Y-94502380D01*
X166738095Y-94550000D01*
X166785714Y-94597619D01*
X166833333Y-94692857D01*
X166833333Y-94835714D01*
X166785714Y-94930952D01*
X166738095Y-94978571D01*
X166642857Y-95026190D01*
X166261904Y-95026190D01*
X167166666Y-94502380D02*
X167785714Y-94502380D01*
X167452380Y-94883333D01*
X167595238Y-94883333D01*
X167690476Y-94930952D01*
X167738095Y-94978571D01*
X167785714Y-95073809D01*
X167785714Y-95311904D01*
X167738095Y-95407142D01*
X167690476Y-95454761D01*
X167595238Y-95502380D01*
X167309523Y-95502380D01*
X167214285Y-95454761D01*
X167166666Y-95407142D01*
%TO.C,R2*%
X140513333Y-93402380D02*
X140180000Y-92926190D01*
X139941904Y-93402380D02*
X139941904Y-92402380D01*
X140322857Y-92402380D01*
X140418095Y-92450000D01*
X140465714Y-92497619D01*
X140513333Y-92592857D01*
X140513333Y-92735714D01*
X140465714Y-92830952D01*
X140418095Y-92878571D01*
X140322857Y-92926190D01*
X139941904Y-92926190D01*
X140894285Y-92497619D02*
X140941904Y-92450000D01*
X141037142Y-92402380D01*
X141275238Y-92402380D01*
X141370476Y-92450000D01*
X141418095Y-92497619D01*
X141465714Y-92592857D01*
X141465714Y-92688095D01*
X141418095Y-92830952D01*
X140846666Y-93402380D01*
X141465714Y-93402380D01*
%TO.C,R1*%
X136833333Y-102402380D02*
X136500000Y-101926190D01*
X136261904Y-102402380D02*
X136261904Y-101402380D01*
X136642857Y-101402380D01*
X136738095Y-101450000D01*
X136785714Y-101497619D01*
X136833333Y-101592857D01*
X136833333Y-101735714D01*
X136785714Y-101830952D01*
X136738095Y-101878571D01*
X136642857Y-101926190D01*
X136261904Y-101926190D01*
X137785714Y-102402380D02*
X137214285Y-102402380D01*
X137500000Y-102402380D02*
X137500000Y-101402380D01*
X137404761Y-101545238D01*
X137309523Y-101640476D01*
X137214285Y-101688095D01*
%TO.C,BZ1*%
X147119047Y-95178571D02*
X147261904Y-95226190D01*
X147309523Y-95273809D01*
X147357142Y-95369047D01*
X147357142Y-95511904D01*
X147309523Y-95607142D01*
X147261904Y-95654761D01*
X147166666Y-95702380D01*
X146785714Y-95702380D01*
X146785714Y-94702380D01*
X147119047Y-94702380D01*
X147214285Y-94750000D01*
X147261904Y-94797619D01*
X147309523Y-94892857D01*
X147309523Y-94988095D01*
X147261904Y-95083333D01*
X147214285Y-95130952D01*
X147119047Y-95178571D01*
X146785714Y-95178571D01*
X147690476Y-94702380D02*
X148357142Y-94702380D01*
X147690476Y-95702380D01*
X148357142Y-95702380D01*
X149261904Y-95702380D02*
X148690476Y-95702380D01*
X148976190Y-95702380D02*
X148976190Y-94702380D01*
X148880952Y-94845238D01*
X148785714Y-94940476D01*
X148690476Y-94988095D01*
%TO.C,U5*%
X147138095Y-91602380D02*
X147138095Y-92411904D01*
X147185714Y-92507142D01*
X147233333Y-92554761D01*
X147328571Y-92602380D01*
X147519047Y-92602380D01*
X147614285Y-92554761D01*
X147661904Y-92507142D01*
X147709523Y-92411904D01*
X147709523Y-91602380D01*
X148661904Y-91602380D02*
X148185714Y-91602380D01*
X148138095Y-92078571D01*
X148185714Y-92030952D01*
X148280952Y-91983333D01*
X148519047Y-91983333D01*
X148614285Y-92030952D01*
X148661904Y-92078571D01*
X148709523Y-92173809D01*
X148709523Y-92411904D01*
X148661904Y-92507142D01*
X148614285Y-92554761D01*
X148519047Y-92602380D01*
X148280952Y-92602380D01*
X148185714Y-92554761D01*
X148138095Y-92507142D01*
%TO.C,BT1*%
X135829285Y-91198571D02*
X135972142Y-91246190D01*
X136019761Y-91293809D01*
X136067380Y-91389047D01*
X136067380Y-91531904D01*
X136019761Y-91627142D01*
X135972142Y-91674761D01*
X135876904Y-91722380D01*
X135495952Y-91722380D01*
X135495952Y-90722380D01*
X135829285Y-90722380D01*
X135924523Y-90770000D01*
X135972142Y-90817619D01*
X136019761Y-90912857D01*
X136019761Y-91008095D01*
X135972142Y-91103333D01*
X135924523Y-91150952D01*
X135829285Y-91198571D01*
X135495952Y-91198571D01*
X136353095Y-90722380D02*
X136924523Y-90722380D01*
X136638809Y-91722380D02*
X136638809Y-90722380D01*
X137781666Y-91722380D02*
X137210238Y-91722380D01*
X137495952Y-91722380D02*
X137495952Y-90722380D01*
X137400714Y-90865238D01*
X137305476Y-90960476D01*
X137210238Y-91008095D01*
%TD*%
M02*
