G04 #@! TF.GenerationSoftware,KiCad,Pcbnew,5.1.10*
G04 #@! TF.CreationDate,2021-12-20T19:27:34-06:00*
G04 #@! TF.ProjectId,notawatch,6e6f7461-7761-4746-9368-2e6b69636164,rev?*
G04 #@! TF.SameCoordinates,Original*
G04 #@! TF.FileFunction,Copper,L2,Bot*
G04 #@! TF.FilePolarity,Positive*
%FSLAX46Y46*%
G04 Gerber Fmt 4.6, Leading zero omitted, Abs format (unit mm)*
G04 Created by KiCad (PCBNEW 5.1.10) date 2021-12-20 19:27:34*
%MOMM*%
%LPD*%
G01*
G04 APERTURE LIST*
G04 #@! TA.AperFunction,ComponentPad*
%ADD10O,1.350000X1.350000*%
G04 #@! TD*
G04 #@! TA.AperFunction,ComponentPad*
%ADD11R,1.350000X1.350000*%
G04 #@! TD*
G04 #@! TA.AperFunction,ComponentPad*
%ADD12C,1.000000*%
G04 #@! TD*
G04 #@! TA.AperFunction,ComponentPad*
%ADD13C,1.524000*%
G04 #@! TD*
G04 #@! TA.AperFunction,ComponentPad*
%ADD14C,2.000000*%
G04 #@! TD*
G04 #@! TA.AperFunction,ComponentPad*
%ADD15R,1.700000X1.700000*%
G04 #@! TD*
G04 #@! TA.AperFunction,ComponentPad*
%ADD16O,1.700000X1.700000*%
G04 #@! TD*
G04 #@! TA.AperFunction,ViaPad*
%ADD17C,0.800000*%
G04 #@! TD*
G04 #@! TA.AperFunction,Conductor*
%ADD18C,0.250000*%
G04 #@! TD*
G04 APERTURE END LIST*
D10*
X140000000Y-114000000D03*
X140000000Y-116000000D03*
X140000000Y-118000000D03*
D11*
X140000000Y-120000000D03*
D12*
X163000000Y-90000000D03*
X163000000Y-91900000D03*
D13*
X159500000Y-111750000D03*
X159500000Y-109250000D03*
X159500000Y-106750000D03*
X159500000Y-104250000D03*
X159500000Y-94250000D03*
X159500000Y-96750000D03*
X159500000Y-99250000D03*
X159500000Y-101750000D03*
X144500000Y-111750000D03*
X144500000Y-109250000D03*
X144500000Y-106750000D03*
X144500000Y-94250000D03*
X144500000Y-96750000D03*
X144500000Y-99250000D03*
X144500000Y-104250000D03*
X144500000Y-101750000D03*
D14*
X171000000Y-105500000D03*
X171000000Y-110000000D03*
X164500000Y-105500000D03*
X164500000Y-110000000D03*
X171000000Y-96000000D03*
X171000000Y-100500000D03*
X164500000Y-96000000D03*
X164500000Y-100500000D03*
X139500000Y-105500000D03*
X139500000Y-110000000D03*
X133000000Y-105500000D03*
X133000000Y-110000000D03*
X139500000Y-96000000D03*
X139500000Y-100500000D03*
X133000000Y-96000000D03*
X133000000Y-100500000D03*
D15*
X141000000Y-89000000D03*
D16*
X141000000Y-86460000D03*
D17*
X158000000Y-86000000D03*
X158000000Y-104000000D03*
X150000000Y-101000000D03*
X150000000Y-100000000D03*
X155000000Y-107000000D03*
X155000000Y-96000000D03*
X155000000Y-106000000D03*
X155000000Y-97000000D03*
X153000000Y-104000000D03*
X150000000Y-99000000D03*
X158500000Y-100500000D03*
X158500000Y-103000000D03*
X162000000Y-89000000D03*
X148000000Y-99000000D03*
D18*
X147000000Y-89000000D02*
X141000000Y-89000000D01*
X150000000Y-86000000D02*
X147000000Y-89000000D01*
X158000000Y-86000000D02*
X150000000Y-86000000D01*
X140825001Y-106825001D02*
X139500000Y-105500000D01*
X140825001Y-111694997D02*
X140825001Y-106825001D01*
X139000000Y-113519998D02*
X140825001Y-111694997D01*
X139000000Y-120935002D02*
X139000000Y-113519998D01*
X139064999Y-121000001D02*
X139000000Y-120935002D01*
X143345821Y-121000001D02*
X139064999Y-121000001D01*
X158000000Y-106345822D02*
X143345821Y-121000001D01*
X158000000Y-104000000D02*
X158000000Y-106345822D01*
X148926998Y-101000000D02*
X150000000Y-101000000D01*
X146089997Y-98162999D02*
X148926998Y-101000000D01*
X141662999Y-98162999D02*
X146089997Y-98162999D01*
X139500000Y-96000000D02*
X141662999Y-98162999D01*
X150073002Y-100000000D02*
X150000000Y-100000000D01*
X164500000Y-96000000D02*
X162337001Y-98162999D01*
X159695763Y-108162999D02*
X156819233Y-108162999D01*
X150725001Y-101348001D02*
X150725001Y-100651999D01*
X156819233Y-108162999D02*
X143532221Y-121450011D01*
X149236001Y-102837001D02*
X150725001Y-101348001D01*
X143532221Y-121450011D02*
X138878598Y-121450010D01*
X138878598Y-121450010D02*
X138000000Y-120571412D01*
X150725001Y-100651999D02*
X150073002Y-100000000D01*
X138000000Y-120571412D02*
X138000000Y-105038998D01*
X162337001Y-98162999D02*
X162337001Y-105521761D01*
X162337001Y-105521761D02*
X159695763Y-108162999D01*
X138000000Y-105038998D02*
X140201997Y-102837001D01*
X140201997Y-102837001D02*
X149236001Y-102837001D01*
X154434315Y-96000000D02*
X154274999Y-96159316D01*
X155000000Y-96000000D02*
X154434315Y-96000000D01*
X154274999Y-106840684D02*
X154434315Y-107000000D01*
X154434315Y-107000000D02*
X155000000Y-107000000D01*
X154274999Y-96159316D02*
X154274999Y-106840684D01*
X155000000Y-106000000D02*
X155000000Y-97000000D01*
X144000000Y-116000000D02*
X140000000Y-116000000D01*
X153000000Y-107000000D02*
X144000000Y-116000000D01*
X153000000Y-104000000D02*
X153000000Y-107000000D01*
X151175011Y-106683751D02*
X143858762Y-114000000D01*
X151175011Y-99609326D02*
X151175011Y-106683751D01*
X150565685Y-99000000D02*
X151175011Y-99609326D01*
X150000000Y-99000000D02*
X150565685Y-99000000D01*
X140000000Y-114000000D02*
X143858762Y-114000000D01*
X145073002Y-118000000D02*
X140000000Y-118000000D01*
X155725001Y-103274999D02*
X155725001Y-107348001D01*
X155725001Y-107348001D02*
X145073002Y-118000000D01*
X158500000Y-100500000D02*
X155725001Y-103274999D01*
X156175010Y-107534402D02*
X143709412Y-120000000D01*
X143709412Y-120000000D02*
X140000000Y-120000000D01*
X156175011Y-104751987D02*
X156175010Y-107534402D01*
X157926998Y-103000000D02*
X156175011Y-104751987D01*
X158500000Y-103000000D02*
X157926998Y-103000000D01*
X165825001Y-99174999D02*
X164500000Y-100500000D01*
X165825001Y-95363999D02*
X165825001Y-99174999D01*
X165136001Y-94674999D02*
X165825001Y-95363999D01*
X163863999Y-94674999D02*
X165136001Y-94674999D01*
X163174999Y-95363999D02*
X163863999Y-94674999D01*
X151636001Y-95363999D02*
X163174999Y-95363999D01*
X148000000Y-99000000D02*
X151636001Y-95363999D01*
X162000000Y-92811000D02*
X163863999Y-94674999D01*
X162000000Y-89000000D02*
X162000000Y-92811000D01*
X165825001Y-101825001D02*
X164500000Y-100500000D01*
X165825001Y-108674999D02*
X165825001Y-101825001D01*
X164500000Y-110000000D02*
X165825001Y-108674999D01*
X148000000Y-98434315D02*
X148000000Y-99000000D01*
X145228684Y-95662999D02*
X148000000Y-98434315D01*
X143978239Y-95662999D02*
X145228684Y-95662999D01*
X138863999Y-94674999D02*
X142990239Y-94674999D01*
X138174999Y-95363999D02*
X138863999Y-94674999D01*
X138174999Y-99174999D02*
X138174999Y-95363999D01*
X142990239Y-94674999D02*
X143978239Y-95662999D01*
X139500000Y-100500000D02*
X138174999Y-99174999D01*
M02*
