%FSLAX45Y45*%
G04 Gerber Fmt 4.5, Leading zero omitted, Abs format (unit mm)*
G04 Created by KiCad (PCBNEW 5.1.10) date 2021-12-20 19:18:19*
%MOMM*%
%LPD*%
G01*
G04 APERTURE LIST*
%ADD10C,0.200000*%
%ADD11C,0.300000*%
G04 APERTURE END LIST*
D10*
X14780000Y-9880000D02*
X14820000Y-9920000D01*
X14820000Y-9880000D02*
X14780000Y-9920000D01*
X14980000Y-9880000D02*
X15020000Y-9920000D01*
X15020000Y-9880000D02*
X14980000Y-9920000D01*
X14980000Y-9980000D02*
X15020000Y-10020000D01*
X15020000Y-9980000D02*
X14980000Y-10020000D01*
X14980000Y-10080000D02*
X15020000Y-10120000D01*
X15020000Y-10080000D02*
X14980000Y-10120000D01*
X15280000Y-10380000D02*
X15320000Y-10420000D01*
X15320000Y-10380000D02*
X15280000Y-10420000D01*
X15480000Y-9580000D02*
X15520000Y-9620000D01*
X15520000Y-9580000D02*
X15480000Y-9620000D01*
X15480000Y-9680000D02*
X15520000Y-9720000D01*
X15520000Y-9680000D02*
X15480000Y-9720000D01*
X15480000Y-10580000D02*
X15520000Y-10620000D01*
X15520000Y-10580000D02*
X15480000Y-10620000D01*
X15480000Y-10680000D02*
X15520000Y-10720000D01*
X15520000Y-10680000D02*
X15480000Y-10720000D01*
X15780000Y-8580000D02*
X15820000Y-8620000D01*
X15820000Y-8580000D02*
X15780000Y-8620000D01*
X15780000Y-10380000D02*
X15820000Y-10420000D01*
X15820000Y-10380000D02*
X15780000Y-10420000D01*
X15830000Y-10030000D02*
X15870000Y-10070000D01*
X15870000Y-10030000D02*
X15830000Y-10070000D01*
X15830000Y-10280000D02*
X15870000Y-10320000D01*
X15870000Y-10280000D02*
X15830000Y-10320000D01*
X16180000Y-8880000D02*
X16220000Y-8920000D01*
X16220000Y-8880000D02*
X16180000Y-8920000D01*
X16325000Y-9000000D02*
G75*
G03*
X16325000Y-9000000I-25000J0D01*
G01*
X16325000Y-9190000D02*
G75*
G03*
X16325000Y-9190000I-25000J0D01*
G01*
X14450000Y-9386900D02*
X14450000Y-9463100D01*
X14411900Y-9425000D02*
X14488100Y-9425000D01*
X14450000Y-9636900D02*
X14450000Y-9713100D01*
X14411900Y-9675000D02*
X14488100Y-9675000D01*
X14450000Y-9886900D02*
X14450000Y-9963100D01*
X14411900Y-9925000D02*
X14488100Y-9925000D01*
X14450000Y-10136900D02*
X14450000Y-10213100D01*
X14411900Y-10175000D02*
X14488100Y-10175000D01*
X14450000Y-10386900D02*
X14450000Y-10463100D01*
X14411900Y-10425000D02*
X14488100Y-10425000D01*
X14450000Y-10636900D02*
X14450000Y-10713100D01*
X14411900Y-10675000D02*
X14488100Y-10675000D01*
X14450000Y-10886900D02*
X14450000Y-10963100D01*
X14411900Y-10925000D02*
X14488100Y-10925000D01*
X14450000Y-11136900D02*
X14450000Y-11213100D01*
X14411900Y-11175000D02*
X14488100Y-11175000D01*
X15950000Y-9386900D02*
X15950000Y-9463100D01*
X15911900Y-9425000D02*
X15988100Y-9425000D01*
X15950000Y-9636900D02*
X15950000Y-9713100D01*
X15911900Y-9675000D02*
X15988100Y-9675000D01*
X15950000Y-9886900D02*
X15950000Y-9963100D01*
X15911900Y-9925000D02*
X15988100Y-9925000D01*
X15950000Y-10136900D02*
X15950000Y-10213100D01*
X15911900Y-10175000D02*
X15988100Y-10175000D01*
X15950000Y-10386900D02*
X15950000Y-10463100D01*
X15911900Y-10425000D02*
X15988100Y-10425000D01*
X15950000Y-10636900D02*
X15950000Y-10713100D01*
X15911900Y-10675000D02*
X15988100Y-10675000D01*
X15950000Y-10886900D02*
X15950000Y-10963100D01*
X15911900Y-10925000D02*
X15988100Y-10925000D01*
X15950000Y-11136900D02*
X15950000Y-11213100D01*
X15911900Y-11175000D02*
X15988100Y-11175000D01*
X14028284Y-11428284D02*
X14028284Y-11371715D01*
X13971715Y-11371715D01*
X13971715Y-11428284D01*
X14028284Y-11428284D01*
X14028284Y-11628284D02*
X14028284Y-11571715D01*
X13971715Y-11571715D01*
X13971715Y-11628284D01*
X14028284Y-11628284D01*
X14028284Y-11828284D02*
X14028284Y-11771715D01*
X13971715Y-11771715D01*
X13971715Y-11828284D01*
X14028284Y-11828284D01*
X14028284Y-12028284D02*
X14028284Y-11971715D01*
X13971715Y-11971715D01*
X13971715Y-12028284D01*
X14028284Y-12028284D01*
X14100000Y-8696000D02*
X14150000Y-8646000D01*
X14100000Y-8596000D01*
X14050000Y-8646000D01*
X14100000Y-8696000D01*
X14100000Y-8950000D02*
X14150000Y-8900000D01*
X14100000Y-8850000D01*
X14050000Y-8900000D01*
X14100000Y-8950000D01*
X13245000Y-9545000D02*
X13355000Y-9655000D01*
X13355000Y-9545000D02*
X13245000Y-9655000D01*
X13355000Y-9600000D02*
G75*
G03*
X13355000Y-9600000I-55000J0D01*
G01*
X13245000Y-9995000D02*
X13355000Y-10105000D01*
X13355000Y-9995000D02*
X13245000Y-10105000D01*
X13355000Y-10050000D02*
G75*
G03*
X13355000Y-10050000I-55000J0D01*
G01*
X13245000Y-10495000D02*
X13355000Y-10605000D01*
X13355000Y-10495000D02*
X13245000Y-10605000D01*
X13355000Y-10550000D02*
G75*
G03*
X13355000Y-10550000I-55000J0D01*
G01*
X13245000Y-10945000D02*
X13355000Y-11055000D01*
X13355000Y-10945000D02*
X13245000Y-11055000D01*
X13355000Y-11000000D02*
G75*
G03*
X13355000Y-11000000I-55000J0D01*
G01*
X13895000Y-9545000D02*
X14005000Y-9655000D01*
X14005000Y-9545000D02*
X13895000Y-9655000D01*
X14005000Y-9600000D02*
G75*
G03*
X14005000Y-9600000I-55000J0D01*
G01*
X13895000Y-9995000D02*
X14005000Y-10105000D01*
X14005000Y-9995000D02*
X13895000Y-10105000D01*
X14005000Y-10050000D02*
G75*
G03*
X14005000Y-10050000I-55000J0D01*
G01*
X13895000Y-10495000D02*
X14005000Y-10605000D01*
X14005000Y-10495000D02*
X13895000Y-10605000D01*
X14005000Y-10550000D02*
G75*
G03*
X14005000Y-10550000I-55000J0D01*
G01*
X13895000Y-10945000D02*
X14005000Y-11055000D01*
X14005000Y-10945000D02*
X13895000Y-11055000D01*
X14005000Y-11000000D02*
G75*
G03*
X14005000Y-11000000I-55000J0D01*
G01*
X16395000Y-9545000D02*
X16505000Y-9655000D01*
X16505000Y-9545000D02*
X16395000Y-9655000D01*
X16505000Y-9600000D02*
G75*
G03*
X16505000Y-9600000I-55000J0D01*
G01*
X16395000Y-9995000D02*
X16505000Y-10105000D01*
X16505000Y-9995000D02*
X16395000Y-10105000D01*
X16505000Y-10050000D02*
G75*
G03*
X16505000Y-10050000I-55000J0D01*
G01*
X16395000Y-10495000D02*
X16505000Y-10605000D01*
X16505000Y-10495000D02*
X16395000Y-10605000D01*
X16505000Y-10550000D02*
G75*
G03*
X16505000Y-10550000I-55000J0D01*
G01*
X16395000Y-10945000D02*
X16505000Y-11055000D01*
X16505000Y-10945000D02*
X16395000Y-11055000D01*
X16505000Y-11000000D02*
G75*
G03*
X16505000Y-11000000I-55000J0D01*
G01*
X17045000Y-9545000D02*
X17155000Y-9655000D01*
X17155000Y-9545000D02*
X17045000Y-9655000D01*
X17155000Y-9600000D02*
G75*
G03*
X17155000Y-9600000I-55000J0D01*
G01*
X17045000Y-9995000D02*
X17155000Y-10105000D01*
X17155000Y-9995000D02*
X17045000Y-10105000D01*
X17155000Y-10050000D02*
G75*
G03*
X17155000Y-10050000I-55000J0D01*
G01*
X17045000Y-10495000D02*
X17155000Y-10605000D01*
X17155000Y-10495000D02*
X17045000Y-10605000D01*
X17155000Y-10550000D02*
G75*
G03*
X17155000Y-10550000I-55000J0D01*
G01*
X17045000Y-10945000D02*
X17155000Y-11055000D01*
X17155000Y-10945000D02*
X17045000Y-11055000D01*
X17155000Y-11000000D02*
G75*
G03*
X17155000Y-11000000I-55000J0D01*
G01*
D11*
X286429Y-465714D02*
X286429Y-165714D01*
X357857Y-165714D01*
X400714Y-180000D01*
X429286Y-208571D01*
X443571Y-237143D01*
X457857Y-294286D01*
X457857Y-337143D01*
X443571Y-394286D01*
X429286Y-422857D01*
X400714Y-451428D01*
X357857Y-465714D01*
X286429Y-465714D01*
X586429Y-465714D02*
X586429Y-265714D01*
X586429Y-322857D02*
X600714Y-294286D01*
X615000Y-280000D01*
X643571Y-265714D01*
X672143Y-265714D01*
X772143Y-465714D02*
X772143Y-265714D01*
X772143Y-165714D02*
X757857Y-180000D01*
X772143Y-194286D01*
X786428Y-180000D01*
X772143Y-165714D01*
X772143Y-194286D01*
X957857Y-465714D02*
X929286Y-451428D01*
X915000Y-422857D01*
X915000Y-165714D01*
X1115000Y-465714D02*
X1086429Y-451428D01*
X1072143Y-422857D01*
X1072143Y-165714D01*
X1457857Y-465714D02*
X1457857Y-165714D01*
X1557857Y-380000D01*
X1657857Y-165714D01*
X1657857Y-465714D01*
X1929286Y-465714D02*
X1929286Y-308571D01*
X1915000Y-280000D01*
X1886428Y-265714D01*
X1829286Y-265714D01*
X1800714Y-280000D01*
X1929286Y-451428D02*
X1900714Y-465714D01*
X1829286Y-465714D01*
X1800714Y-451428D01*
X1786428Y-422857D01*
X1786428Y-394286D01*
X1800714Y-365714D01*
X1829286Y-351428D01*
X1900714Y-351428D01*
X1929286Y-337143D01*
X2072143Y-265714D02*
X2072143Y-565714D01*
X2072143Y-280000D02*
X2100714Y-265714D01*
X2157857Y-265714D01*
X2186429Y-280000D01*
X2200714Y-294286D01*
X2215000Y-322857D01*
X2215000Y-408571D01*
X2200714Y-437143D01*
X2186429Y-451428D01*
X2157857Y-465714D01*
X2100714Y-465714D01*
X2072143Y-451428D01*
X2343571Y-437143D02*
X2357857Y-451428D01*
X2343571Y-465714D01*
X2329286Y-451428D01*
X2343571Y-437143D01*
X2343571Y-465714D01*
X2343571Y-280000D02*
X2357857Y-294286D01*
X2343571Y-308571D01*
X2329286Y-294286D01*
X2343571Y-280000D01*
X2343571Y-308571D01*
X-40000Y-940000D02*
X0Y-980000D01*
X0Y-940000D02*
X-40000Y-980000D01*
X343571Y-795714D02*
X372143Y-795714D01*
X400714Y-810000D01*
X415000Y-824286D01*
X429286Y-852857D01*
X443571Y-910000D01*
X443571Y-981428D01*
X429286Y-1038571D01*
X415000Y-1067143D01*
X400714Y-1081429D01*
X372143Y-1095714D01*
X343571Y-1095714D01*
X315000Y-1081429D01*
X300714Y-1067143D01*
X286429Y-1038571D01*
X272143Y-981428D01*
X272143Y-910000D01*
X286429Y-852857D01*
X300714Y-824286D01*
X315000Y-810000D01*
X343571Y-795714D01*
X572143Y-1067143D02*
X586429Y-1081429D01*
X572143Y-1095714D01*
X557857Y-1081429D01*
X572143Y-1067143D01*
X572143Y-1095714D01*
X843571Y-895714D02*
X843571Y-1095714D01*
X772143Y-781428D02*
X700714Y-995714D01*
X886428Y-995714D01*
X1057857Y-795714D02*
X1086429Y-795714D01*
X1115000Y-810000D01*
X1129286Y-824286D01*
X1143571Y-852857D01*
X1157857Y-910000D01*
X1157857Y-981428D01*
X1143571Y-1038571D01*
X1129286Y-1067143D01*
X1115000Y-1081429D01*
X1086429Y-1095714D01*
X1057857Y-1095714D01*
X1029286Y-1081429D01*
X1015000Y-1067143D01*
X1000714Y-1038571D01*
X986428Y-981428D01*
X986428Y-910000D01*
X1000714Y-852857D01*
X1015000Y-824286D01*
X1029286Y-810000D01*
X1057857Y-795714D01*
X1343571Y-795714D02*
X1372143Y-795714D01*
X1400714Y-810000D01*
X1415000Y-824286D01*
X1429286Y-852857D01*
X1443571Y-910000D01*
X1443571Y-981428D01*
X1429286Y-1038571D01*
X1415000Y-1067143D01*
X1400714Y-1081429D01*
X1372143Y-1095714D01*
X1343571Y-1095714D01*
X1315000Y-1081429D01*
X1300714Y-1067143D01*
X1286429Y-1038571D01*
X1272143Y-981428D01*
X1272143Y-910000D01*
X1286429Y-852857D01*
X1300714Y-824286D01*
X1315000Y-810000D01*
X1343571Y-795714D01*
X1572143Y-1095714D02*
X1572143Y-895714D01*
X1572143Y-924286D02*
X1586428Y-910000D01*
X1615000Y-895714D01*
X1657857Y-895714D01*
X1686428Y-910000D01*
X1700714Y-938571D01*
X1700714Y-1095714D01*
X1700714Y-938571D02*
X1715000Y-910000D01*
X1743571Y-895714D01*
X1786428Y-895714D01*
X1815000Y-910000D01*
X1829286Y-938571D01*
X1829286Y-1095714D01*
X1972143Y-1095714D02*
X1972143Y-895714D01*
X1972143Y-924286D02*
X1986428Y-910000D01*
X2015000Y-895714D01*
X2057857Y-895714D01*
X2086428Y-910000D01*
X2100714Y-938571D01*
X2100714Y-1095714D01*
X2100714Y-938571D02*
X2115000Y-910000D01*
X2143571Y-895714D01*
X2186429Y-895714D01*
X2215000Y-910000D01*
X2229286Y-938571D01*
X2229286Y-1095714D01*
X2815000Y-781428D02*
X2557857Y-1167143D01*
X3200714Y-795714D02*
X3229286Y-795714D01*
X3257857Y-810000D01*
X3272143Y-824286D01*
X3286428Y-852857D01*
X3300714Y-910000D01*
X3300714Y-981428D01*
X3286428Y-1038571D01*
X3272143Y-1067143D01*
X3257857Y-1081429D01*
X3229286Y-1095714D01*
X3200714Y-1095714D01*
X3172143Y-1081429D01*
X3157857Y-1067143D01*
X3143571Y-1038571D01*
X3129286Y-981428D01*
X3129286Y-910000D01*
X3143571Y-852857D01*
X3157857Y-824286D01*
X3172143Y-810000D01*
X3200714Y-795714D01*
X3429286Y-1067143D02*
X3443571Y-1081429D01*
X3429286Y-1095714D01*
X3415000Y-1081429D01*
X3429286Y-1067143D01*
X3429286Y-1095714D01*
X3629286Y-795714D02*
X3657857Y-795714D01*
X3686428Y-810000D01*
X3700714Y-824286D01*
X3715000Y-852857D01*
X3729286Y-910000D01*
X3729286Y-981428D01*
X3715000Y-1038571D01*
X3700714Y-1067143D01*
X3686428Y-1081429D01*
X3657857Y-1095714D01*
X3629286Y-1095714D01*
X3600714Y-1081429D01*
X3586428Y-1067143D01*
X3572143Y-1038571D01*
X3557857Y-981428D01*
X3557857Y-910000D01*
X3572143Y-852857D01*
X3586428Y-824286D01*
X3600714Y-810000D01*
X3629286Y-795714D01*
X4015000Y-1095714D02*
X3843571Y-1095714D01*
X3929286Y-1095714D02*
X3929286Y-795714D01*
X3900714Y-838571D01*
X3872143Y-867143D01*
X3843571Y-881428D01*
X4286429Y-795714D02*
X4143571Y-795714D01*
X4129286Y-938571D01*
X4143571Y-924286D01*
X4172143Y-910000D01*
X4243571Y-910000D01*
X4272143Y-924286D01*
X4286429Y-938571D01*
X4300714Y-967143D01*
X4300714Y-1038571D01*
X4286429Y-1067143D01*
X4272143Y-1081429D01*
X4243571Y-1095714D01*
X4172143Y-1095714D01*
X4143571Y-1081429D01*
X4129286Y-1067143D01*
X4400714Y-795714D02*
X4600714Y-795714D01*
X4472143Y-1095714D01*
X4700714Y-795714D02*
X4700714Y-852857D01*
X4815000Y-795714D02*
X4815000Y-852857D01*
X5257857Y-1210000D02*
X5243571Y-1195714D01*
X5215000Y-1152857D01*
X5200714Y-1124286D01*
X5186429Y-1081429D01*
X5172143Y-1010000D01*
X5172143Y-952857D01*
X5186429Y-881428D01*
X5200714Y-838571D01*
X5215000Y-810000D01*
X5243571Y-767143D01*
X5257857Y-752857D01*
X5529286Y-1095714D02*
X5357857Y-1095714D01*
X5443571Y-1095714D02*
X5443571Y-795714D01*
X5415000Y-838571D01*
X5386429Y-867143D01*
X5357857Y-881428D01*
X5786428Y-895714D02*
X5786428Y-1095714D01*
X5715000Y-781428D02*
X5643571Y-995714D01*
X5829286Y-995714D01*
X6172143Y-1095714D02*
X6172143Y-795714D01*
X6300714Y-1095714D02*
X6300714Y-938571D01*
X6286428Y-910000D01*
X6257857Y-895714D01*
X6215000Y-895714D01*
X6186428Y-910000D01*
X6172143Y-924286D01*
X6486428Y-1095714D02*
X6457857Y-1081429D01*
X6443571Y-1067143D01*
X6429286Y-1038571D01*
X6429286Y-952857D01*
X6443571Y-924286D01*
X6457857Y-910000D01*
X6486428Y-895714D01*
X6529286Y-895714D01*
X6557857Y-910000D01*
X6572143Y-924286D01*
X6586428Y-952857D01*
X6586428Y-1038571D01*
X6572143Y-1067143D01*
X6557857Y-1081429D01*
X6529286Y-1095714D01*
X6486428Y-1095714D01*
X6757857Y-1095714D02*
X6729286Y-1081429D01*
X6715000Y-1052857D01*
X6715000Y-795714D01*
X6986428Y-1081429D02*
X6957857Y-1095714D01*
X6900714Y-1095714D01*
X6872143Y-1081429D01*
X6857857Y-1052857D01*
X6857857Y-938571D01*
X6872143Y-910000D01*
X6900714Y-895714D01*
X6957857Y-895714D01*
X6986428Y-910000D01*
X7000714Y-938571D01*
X7000714Y-967143D01*
X6857857Y-995714D01*
X7115000Y-1081429D02*
X7143571Y-1095714D01*
X7200714Y-1095714D01*
X7229286Y-1081429D01*
X7243571Y-1052857D01*
X7243571Y-1038571D01*
X7229286Y-1010000D01*
X7200714Y-995714D01*
X7157857Y-995714D01*
X7129286Y-981428D01*
X7115000Y-952857D01*
X7115000Y-938571D01*
X7129286Y-910000D01*
X7157857Y-895714D01*
X7200714Y-895714D01*
X7229286Y-910000D01*
X7343571Y-1210000D02*
X7357857Y-1195714D01*
X7386428Y-1152857D01*
X7400714Y-1124286D01*
X7415000Y-1081429D01*
X7429286Y-1010000D01*
X7429286Y-952857D01*
X7415000Y-881428D01*
X7400714Y-838571D01*
X7386428Y-810000D01*
X7357857Y-767143D01*
X7343571Y-752857D01*
X0Y-1356000D02*
G75*
G03*
X0Y-1356000I-25000J0D01*
G01*
X343571Y-1191714D02*
X372143Y-1191714D01*
X400714Y-1206000D01*
X415000Y-1220286D01*
X429286Y-1248857D01*
X443571Y-1306000D01*
X443571Y-1377429D01*
X429286Y-1434571D01*
X415000Y-1463143D01*
X400714Y-1477428D01*
X372143Y-1491714D01*
X343571Y-1491714D01*
X315000Y-1477428D01*
X300714Y-1463143D01*
X286429Y-1434571D01*
X272143Y-1377429D01*
X272143Y-1306000D01*
X286429Y-1248857D01*
X300714Y-1220286D01*
X315000Y-1206000D01*
X343571Y-1191714D01*
X572143Y-1463143D02*
X586429Y-1477428D01*
X572143Y-1491714D01*
X557857Y-1477428D01*
X572143Y-1463143D01*
X572143Y-1491714D01*
X857857Y-1191714D02*
X715000Y-1191714D01*
X700714Y-1334571D01*
X715000Y-1320286D01*
X743571Y-1306000D01*
X815000Y-1306000D01*
X843571Y-1320286D01*
X857857Y-1334571D01*
X872143Y-1363143D01*
X872143Y-1434571D01*
X857857Y-1463143D01*
X843571Y-1477428D01*
X815000Y-1491714D01*
X743571Y-1491714D01*
X715000Y-1477428D01*
X700714Y-1463143D01*
X1057857Y-1191714D02*
X1086429Y-1191714D01*
X1115000Y-1206000D01*
X1129286Y-1220286D01*
X1143571Y-1248857D01*
X1157857Y-1306000D01*
X1157857Y-1377429D01*
X1143571Y-1434571D01*
X1129286Y-1463143D01*
X1115000Y-1477428D01*
X1086429Y-1491714D01*
X1057857Y-1491714D01*
X1029286Y-1477428D01*
X1015000Y-1463143D01*
X1000714Y-1434571D01*
X986428Y-1377429D01*
X986428Y-1306000D01*
X1000714Y-1248857D01*
X1015000Y-1220286D01*
X1029286Y-1206000D01*
X1057857Y-1191714D01*
X1343571Y-1191714D02*
X1372143Y-1191714D01*
X1400714Y-1206000D01*
X1415000Y-1220286D01*
X1429286Y-1248857D01*
X1443571Y-1306000D01*
X1443571Y-1377429D01*
X1429286Y-1434571D01*
X1415000Y-1463143D01*
X1400714Y-1477428D01*
X1372143Y-1491714D01*
X1343571Y-1491714D01*
X1315000Y-1477428D01*
X1300714Y-1463143D01*
X1286429Y-1434571D01*
X1272143Y-1377429D01*
X1272143Y-1306000D01*
X1286429Y-1248857D01*
X1300714Y-1220286D01*
X1315000Y-1206000D01*
X1343571Y-1191714D01*
X1572143Y-1491714D02*
X1572143Y-1291714D01*
X1572143Y-1320286D02*
X1586428Y-1306000D01*
X1615000Y-1291714D01*
X1657857Y-1291714D01*
X1686428Y-1306000D01*
X1700714Y-1334571D01*
X1700714Y-1491714D01*
X1700714Y-1334571D02*
X1715000Y-1306000D01*
X1743571Y-1291714D01*
X1786428Y-1291714D01*
X1815000Y-1306000D01*
X1829286Y-1334571D01*
X1829286Y-1491714D01*
X1972143Y-1491714D02*
X1972143Y-1291714D01*
X1972143Y-1320286D02*
X1986428Y-1306000D01*
X2015000Y-1291714D01*
X2057857Y-1291714D01*
X2086428Y-1306000D01*
X2100714Y-1334571D01*
X2100714Y-1491714D01*
X2100714Y-1334571D02*
X2115000Y-1306000D01*
X2143571Y-1291714D01*
X2186429Y-1291714D01*
X2215000Y-1306000D01*
X2229286Y-1334571D01*
X2229286Y-1491714D01*
X2815000Y-1177429D02*
X2557857Y-1563143D01*
X3200714Y-1191714D02*
X3229286Y-1191714D01*
X3257857Y-1206000D01*
X3272143Y-1220286D01*
X3286428Y-1248857D01*
X3300714Y-1306000D01*
X3300714Y-1377429D01*
X3286428Y-1434571D01*
X3272143Y-1463143D01*
X3257857Y-1477428D01*
X3229286Y-1491714D01*
X3200714Y-1491714D01*
X3172143Y-1477428D01*
X3157857Y-1463143D01*
X3143571Y-1434571D01*
X3129286Y-1377429D01*
X3129286Y-1306000D01*
X3143571Y-1248857D01*
X3157857Y-1220286D01*
X3172143Y-1206000D01*
X3200714Y-1191714D01*
X3429286Y-1463143D02*
X3443571Y-1477428D01*
X3429286Y-1491714D01*
X3415000Y-1477428D01*
X3429286Y-1463143D01*
X3429286Y-1491714D01*
X3629286Y-1191714D02*
X3657857Y-1191714D01*
X3686428Y-1206000D01*
X3700714Y-1220286D01*
X3715000Y-1248857D01*
X3729286Y-1306000D01*
X3729286Y-1377429D01*
X3715000Y-1434571D01*
X3700714Y-1463143D01*
X3686428Y-1477428D01*
X3657857Y-1491714D01*
X3629286Y-1491714D01*
X3600714Y-1477428D01*
X3586428Y-1463143D01*
X3572143Y-1434571D01*
X3557857Y-1377429D01*
X3557857Y-1306000D01*
X3572143Y-1248857D01*
X3586428Y-1220286D01*
X3600714Y-1206000D01*
X3629286Y-1191714D01*
X4015000Y-1491714D02*
X3843571Y-1491714D01*
X3929286Y-1491714D02*
X3929286Y-1191714D01*
X3900714Y-1234571D01*
X3872143Y-1263143D01*
X3843571Y-1277429D01*
X4157857Y-1491714D02*
X4215000Y-1491714D01*
X4243571Y-1477428D01*
X4257857Y-1463143D01*
X4286429Y-1420286D01*
X4300714Y-1363143D01*
X4300714Y-1248857D01*
X4286429Y-1220286D01*
X4272143Y-1206000D01*
X4243571Y-1191714D01*
X4186428Y-1191714D01*
X4157857Y-1206000D01*
X4143571Y-1220286D01*
X4129286Y-1248857D01*
X4129286Y-1320286D01*
X4143571Y-1348857D01*
X4157857Y-1363143D01*
X4186428Y-1377429D01*
X4243571Y-1377429D01*
X4272143Y-1363143D01*
X4286429Y-1348857D01*
X4300714Y-1320286D01*
X4400714Y-1191714D02*
X4600714Y-1191714D01*
X4472143Y-1491714D01*
X4700714Y-1191714D02*
X4700714Y-1248857D01*
X4815000Y-1191714D02*
X4815000Y-1248857D01*
X5257857Y-1606000D02*
X5243571Y-1591714D01*
X5215000Y-1548857D01*
X5200714Y-1520286D01*
X5186429Y-1477428D01*
X5172143Y-1406000D01*
X5172143Y-1348857D01*
X5186429Y-1277429D01*
X5200714Y-1234571D01*
X5215000Y-1206000D01*
X5243571Y-1163143D01*
X5257857Y-1148857D01*
X5357857Y-1220286D02*
X5372143Y-1206000D01*
X5400714Y-1191714D01*
X5472143Y-1191714D01*
X5500714Y-1206000D01*
X5515000Y-1220286D01*
X5529286Y-1248857D01*
X5529286Y-1277429D01*
X5515000Y-1320286D01*
X5343571Y-1491714D01*
X5529286Y-1491714D01*
X5886428Y-1491714D02*
X5886428Y-1191714D01*
X6015000Y-1491714D02*
X6015000Y-1334571D01*
X6000714Y-1306000D01*
X5972143Y-1291714D01*
X5929286Y-1291714D01*
X5900714Y-1306000D01*
X5886428Y-1320286D01*
X6200714Y-1491714D02*
X6172143Y-1477428D01*
X6157857Y-1463143D01*
X6143571Y-1434571D01*
X6143571Y-1348857D01*
X6157857Y-1320286D01*
X6172143Y-1306000D01*
X6200714Y-1291714D01*
X6243571Y-1291714D01*
X6272143Y-1306000D01*
X6286428Y-1320286D01*
X6300714Y-1348857D01*
X6300714Y-1434571D01*
X6286428Y-1463143D01*
X6272143Y-1477428D01*
X6243571Y-1491714D01*
X6200714Y-1491714D01*
X6472143Y-1491714D02*
X6443571Y-1477428D01*
X6429286Y-1448857D01*
X6429286Y-1191714D01*
X6700714Y-1477428D02*
X6672143Y-1491714D01*
X6615000Y-1491714D01*
X6586428Y-1477428D01*
X6572143Y-1448857D01*
X6572143Y-1334571D01*
X6586428Y-1306000D01*
X6615000Y-1291714D01*
X6672143Y-1291714D01*
X6700714Y-1306000D01*
X6715000Y-1334571D01*
X6715000Y-1363143D01*
X6572143Y-1391714D01*
X6829286Y-1477428D02*
X6857857Y-1491714D01*
X6915000Y-1491714D01*
X6943571Y-1477428D01*
X6957857Y-1448857D01*
X6957857Y-1434571D01*
X6943571Y-1406000D01*
X6915000Y-1391714D01*
X6872143Y-1391714D01*
X6843571Y-1377429D01*
X6829286Y-1348857D01*
X6829286Y-1334571D01*
X6843571Y-1306000D01*
X6872143Y-1291714D01*
X6915000Y-1291714D01*
X6943571Y-1306000D01*
X7057857Y-1606000D02*
X7072143Y-1591714D01*
X7100714Y-1548857D01*
X7115000Y-1520286D01*
X7129286Y-1477428D01*
X7143571Y-1406000D01*
X7143571Y-1348857D01*
X7129286Y-1277429D01*
X7115000Y-1234571D01*
X7100714Y-1206000D01*
X7072143Y-1163143D01*
X7057857Y-1148857D01*
X-38100Y-1713900D02*
X-38100Y-1790100D01*
X-76200Y-1752000D02*
X0Y-1752000D01*
X343571Y-1587714D02*
X372143Y-1587714D01*
X400714Y-1602000D01*
X415000Y-1616286D01*
X429286Y-1644857D01*
X443571Y-1702000D01*
X443571Y-1773428D01*
X429286Y-1830571D01*
X415000Y-1859143D01*
X400714Y-1873428D01*
X372143Y-1887714D01*
X343571Y-1887714D01*
X315000Y-1873428D01*
X300714Y-1859143D01*
X286429Y-1830571D01*
X272143Y-1773428D01*
X272143Y-1702000D01*
X286429Y-1644857D01*
X300714Y-1616286D01*
X315000Y-1602000D01*
X343571Y-1587714D01*
X572143Y-1859143D02*
X586429Y-1873428D01*
X572143Y-1887714D01*
X557857Y-1873428D01*
X572143Y-1859143D01*
X572143Y-1887714D01*
X686429Y-1587714D02*
X886428Y-1587714D01*
X757857Y-1887714D01*
X1129286Y-1587714D02*
X1072143Y-1587714D01*
X1043571Y-1602000D01*
X1029286Y-1616286D01*
X1000714Y-1659143D01*
X986428Y-1716286D01*
X986428Y-1830571D01*
X1000714Y-1859143D01*
X1015000Y-1873428D01*
X1043571Y-1887714D01*
X1100714Y-1887714D01*
X1129286Y-1873428D01*
X1143571Y-1859143D01*
X1157857Y-1830571D01*
X1157857Y-1759143D01*
X1143571Y-1730571D01*
X1129286Y-1716286D01*
X1100714Y-1702000D01*
X1043571Y-1702000D01*
X1015000Y-1716286D01*
X1000714Y-1730571D01*
X986428Y-1759143D01*
X1272143Y-1616286D02*
X1286429Y-1602000D01*
X1315000Y-1587714D01*
X1386429Y-1587714D01*
X1415000Y-1602000D01*
X1429286Y-1616286D01*
X1443571Y-1644857D01*
X1443571Y-1673428D01*
X1429286Y-1716286D01*
X1257857Y-1887714D01*
X1443571Y-1887714D01*
X1572143Y-1887714D02*
X1572143Y-1687714D01*
X1572143Y-1716286D02*
X1586428Y-1702000D01*
X1615000Y-1687714D01*
X1657857Y-1687714D01*
X1686428Y-1702000D01*
X1700714Y-1730571D01*
X1700714Y-1887714D01*
X1700714Y-1730571D02*
X1715000Y-1702000D01*
X1743571Y-1687714D01*
X1786428Y-1687714D01*
X1815000Y-1702000D01*
X1829286Y-1730571D01*
X1829286Y-1887714D01*
X1972143Y-1887714D02*
X1972143Y-1687714D01*
X1972143Y-1716286D02*
X1986428Y-1702000D01*
X2015000Y-1687714D01*
X2057857Y-1687714D01*
X2086428Y-1702000D01*
X2100714Y-1730571D01*
X2100714Y-1887714D01*
X2100714Y-1730571D02*
X2115000Y-1702000D01*
X2143571Y-1687714D01*
X2186429Y-1687714D01*
X2215000Y-1702000D01*
X2229286Y-1730571D01*
X2229286Y-1887714D01*
X2815000Y-1573428D02*
X2557857Y-1959143D01*
X3200714Y-1587714D02*
X3229286Y-1587714D01*
X3257857Y-1602000D01*
X3272143Y-1616286D01*
X3286428Y-1644857D01*
X3300714Y-1702000D01*
X3300714Y-1773428D01*
X3286428Y-1830571D01*
X3272143Y-1859143D01*
X3257857Y-1873428D01*
X3229286Y-1887714D01*
X3200714Y-1887714D01*
X3172143Y-1873428D01*
X3157857Y-1859143D01*
X3143571Y-1830571D01*
X3129286Y-1773428D01*
X3129286Y-1702000D01*
X3143571Y-1644857D01*
X3157857Y-1616286D01*
X3172143Y-1602000D01*
X3200714Y-1587714D01*
X3429286Y-1859143D02*
X3443571Y-1873428D01*
X3429286Y-1887714D01*
X3415000Y-1873428D01*
X3429286Y-1859143D01*
X3429286Y-1887714D01*
X3629286Y-1587714D02*
X3657857Y-1587714D01*
X3686428Y-1602000D01*
X3700714Y-1616286D01*
X3715000Y-1644857D01*
X3729286Y-1702000D01*
X3729286Y-1773428D01*
X3715000Y-1830571D01*
X3700714Y-1859143D01*
X3686428Y-1873428D01*
X3657857Y-1887714D01*
X3629286Y-1887714D01*
X3600714Y-1873428D01*
X3586428Y-1859143D01*
X3572143Y-1830571D01*
X3557857Y-1773428D01*
X3557857Y-1702000D01*
X3572143Y-1644857D01*
X3586428Y-1616286D01*
X3600714Y-1602000D01*
X3629286Y-1587714D01*
X3829286Y-1587714D02*
X4015000Y-1587714D01*
X3915000Y-1702000D01*
X3957857Y-1702000D01*
X3986428Y-1716286D01*
X4000714Y-1730571D01*
X4015000Y-1759143D01*
X4015000Y-1830571D01*
X4000714Y-1859143D01*
X3986428Y-1873428D01*
X3957857Y-1887714D01*
X3872143Y-1887714D01*
X3843571Y-1873428D01*
X3829286Y-1859143D01*
X4200714Y-1587714D02*
X4229286Y-1587714D01*
X4257857Y-1602000D01*
X4272143Y-1616286D01*
X4286429Y-1644857D01*
X4300714Y-1702000D01*
X4300714Y-1773428D01*
X4286429Y-1830571D01*
X4272143Y-1859143D01*
X4257857Y-1873428D01*
X4229286Y-1887714D01*
X4200714Y-1887714D01*
X4172143Y-1873428D01*
X4157857Y-1859143D01*
X4143571Y-1830571D01*
X4129286Y-1773428D01*
X4129286Y-1702000D01*
X4143571Y-1644857D01*
X4157857Y-1616286D01*
X4172143Y-1602000D01*
X4200714Y-1587714D01*
X4486429Y-1587714D02*
X4515000Y-1587714D01*
X4543571Y-1602000D01*
X4557857Y-1616286D01*
X4572143Y-1644857D01*
X4586429Y-1702000D01*
X4586429Y-1773428D01*
X4572143Y-1830571D01*
X4557857Y-1859143D01*
X4543571Y-1873428D01*
X4515000Y-1887714D01*
X4486429Y-1887714D01*
X4457857Y-1873428D01*
X4443571Y-1859143D01*
X4429286Y-1830571D01*
X4415000Y-1773428D01*
X4415000Y-1702000D01*
X4429286Y-1644857D01*
X4443571Y-1616286D01*
X4457857Y-1602000D01*
X4486429Y-1587714D01*
X4700714Y-1587714D02*
X4700714Y-1644857D01*
X4815000Y-1587714D02*
X4815000Y-1644857D01*
X5257857Y-2002000D02*
X5243571Y-1987714D01*
X5215000Y-1944857D01*
X5200714Y-1916286D01*
X5186429Y-1873428D01*
X5172143Y-1802000D01*
X5172143Y-1744857D01*
X5186429Y-1673428D01*
X5200714Y-1630571D01*
X5215000Y-1602000D01*
X5243571Y-1559143D01*
X5257857Y-1544857D01*
X5529286Y-1887714D02*
X5357857Y-1887714D01*
X5443571Y-1887714D02*
X5443571Y-1587714D01*
X5415000Y-1630571D01*
X5386429Y-1659143D01*
X5357857Y-1673428D01*
X5786428Y-1587714D02*
X5729286Y-1587714D01*
X5700714Y-1602000D01*
X5686428Y-1616286D01*
X5657857Y-1659143D01*
X5643571Y-1716286D01*
X5643571Y-1830571D01*
X5657857Y-1859143D01*
X5672143Y-1873428D01*
X5700714Y-1887714D01*
X5757857Y-1887714D01*
X5786428Y-1873428D01*
X5800714Y-1859143D01*
X5815000Y-1830571D01*
X5815000Y-1759143D01*
X5800714Y-1730571D01*
X5786428Y-1716286D01*
X5757857Y-1702000D01*
X5700714Y-1702000D01*
X5672143Y-1716286D01*
X5657857Y-1730571D01*
X5643571Y-1759143D01*
X6172143Y-1887714D02*
X6172143Y-1587714D01*
X6300714Y-1887714D02*
X6300714Y-1730571D01*
X6286428Y-1702000D01*
X6257857Y-1687714D01*
X6215000Y-1687714D01*
X6186428Y-1702000D01*
X6172143Y-1716286D01*
X6486428Y-1887714D02*
X6457857Y-1873428D01*
X6443571Y-1859143D01*
X6429286Y-1830571D01*
X6429286Y-1744857D01*
X6443571Y-1716286D01*
X6457857Y-1702000D01*
X6486428Y-1687714D01*
X6529286Y-1687714D01*
X6557857Y-1702000D01*
X6572143Y-1716286D01*
X6586428Y-1744857D01*
X6586428Y-1830571D01*
X6572143Y-1859143D01*
X6557857Y-1873428D01*
X6529286Y-1887714D01*
X6486428Y-1887714D01*
X6757857Y-1887714D02*
X6729286Y-1873428D01*
X6715000Y-1844857D01*
X6715000Y-1587714D01*
X6986428Y-1873428D02*
X6957857Y-1887714D01*
X6900714Y-1887714D01*
X6872143Y-1873428D01*
X6857857Y-1844857D01*
X6857857Y-1730571D01*
X6872143Y-1702000D01*
X6900714Y-1687714D01*
X6957857Y-1687714D01*
X6986428Y-1702000D01*
X7000714Y-1730571D01*
X7000714Y-1759143D01*
X6857857Y-1787714D01*
X7115000Y-1873428D02*
X7143571Y-1887714D01*
X7200714Y-1887714D01*
X7229286Y-1873428D01*
X7243571Y-1844857D01*
X7243571Y-1830571D01*
X7229286Y-1802000D01*
X7200714Y-1787714D01*
X7157857Y-1787714D01*
X7129286Y-1773428D01*
X7115000Y-1744857D01*
X7115000Y-1730571D01*
X7129286Y-1702000D01*
X7157857Y-1687714D01*
X7200714Y-1687714D01*
X7229286Y-1702000D01*
X7343571Y-2002000D02*
X7357857Y-1987714D01*
X7386428Y-1944857D01*
X7400714Y-1916286D01*
X7415000Y-1873428D01*
X7429286Y-1802000D01*
X7429286Y-1744857D01*
X7415000Y-1673428D01*
X7400714Y-1630571D01*
X7386428Y-1602000D01*
X7357857Y-1559143D01*
X7343571Y-1544857D01*
X-11715Y-2176285D02*
X-11715Y-2119716D01*
X-68285Y-2119716D01*
X-68285Y-2176285D01*
X-11715Y-2176285D01*
X343571Y-1983714D02*
X372143Y-1983714D01*
X400714Y-1998000D01*
X415000Y-2012286D01*
X429286Y-2040857D01*
X443571Y-2098000D01*
X443571Y-2169429D01*
X429286Y-2226571D01*
X415000Y-2255143D01*
X400714Y-2269429D01*
X372143Y-2283714D01*
X343571Y-2283714D01*
X315000Y-2269429D01*
X300714Y-2255143D01*
X286429Y-2226571D01*
X272143Y-2169429D01*
X272143Y-2098000D01*
X286429Y-2040857D01*
X300714Y-2012286D01*
X315000Y-1998000D01*
X343571Y-1983714D01*
X572143Y-2255143D02*
X586429Y-2269429D01*
X572143Y-2283714D01*
X557857Y-2269429D01*
X572143Y-2255143D01*
X572143Y-2283714D01*
X757857Y-2112286D02*
X729286Y-2098000D01*
X715000Y-2083714D01*
X700714Y-2055143D01*
X700714Y-2040857D01*
X715000Y-2012286D01*
X729286Y-1998000D01*
X757857Y-1983714D01*
X815000Y-1983714D01*
X843571Y-1998000D01*
X857857Y-2012286D01*
X872143Y-2040857D01*
X872143Y-2055143D01*
X857857Y-2083714D01*
X843571Y-2098000D01*
X815000Y-2112286D01*
X757857Y-2112286D01*
X729286Y-2126571D01*
X715000Y-2140857D01*
X700714Y-2169429D01*
X700714Y-2226571D01*
X715000Y-2255143D01*
X729286Y-2269429D01*
X757857Y-2283714D01*
X815000Y-2283714D01*
X843571Y-2269429D01*
X857857Y-2255143D01*
X872143Y-2226571D01*
X872143Y-2169429D01*
X857857Y-2140857D01*
X843571Y-2126571D01*
X815000Y-2112286D01*
X1057857Y-1983714D02*
X1086429Y-1983714D01*
X1115000Y-1998000D01*
X1129286Y-2012286D01*
X1143571Y-2040857D01*
X1157857Y-2098000D01*
X1157857Y-2169429D01*
X1143571Y-2226571D01*
X1129286Y-2255143D01*
X1115000Y-2269429D01*
X1086429Y-2283714D01*
X1057857Y-2283714D01*
X1029286Y-2269429D01*
X1015000Y-2255143D01*
X1000714Y-2226571D01*
X986428Y-2169429D01*
X986428Y-2098000D01*
X1000714Y-2040857D01*
X1015000Y-2012286D01*
X1029286Y-1998000D01*
X1057857Y-1983714D01*
X1343571Y-1983714D02*
X1372143Y-1983714D01*
X1400714Y-1998000D01*
X1415000Y-2012286D01*
X1429286Y-2040857D01*
X1443571Y-2098000D01*
X1443571Y-2169429D01*
X1429286Y-2226571D01*
X1415000Y-2255143D01*
X1400714Y-2269429D01*
X1372143Y-2283714D01*
X1343571Y-2283714D01*
X1315000Y-2269429D01*
X1300714Y-2255143D01*
X1286429Y-2226571D01*
X1272143Y-2169429D01*
X1272143Y-2098000D01*
X1286429Y-2040857D01*
X1300714Y-2012286D01*
X1315000Y-1998000D01*
X1343571Y-1983714D01*
X1572143Y-2283714D02*
X1572143Y-2083714D01*
X1572143Y-2112286D02*
X1586428Y-2098000D01*
X1615000Y-2083714D01*
X1657857Y-2083714D01*
X1686428Y-2098000D01*
X1700714Y-2126571D01*
X1700714Y-2283714D01*
X1700714Y-2126571D02*
X1715000Y-2098000D01*
X1743571Y-2083714D01*
X1786428Y-2083714D01*
X1815000Y-2098000D01*
X1829286Y-2126571D01*
X1829286Y-2283714D01*
X1972143Y-2283714D02*
X1972143Y-2083714D01*
X1972143Y-2112286D02*
X1986428Y-2098000D01*
X2015000Y-2083714D01*
X2057857Y-2083714D01*
X2086428Y-2098000D01*
X2100714Y-2126571D01*
X2100714Y-2283714D01*
X2100714Y-2126571D02*
X2115000Y-2098000D01*
X2143571Y-2083714D01*
X2186429Y-2083714D01*
X2215000Y-2098000D01*
X2229286Y-2126571D01*
X2229286Y-2283714D01*
X2815000Y-1969428D02*
X2557857Y-2355143D01*
X3200714Y-1983714D02*
X3229286Y-1983714D01*
X3257857Y-1998000D01*
X3272143Y-2012286D01*
X3286428Y-2040857D01*
X3300714Y-2098000D01*
X3300714Y-2169429D01*
X3286428Y-2226571D01*
X3272143Y-2255143D01*
X3257857Y-2269429D01*
X3229286Y-2283714D01*
X3200714Y-2283714D01*
X3172143Y-2269429D01*
X3157857Y-2255143D01*
X3143571Y-2226571D01*
X3129286Y-2169429D01*
X3129286Y-2098000D01*
X3143571Y-2040857D01*
X3157857Y-2012286D01*
X3172143Y-1998000D01*
X3200714Y-1983714D01*
X3429286Y-2255143D02*
X3443571Y-2269429D01*
X3429286Y-2283714D01*
X3415000Y-2269429D01*
X3429286Y-2255143D01*
X3429286Y-2283714D01*
X3629286Y-1983714D02*
X3657857Y-1983714D01*
X3686428Y-1998000D01*
X3700714Y-2012286D01*
X3715000Y-2040857D01*
X3729286Y-2098000D01*
X3729286Y-2169429D01*
X3715000Y-2226571D01*
X3700714Y-2255143D01*
X3686428Y-2269429D01*
X3657857Y-2283714D01*
X3629286Y-2283714D01*
X3600714Y-2269429D01*
X3586428Y-2255143D01*
X3572143Y-2226571D01*
X3557857Y-2169429D01*
X3557857Y-2098000D01*
X3572143Y-2040857D01*
X3586428Y-2012286D01*
X3600714Y-1998000D01*
X3629286Y-1983714D01*
X3829286Y-1983714D02*
X4015000Y-1983714D01*
X3915000Y-2098000D01*
X3957857Y-2098000D01*
X3986428Y-2112286D01*
X4000714Y-2126571D01*
X4015000Y-2155143D01*
X4015000Y-2226571D01*
X4000714Y-2255143D01*
X3986428Y-2269429D01*
X3957857Y-2283714D01*
X3872143Y-2283714D01*
X3843571Y-2269429D01*
X3829286Y-2255143D01*
X4300714Y-2283714D02*
X4129286Y-2283714D01*
X4215000Y-2283714D02*
X4215000Y-1983714D01*
X4186428Y-2026571D01*
X4157857Y-2055143D01*
X4129286Y-2069428D01*
X4572143Y-1983714D02*
X4429286Y-1983714D01*
X4415000Y-2126571D01*
X4429286Y-2112286D01*
X4457857Y-2098000D01*
X4529286Y-2098000D01*
X4557857Y-2112286D01*
X4572143Y-2126571D01*
X4586429Y-2155143D01*
X4586429Y-2226571D01*
X4572143Y-2255143D01*
X4557857Y-2269429D01*
X4529286Y-2283714D01*
X4457857Y-2283714D01*
X4429286Y-2269429D01*
X4415000Y-2255143D01*
X4700714Y-1983714D02*
X4700714Y-2040857D01*
X4815000Y-1983714D02*
X4815000Y-2040857D01*
X5257857Y-2398000D02*
X5243571Y-2383714D01*
X5215000Y-2340857D01*
X5200714Y-2312286D01*
X5186429Y-2269429D01*
X5172143Y-2198000D01*
X5172143Y-2140857D01*
X5186429Y-2069428D01*
X5200714Y-2026571D01*
X5215000Y-1998000D01*
X5243571Y-1955143D01*
X5257857Y-1940857D01*
X5500714Y-2083714D02*
X5500714Y-2283714D01*
X5429286Y-1969428D02*
X5357857Y-2183714D01*
X5543571Y-2183714D01*
X5886428Y-2283714D02*
X5886428Y-1983714D01*
X6015000Y-2283714D02*
X6015000Y-2126571D01*
X6000714Y-2098000D01*
X5972143Y-2083714D01*
X5929286Y-2083714D01*
X5900714Y-2098000D01*
X5886428Y-2112286D01*
X6200714Y-2283714D02*
X6172143Y-2269429D01*
X6157857Y-2255143D01*
X6143571Y-2226571D01*
X6143571Y-2140857D01*
X6157857Y-2112286D01*
X6172143Y-2098000D01*
X6200714Y-2083714D01*
X6243571Y-2083714D01*
X6272143Y-2098000D01*
X6286428Y-2112286D01*
X6300714Y-2140857D01*
X6300714Y-2226571D01*
X6286428Y-2255143D01*
X6272143Y-2269429D01*
X6243571Y-2283714D01*
X6200714Y-2283714D01*
X6472143Y-2283714D02*
X6443571Y-2269429D01*
X6429286Y-2240857D01*
X6429286Y-1983714D01*
X6700714Y-2269429D02*
X6672143Y-2283714D01*
X6615000Y-2283714D01*
X6586428Y-2269429D01*
X6572143Y-2240857D01*
X6572143Y-2126571D01*
X6586428Y-2098000D01*
X6615000Y-2083714D01*
X6672143Y-2083714D01*
X6700714Y-2098000D01*
X6715000Y-2126571D01*
X6715000Y-2155143D01*
X6572143Y-2183714D01*
X6829286Y-2269429D02*
X6857857Y-2283714D01*
X6915000Y-2283714D01*
X6943571Y-2269429D01*
X6957857Y-2240857D01*
X6957857Y-2226571D01*
X6943571Y-2198000D01*
X6915000Y-2183714D01*
X6872143Y-2183714D01*
X6843571Y-2169429D01*
X6829286Y-2140857D01*
X6829286Y-2126571D01*
X6843571Y-2098000D01*
X6872143Y-2083714D01*
X6915000Y-2083714D01*
X6943571Y-2098000D01*
X7057857Y-2398000D02*
X7072143Y-2383714D01*
X7100714Y-2340857D01*
X7115000Y-2312286D01*
X7129286Y-2269429D01*
X7143571Y-2198000D01*
X7143571Y-2140857D01*
X7129286Y-2069428D01*
X7115000Y-2026571D01*
X7100714Y-1998000D01*
X7072143Y-1955143D01*
X7057857Y-1940857D01*
X-50000Y-2594000D02*
X0Y-2544000D01*
X-50000Y-2494000D01*
X-100000Y-2544000D01*
X-50000Y-2594000D01*
X443571Y-2679714D02*
X272143Y-2679714D01*
X357857Y-2679714D02*
X357857Y-2379714D01*
X329286Y-2422571D01*
X300714Y-2451143D01*
X272143Y-2465429D01*
X572143Y-2651143D02*
X586429Y-2665429D01*
X572143Y-2679714D01*
X557857Y-2665429D01*
X572143Y-2651143D01*
X572143Y-2679714D01*
X772143Y-2379714D02*
X800714Y-2379714D01*
X829286Y-2394000D01*
X843571Y-2408286D01*
X857857Y-2436857D01*
X872143Y-2494000D01*
X872143Y-2565429D01*
X857857Y-2622571D01*
X843571Y-2651143D01*
X829286Y-2665429D01*
X800714Y-2679714D01*
X772143Y-2679714D01*
X743571Y-2665429D01*
X729286Y-2651143D01*
X715000Y-2622571D01*
X700714Y-2565429D01*
X700714Y-2494000D01*
X715000Y-2436857D01*
X729286Y-2408286D01*
X743571Y-2394000D01*
X772143Y-2379714D01*
X1057857Y-2379714D02*
X1086429Y-2379714D01*
X1115000Y-2394000D01*
X1129286Y-2408286D01*
X1143571Y-2436857D01*
X1157857Y-2494000D01*
X1157857Y-2565429D01*
X1143571Y-2622571D01*
X1129286Y-2651143D01*
X1115000Y-2665429D01*
X1086429Y-2679714D01*
X1057857Y-2679714D01*
X1029286Y-2665429D01*
X1015000Y-2651143D01*
X1000714Y-2622571D01*
X986428Y-2565429D01*
X986428Y-2494000D01*
X1000714Y-2436857D01*
X1015000Y-2408286D01*
X1029286Y-2394000D01*
X1057857Y-2379714D01*
X1343571Y-2379714D02*
X1372143Y-2379714D01*
X1400714Y-2394000D01*
X1415000Y-2408286D01*
X1429286Y-2436857D01*
X1443571Y-2494000D01*
X1443571Y-2565429D01*
X1429286Y-2622571D01*
X1415000Y-2651143D01*
X1400714Y-2665429D01*
X1372143Y-2679714D01*
X1343571Y-2679714D01*
X1315000Y-2665429D01*
X1300714Y-2651143D01*
X1286429Y-2622571D01*
X1272143Y-2565429D01*
X1272143Y-2494000D01*
X1286429Y-2436857D01*
X1300714Y-2408286D01*
X1315000Y-2394000D01*
X1343571Y-2379714D01*
X1572143Y-2679714D02*
X1572143Y-2479714D01*
X1572143Y-2508286D02*
X1586428Y-2494000D01*
X1615000Y-2479714D01*
X1657857Y-2479714D01*
X1686428Y-2494000D01*
X1700714Y-2522571D01*
X1700714Y-2679714D01*
X1700714Y-2522571D02*
X1715000Y-2494000D01*
X1743571Y-2479714D01*
X1786428Y-2479714D01*
X1815000Y-2494000D01*
X1829286Y-2522571D01*
X1829286Y-2679714D01*
X1972143Y-2679714D02*
X1972143Y-2479714D01*
X1972143Y-2508286D02*
X1986428Y-2494000D01*
X2015000Y-2479714D01*
X2057857Y-2479714D01*
X2086428Y-2494000D01*
X2100714Y-2522571D01*
X2100714Y-2679714D01*
X2100714Y-2522571D02*
X2115000Y-2494000D01*
X2143571Y-2479714D01*
X2186429Y-2479714D01*
X2215000Y-2494000D01*
X2229286Y-2522571D01*
X2229286Y-2679714D01*
X2815000Y-2365429D02*
X2557857Y-2751143D01*
X3200714Y-2379714D02*
X3229286Y-2379714D01*
X3257857Y-2394000D01*
X3272143Y-2408286D01*
X3286428Y-2436857D01*
X3300714Y-2494000D01*
X3300714Y-2565429D01*
X3286428Y-2622571D01*
X3272143Y-2651143D01*
X3257857Y-2665429D01*
X3229286Y-2679714D01*
X3200714Y-2679714D01*
X3172143Y-2665429D01*
X3157857Y-2651143D01*
X3143571Y-2622571D01*
X3129286Y-2565429D01*
X3129286Y-2494000D01*
X3143571Y-2436857D01*
X3157857Y-2408286D01*
X3172143Y-2394000D01*
X3200714Y-2379714D01*
X3429286Y-2651143D02*
X3443571Y-2665429D01*
X3429286Y-2679714D01*
X3415000Y-2665429D01*
X3429286Y-2651143D01*
X3429286Y-2679714D01*
X3629286Y-2379714D02*
X3657857Y-2379714D01*
X3686428Y-2394000D01*
X3700714Y-2408286D01*
X3715000Y-2436857D01*
X3729286Y-2494000D01*
X3729286Y-2565429D01*
X3715000Y-2622571D01*
X3700714Y-2651143D01*
X3686428Y-2665429D01*
X3657857Y-2679714D01*
X3629286Y-2679714D01*
X3600714Y-2665429D01*
X3586428Y-2651143D01*
X3572143Y-2622571D01*
X3557857Y-2565429D01*
X3557857Y-2494000D01*
X3572143Y-2436857D01*
X3586428Y-2408286D01*
X3600714Y-2394000D01*
X3629286Y-2379714D01*
X3829286Y-2379714D02*
X4015000Y-2379714D01*
X3915000Y-2494000D01*
X3957857Y-2494000D01*
X3986428Y-2508286D01*
X4000714Y-2522571D01*
X4015000Y-2551143D01*
X4015000Y-2622571D01*
X4000714Y-2651143D01*
X3986428Y-2665429D01*
X3957857Y-2679714D01*
X3872143Y-2679714D01*
X3843571Y-2665429D01*
X3829286Y-2651143D01*
X4157857Y-2679714D02*
X4215000Y-2679714D01*
X4243571Y-2665429D01*
X4257857Y-2651143D01*
X4286429Y-2608286D01*
X4300714Y-2551143D01*
X4300714Y-2436857D01*
X4286429Y-2408286D01*
X4272143Y-2394000D01*
X4243571Y-2379714D01*
X4186428Y-2379714D01*
X4157857Y-2394000D01*
X4143571Y-2408286D01*
X4129286Y-2436857D01*
X4129286Y-2508286D01*
X4143571Y-2536857D01*
X4157857Y-2551143D01*
X4186428Y-2565429D01*
X4243571Y-2565429D01*
X4272143Y-2551143D01*
X4286429Y-2536857D01*
X4300714Y-2508286D01*
X4557857Y-2479714D02*
X4557857Y-2679714D01*
X4486429Y-2365429D02*
X4415000Y-2579714D01*
X4600714Y-2579714D01*
X4700714Y-2379714D02*
X4700714Y-2436857D01*
X4815000Y-2379714D02*
X4815000Y-2436857D01*
X5257857Y-2794000D02*
X5243571Y-2779714D01*
X5215000Y-2736857D01*
X5200714Y-2708286D01*
X5186429Y-2665429D01*
X5172143Y-2594000D01*
X5172143Y-2536857D01*
X5186429Y-2465429D01*
X5200714Y-2422571D01*
X5215000Y-2394000D01*
X5243571Y-2351143D01*
X5257857Y-2336857D01*
X5357857Y-2408286D02*
X5372143Y-2394000D01*
X5400714Y-2379714D01*
X5472143Y-2379714D01*
X5500714Y-2394000D01*
X5515000Y-2408286D01*
X5529286Y-2436857D01*
X5529286Y-2465429D01*
X5515000Y-2508286D01*
X5343571Y-2679714D01*
X5529286Y-2679714D01*
X5886428Y-2679714D02*
X5886428Y-2379714D01*
X6015000Y-2679714D02*
X6015000Y-2522571D01*
X6000714Y-2494000D01*
X5972143Y-2479714D01*
X5929286Y-2479714D01*
X5900714Y-2494000D01*
X5886428Y-2508286D01*
X6200714Y-2679714D02*
X6172143Y-2665429D01*
X6157857Y-2651143D01*
X6143571Y-2622571D01*
X6143571Y-2536857D01*
X6157857Y-2508286D01*
X6172143Y-2494000D01*
X6200714Y-2479714D01*
X6243571Y-2479714D01*
X6272143Y-2494000D01*
X6286428Y-2508286D01*
X6300714Y-2536857D01*
X6300714Y-2622571D01*
X6286428Y-2651143D01*
X6272143Y-2665429D01*
X6243571Y-2679714D01*
X6200714Y-2679714D01*
X6472143Y-2679714D02*
X6443571Y-2665429D01*
X6429286Y-2636857D01*
X6429286Y-2379714D01*
X6700714Y-2665429D02*
X6672143Y-2679714D01*
X6615000Y-2679714D01*
X6586428Y-2665429D01*
X6572143Y-2636857D01*
X6572143Y-2522571D01*
X6586428Y-2494000D01*
X6615000Y-2479714D01*
X6672143Y-2479714D01*
X6700714Y-2494000D01*
X6715000Y-2522571D01*
X6715000Y-2551143D01*
X6572143Y-2579714D01*
X6829286Y-2665429D02*
X6857857Y-2679714D01*
X6915000Y-2679714D01*
X6943571Y-2665429D01*
X6957857Y-2636857D01*
X6957857Y-2622571D01*
X6943571Y-2594000D01*
X6915000Y-2579714D01*
X6872143Y-2579714D01*
X6843571Y-2565429D01*
X6829286Y-2536857D01*
X6829286Y-2522571D01*
X6843571Y-2494000D01*
X6872143Y-2479714D01*
X6915000Y-2479714D01*
X6943571Y-2494000D01*
X7057857Y-2794000D02*
X7072143Y-2779714D01*
X7100714Y-2736857D01*
X7115000Y-2708286D01*
X7129286Y-2665429D01*
X7143571Y-2594000D01*
X7143571Y-2536857D01*
X7129286Y-2465429D01*
X7115000Y-2422571D01*
X7100714Y-2394000D01*
X7072143Y-2351143D01*
X7057857Y-2336857D01*
X-110000Y-2885000D02*
X0Y-2995000D01*
X0Y-2885000D02*
X-110000Y-2995000D01*
X0Y-2940000D02*
G75*
G03*
X0Y-2940000I-55000J0D01*
G01*
X443571Y-3075714D02*
X272143Y-3075714D01*
X357857Y-3075714D02*
X357857Y-2775714D01*
X329286Y-2818571D01*
X300714Y-2847143D01*
X272143Y-2861428D01*
X572143Y-3047143D02*
X586429Y-3061428D01*
X572143Y-3075714D01*
X557857Y-3061428D01*
X572143Y-3047143D01*
X572143Y-3075714D01*
X872143Y-3075714D02*
X700714Y-3075714D01*
X786428Y-3075714D02*
X786428Y-2775714D01*
X757857Y-2818571D01*
X729286Y-2847143D01*
X700714Y-2861428D01*
X1057857Y-2775714D02*
X1086429Y-2775714D01*
X1115000Y-2790000D01*
X1129286Y-2804286D01*
X1143571Y-2832857D01*
X1157857Y-2890000D01*
X1157857Y-2961428D01*
X1143571Y-3018571D01*
X1129286Y-3047143D01*
X1115000Y-3061428D01*
X1086429Y-3075714D01*
X1057857Y-3075714D01*
X1029286Y-3061428D01*
X1015000Y-3047143D01*
X1000714Y-3018571D01*
X986428Y-2961428D01*
X986428Y-2890000D01*
X1000714Y-2832857D01*
X1015000Y-2804286D01*
X1029286Y-2790000D01*
X1057857Y-2775714D01*
X1343571Y-2775714D02*
X1372143Y-2775714D01*
X1400714Y-2790000D01*
X1415000Y-2804286D01*
X1429286Y-2832857D01*
X1443571Y-2890000D01*
X1443571Y-2961428D01*
X1429286Y-3018571D01*
X1415000Y-3047143D01*
X1400714Y-3061428D01*
X1372143Y-3075714D01*
X1343571Y-3075714D01*
X1315000Y-3061428D01*
X1300714Y-3047143D01*
X1286429Y-3018571D01*
X1272143Y-2961428D01*
X1272143Y-2890000D01*
X1286429Y-2832857D01*
X1300714Y-2804286D01*
X1315000Y-2790000D01*
X1343571Y-2775714D01*
X1572143Y-3075714D02*
X1572143Y-2875714D01*
X1572143Y-2904286D02*
X1586428Y-2890000D01*
X1615000Y-2875714D01*
X1657857Y-2875714D01*
X1686428Y-2890000D01*
X1700714Y-2918571D01*
X1700714Y-3075714D01*
X1700714Y-2918571D02*
X1715000Y-2890000D01*
X1743571Y-2875714D01*
X1786428Y-2875714D01*
X1815000Y-2890000D01*
X1829286Y-2918571D01*
X1829286Y-3075714D01*
X1972143Y-3075714D02*
X1972143Y-2875714D01*
X1972143Y-2904286D02*
X1986428Y-2890000D01*
X2015000Y-2875714D01*
X2057857Y-2875714D01*
X2086428Y-2890000D01*
X2100714Y-2918571D01*
X2100714Y-3075714D01*
X2100714Y-2918571D02*
X2115000Y-2890000D01*
X2143571Y-2875714D01*
X2186429Y-2875714D01*
X2215000Y-2890000D01*
X2229286Y-2918571D01*
X2229286Y-3075714D01*
X2815000Y-2761429D02*
X2557857Y-3147143D01*
X3200714Y-2775714D02*
X3229286Y-2775714D01*
X3257857Y-2790000D01*
X3272143Y-2804286D01*
X3286428Y-2832857D01*
X3300714Y-2890000D01*
X3300714Y-2961428D01*
X3286428Y-3018571D01*
X3272143Y-3047143D01*
X3257857Y-3061428D01*
X3229286Y-3075714D01*
X3200714Y-3075714D01*
X3172143Y-3061428D01*
X3157857Y-3047143D01*
X3143571Y-3018571D01*
X3129286Y-2961428D01*
X3129286Y-2890000D01*
X3143571Y-2832857D01*
X3157857Y-2804286D01*
X3172143Y-2790000D01*
X3200714Y-2775714D01*
X3429286Y-3047143D02*
X3443571Y-3061428D01*
X3429286Y-3075714D01*
X3415000Y-3061428D01*
X3429286Y-3047143D01*
X3429286Y-3075714D01*
X3629286Y-2775714D02*
X3657857Y-2775714D01*
X3686428Y-2790000D01*
X3700714Y-2804286D01*
X3715000Y-2832857D01*
X3729286Y-2890000D01*
X3729286Y-2961428D01*
X3715000Y-3018571D01*
X3700714Y-3047143D01*
X3686428Y-3061428D01*
X3657857Y-3075714D01*
X3629286Y-3075714D01*
X3600714Y-3061428D01*
X3586428Y-3047143D01*
X3572143Y-3018571D01*
X3557857Y-2961428D01*
X3557857Y-2890000D01*
X3572143Y-2832857D01*
X3586428Y-2804286D01*
X3600714Y-2790000D01*
X3629286Y-2775714D01*
X3986428Y-2875714D02*
X3986428Y-3075714D01*
X3915000Y-2761429D02*
X3843571Y-2975714D01*
X4029286Y-2975714D01*
X4115000Y-2775714D02*
X4300714Y-2775714D01*
X4200714Y-2890000D01*
X4243571Y-2890000D01*
X4272143Y-2904286D01*
X4286429Y-2918571D01*
X4300714Y-2947143D01*
X4300714Y-3018571D01*
X4286429Y-3047143D01*
X4272143Y-3061428D01*
X4243571Y-3075714D01*
X4157857Y-3075714D01*
X4129286Y-3061428D01*
X4115000Y-3047143D01*
X4400714Y-2775714D02*
X4586429Y-2775714D01*
X4486429Y-2890000D01*
X4529286Y-2890000D01*
X4557857Y-2904286D01*
X4572143Y-2918571D01*
X4586429Y-2947143D01*
X4586429Y-3018571D01*
X4572143Y-3047143D01*
X4557857Y-3061428D01*
X4529286Y-3075714D01*
X4443571Y-3075714D01*
X4415000Y-3061428D01*
X4400714Y-3047143D01*
X4700714Y-2775714D02*
X4700714Y-2832857D01*
X4815000Y-2775714D02*
X4815000Y-2832857D01*
X5257857Y-3190000D02*
X5243571Y-3175714D01*
X5215000Y-3132857D01*
X5200714Y-3104286D01*
X5186429Y-3061428D01*
X5172143Y-2990000D01*
X5172143Y-2932857D01*
X5186429Y-2861428D01*
X5200714Y-2818571D01*
X5215000Y-2790000D01*
X5243571Y-2747143D01*
X5257857Y-2732857D01*
X5529286Y-3075714D02*
X5357857Y-3075714D01*
X5443571Y-3075714D02*
X5443571Y-2775714D01*
X5415000Y-2818571D01*
X5386429Y-2847143D01*
X5357857Y-2861428D01*
X5786428Y-2775714D02*
X5729286Y-2775714D01*
X5700714Y-2790000D01*
X5686428Y-2804286D01*
X5657857Y-2847143D01*
X5643571Y-2904286D01*
X5643571Y-3018571D01*
X5657857Y-3047143D01*
X5672143Y-3061428D01*
X5700714Y-3075714D01*
X5757857Y-3075714D01*
X5786428Y-3061428D01*
X5800714Y-3047143D01*
X5815000Y-3018571D01*
X5815000Y-2947143D01*
X5800714Y-2918571D01*
X5786428Y-2904286D01*
X5757857Y-2890000D01*
X5700714Y-2890000D01*
X5672143Y-2904286D01*
X5657857Y-2918571D01*
X5643571Y-2947143D01*
X6172143Y-3075714D02*
X6172143Y-2775714D01*
X6300714Y-3075714D02*
X6300714Y-2918571D01*
X6286428Y-2890000D01*
X6257857Y-2875714D01*
X6215000Y-2875714D01*
X6186428Y-2890000D01*
X6172143Y-2904286D01*
X6486428Y-3075714D02*
X6457857Y-3061428D01*
X6443571Y-3047143D01*
X6429286Y-3018571D01*
X6429286Y-2932857D01*
X6443571Y-2904286D01*
X6457857Y-2890000D01*
X6486428Y-2875714D01*
X6529286Y-2875714D01*
X6557857Y-2890000D01*
X6572143Y-2904286D01*
X6586428Y-2932857D01*
X6586428Y-3018571D01*
X6572143Y-3047143D01*
X6557857Y-3061428D01*
X6529286Y-3075714D01*
X6486428Y-3075714D01*
X6757857Y-3075714D02*
X6729286Y-3061428D01*
X6715000Y-3032857D01*
X6715000Y-2775714D01*
X6986428Y-3061428D02*
X6957857Y-3075714D01*
X6900714Y-3075714D01*
X6872143Y-3061428D01*
X6857857Y-3032857D01*
X6857857Y-2918571D01*
X6872143Y-2890000D01*
X6900714Y-2875714D01*
X6957857Y-2875714D01*
X6986428Y-2890000D01*
X7000714Y-2918571D01*
X7000714Y-2947143D01*
X6857857Y-2975714D01*
X7115000Y-3061428D02*
X7143571Y-3075714D01*
X7200714Y-3075714D01*
X7229286Y-3061428D01*
X7243571Y-3032857D01*
X7243571Y-3018571D01*
X7229286Y-2990000D01*
X7200714Y-2975714D01*
X7157857Y-2975714D01*
X7129286Y-2961428D01*
X7115000Y-2932857D01*
X7115000Y-2918571D01*
X7129286Y-2890000D01*
X7157857Y-2875714D01*
X7200714Y-2875714D01*
X7229286Y-2890000D01*
X7343571Y-3190000D02*
X7357857Y-3175714D01*
X7386428Y-3132857D01*
X7400714Y-3104286D01*
X7415000Y-3061428D01*
X7429286Y-2990000D01*
X7429286Y-2932857D01*
X7415000Y-2861428D01*
X7400714Y-2818571D01*
X7386428Y-2790000D01*
X7357857Y-2747143D01*
X7343571Y-2732857D01*
M02*
